<?xml version="1.0" encoding="utf-8"?>
<!-- Generator: Adobe Illustrator 22.1.0, SVG Export Plug-In . SVG Version: 6.00 Build 0)  -->
<svg version="1.1" id="Layer_1" xmlns="http://www.w3.org/2000/svg" xmlns:xlink="http://www.w3.org/1999/xlink" x="0px" y="0px"
	 viewBox="0 0 101.4 62.7" style="enable-background:new 0 0 101.4 62.7;" xml:space="preserve">
<g id="figure_1">
	<g id="axes_1">
		<g id="PatchCollection_1">
			<g>
				<path d="M88.4,11.7L88.4,11.7l0.5-0.1l0.7-0.2l0.7-0.2l0.7-0.2l0.7-0.2l0.7-0.2l0.7-0.2l0.7-0.2l0-0.5l0.1-0.3l0.2,0l0.1,0
					l0.1-0.1l0.1-0.1l0.1,0l0.1,0.1l0.1,0.1l0,0l0-0.1l0-0.1l0-0.1l0.1,0l0.1,0l0-0.1l0-0.1l-0.1-0.1l0-0.1l0.1-0.3l0.2-0.2l0.1-0.1
					l0-0.2l0.1-0.2l0-0.1l0-0.1l-0.1-0.1l0-0.2l0-0.2l0-0.3l0.1-0.2l0.1-0.3l0-0.3l0-0.3l0.1-0.4l0.1-0.4l0.1-0.2l0.2-0.4l0.1-0.3
					l0.1-0.1l0.1-0.2l0.2,0l0.2,0l0,0.2l0.1,0.1L96.4,4l0.1,0l0.1,0l0.1,0L97,3.8l0.3-0.2l0.1-0.1l0-0.1l0.1,0l0.1,0l0.3,0.1
					l0.3,0.2l0.3,0.1l0.1,0.3l0.1,0.4l0.1,0.4l0.1,0.3L99,5.5l0.1,0.3l0.1,0.4l0.1,0.2l0,0.1l0,0.1l0,0l0,0l0,0l0,0.1l0,0.1l0,0.1
					l0,0.1l0,0.1l0.1,0l0,0l0.1,0l0.1,0l0.1,0l0.1,0l0.1,0l0.1,0l0.1,0.1l0,0.1l0,0.1l0,0l0,0.1l0,0.1l0.1,0l0.1,0.1l0,0.1l0,0.1
					l0,0.1l0.1,0.1l0.1,0.1l0.1,0.1l0.1,0l0,0l0-0.1l0,0l0.1,0l0.1,0l0.1,0l0,0.1l0.1,0.1l0.1,0.2l0,0.1l0.1,0.1l0.2,0l0.1,0l0,0
					l-0.2,0.5l-0.3,0l-0.1,0.1l-0.2,0.1l0,0.2l-0.1,0.1l-0.1,0l-0.1,0l-0.1,0l0,0.3l-0.1,0l0,0.1l0,0.1l-0.1,0.1l-0.1-0.1L99.8,10
					l-0.1,0l-0.1,0l-0.1,0l0,0l0,0.1l-0.1,0.1l-0.1,0l-0.1-0.1l0,0.2l0,0.2l0.1,0.2l0,0.1l-0.1,0l-0.1-0.1l-0.2,0l-0.1,0.1l0-0.1
					l0.1-0.2l-0.1,0l-0.1,0l0,0l0-0.1l0-0.1l0,0.1l0,0.2l-0.2,0.2l0.1,0.2l-0.1,0.5l0,0.2l-0.1,0.2l-0.1,0.2l-0.2,0L98,11.9l0,0.1
					l-0.1,0l-0.1-0.1l0,0l0,0.2l-0.1,0L97.6,12l-0.1-0.1L97.5,12l0,0.3l-0.1,0l0-0.1l0,0l0,0.1l0.1,0.1l0,0.1l-0.1,0l-0.1-0.1
					l-0.1,0.1l-0.1,0l0-0.1l0-0.1L97,12.5l-0.2,0.2L96.7,13l0.1,0l0.1,0.1l-0.2,0.4l-0.2,0.4l-0.1,0.6l-0.1,0.1l0,0.1l0,0.3l0,0.3
					l0.1,0.1l0.1,0.1l0.1,0.1l0.1,0l0.1,0l0.1,0l0,0l0,0.1l-0.1,0l-0.1,0.2l-0.1,0.1l0,0.2l-0.1,0.2l-0.1,0.3l0.1,0.1l0.3,0l0.2,0
					l0.3,0.4l0,0.1l0,0.1l0.2,0.1l0.1,0.3l0.2,0.1l0.2,0l0.3-0.2l0.2-0.2l0-0.1l-0.2-0.2l-0.1-0.1l-0.1,0l0,0.1l-0.1-0.1l0,0l0.1,0
					l0.1,0l0.1,0l0.3,0.2l0.2,0.3l0.1,0.2l0,0.1l-0.1,0l-0.1,0.1l-0.6,0.3L97.7,18l-0.3,0.2l0-0.1l0-0.1l-0.1-0.2l-0.1,0l-0.4,0.5
					l-0.2,0.1l-0.1,0.2l-0.1-0.1l-0.1-0.3l0-0.3l-0.1,0l-0.1,0.2l-0.1-0.1L96.1,18l-0.1,0L96,18l0.1,0.2L96,18.4l0.1,0.4L96,19
					l-0.4,0.2l-0.3,0l-0.2,0.1l-0.3,0.2l-0.2,0l-0.2,0.1l-0.6,0.2l-0.1,0l-0.1,0.2l-0.3,0.2l-0.6,0.5L92.5,21l-0.1,0.3l-0.1,0.1
					l-0.1,0.1l0,0.1L92,21.6l0-0.2l0-0.2l0-0.4L92,20.6l-0.1-0.1l-0.1-0.1l0.2,0.3L92,21l0,0.2L92,21.6l-0.1,0.1l-0.1,0.1l-0.1,0
					l0,0.1l0,0.1l0,0.2l0.1,0.2l0.4,0l0.1-0.1l0.1,0.1l0.1,0.2l0,0.2l0,0.2l0,0.2l0,0.4l0,0.3l0-0.1l-0.1-0.4l0,0.1l0,0.1l0,0.5
					l-0.1,0.3l-0.1,0.2l-0.1,0l0.1,0.1l0,0.1l0,0.2l-0.1,0.1l-0.1,0l-0.1,0.1l0,0.1l0,0.1l-0.1,0.1l-0.2,0.6l-0.2,0.2l-0.1,0l0-0.2
					l0-0.2l-0.2-0.1l-0.1,0l-0.2,0l-0.2-0.1l-0.3-0.1l-0.4-0.3l0-0.1l0-0.2l0-0.3l0-0.2l0.1-0.1l0.3-0.2l0.1-0.2l0-0.1l-0.1,0.3
					l-0.3,0.1L90,24.4l-0.1,0.1l0,0.2l-0.1,0.2l0,0.1l0,0.1l0,0.2l0.1,0.2l0.3,0.2l0.1,0.4l0.2,0.3l0.3,0.3l0.2,0.1l0,0.1l0,0.2
					L91,27.3l0.1-0.1l0.1,0l0.1,0.2l0,0.2l0,0.1l0,0.1l0-0.1l0,0l0,0.1l0,0.1l0,0.2l0,0.1l-0.1,0.1l-0.1,0.3L91,28.6l-0.2,1.1
					l0.1,0.2L90.8,30l-0.1,0.1l-0.1,0.1l-0.1,0.1l0,0.3l-0.1,0.4l-0.1-0.1l-0.1-0.1l0-0.3l0-0.6l0.1-0.4l0.1-0.2l0-0.3l-0.2,0
					l-0.2,0.1l0-0.2l0-0.1L90,28.7l-0.1,0l-0.1,0l0.1-0.1l0-0.1l-0.1-0.1l0-0.1l-0.1,0l-0.1,0.1l0,0.1l-0.1-0.1l0,0l0,0.1l0,0
					l-0.1-0.1l-0.2-0.1l-0.1-0.2L89,28l0-0.3l0.1-0.1l0.2,0l0.2,0l0-0.1l-0.1,0l-0.3-0.2L89,27.3l-0.1,0l0,0.1l-0.1,0l0-0.3l0.1,0
					l0.1-0.1L89,26.9l-0.1,0L88.7,27l0-0.1l0-0.1l0.1,0l0.1,0l0-0.2l0-0.1l-0.1,0.2l-0.1-0.3l0.1-0.3l0.1-0.2l0.2,0l0.2-0.1l-0.1,0
					l-0.1,0l0.1-0.1l0.1,0l0.1-0.1l-0.2,0.1l0-0.2L89,25.3l-0.1,0l0,0.1l0,0.1l0,0.1l-0.1,0.1l-0.1,0.1l0-0.1l-0.1,0l0,0.2l0,0.1
					l-0.1-0.2l0,0l0,0.1l0,0.1l-0.1,0.1l0,0.1l0,0.1l-0.3,0l0,0l0.2,0.2l0.1,0.1l0,0.1l-0.1,0.1l-0.2-0.1l0,0l0.1,0.1l0.1,0.1l0,0.1
					l0,0.1l0,0.1l0,0.1l0.2,0.5l0.1,0.1l0.1,0.1l0.1,0.1l-0.1,0l-0.2-0.1l-0.1-0.1L88.3,28l0-0.1l0-0.1l0.1,0.2l0.1,0.2l0.5,0.4
					l0.1,0.2l0.1,0.1l0,0.1L89,28.9l-0.1-0.1l-0.3-0.1l-0.3,0L88,28.4l0,0.1l0,0.1l-0.1-0.1l-0.1-0.1l0-0.1l-0.1,0l-0.1,0.1l-0.1,0
					l-0.1-0.2l0-0.1l0.1-0.3l0.1-0.2l0-0.2l-0.1-0.3l0,0.3l-0.1,0.2l-0.1,0.1l-0.1,0.2l0,0.2l0,0.3l0.1,0.1l0.1,0l0.2-0.1l0.1,0
					l0.3,0.3l0.5,0.1l0.2,0.1l0.2,0.2l0.2,0.1l0.2,0.1l0,0.1l0,0.1l0,0.2l0,0.1l-0.2,0l-0.1,0l-0.7-0.5l-0.1,0L88,29.2l-0.3-0.1
					l-0.1,0l0.4,0.3l0.2,0.2l0.3,0.3l0.2,0.1l0.2,0.2l0.1,0.1l0.4,0.1l-0.1,0.1l0.2,0l0.1,0.2l0,0.2l-0.3,0l0,0.1l0,0.1L89.3,31
					l-0.2-0.1l-0.5-0.4l0,0.1l0,0.1l0.3,0.3l0.3,0.1l0.2,0l0.2,0.1l0.1,0.1l0.1,0.1l-0.1,0.1l-0.1,0.1l-0.1-0.1l-0.1-0.1l-0.2-0.1
					L89,31.2l-0.1,0l-0.6-0.1l-0.5,0.1l0.1,0l0.1,0l0.4,0l0.2,0.1l0.3,0l0.2,0l0.1,0.3l0.3,0.2l0.1,0.1l0.2,0l0.3-0.2l0.2,0l0.3,0
					l0.1,0.1l0.1,0.2l0,0.3l0,0.1l0,0.1l0,0.1l0,0.2l0.1,0.1l0.1,0.1l0.2,0.3l0.2,0.4L91,33.4l-0.1-0.1l-0.2,0l-0.2-0.1l0,0.2l0,0.2
					l-0.1,0l-0.1,0l0.1,0.2l-0.2,0l-0.1,0l0,0.2L89.9,34l-0.1,0.1L89.5,34l-0.1-0.2l-0.1-0.2l0,0.2l0.1,0.2l0,0.2l0.2,0l0.2-0.1
					l0.3-0.1l0.2-0.1l0.1-0.1l0.3,0l0.1,0.2l0,0.2l0,0.2l0.1,0l0.1-0.1l0-0.4l0.2-0.2l0.1,0l0.1,0.1l0.1,0.1l0.1,0.2l0,0.3L91.2,35
					L91,35.4l-0.1,0.1l-0.2,0l-0.2,0l-0.1,0l-0.1,0l-0.1-0.1l-0.1-0.2l-0.1,0l-0.1,0l0,0.2l-0.2,0.1l-0.3,0l-0.3-0.1l0.2,0.1
					l0.8,0.2l0.1,0l0.1,0.1L90.2,36l0,0.2l0,0.1l0,0.1l-0.3,0.3l-0.2,0l-0.5-0.3l0.2,0.3l0.2,0.1l0.3,0l0.5-0.2l0.2,0.1l-0.1,0.3
					L90.5,37l-0.2,0.1l-0.2,0.1l0,0.1l-0.1,0l-0.2,0l-0.3,0.1l-0.2,0l-0.2,0.3l-0.1,0l-0.1,0l-0.1-0.2l-0.1-0.1l0.1,0.3l0,0.1
					l0.1,0.1l-0.2,0.2l-0.2,0.3l-0.1,0.1l-0.1,0.1l-0.2,0.4l0,0.2l0,0.3l0-0.1l0-0.2l-0.1-0.2l0,0.4l0,0.2l-0.8,0.1L86.8,40
					l-0.5,0.5l-0.1,0.2l-0.3,0.7l0,0.4l-0.1-0.1l0-0.1l0-0.1l-0.1,0.2l0.2,0.3l-0.1,0.1l-0.2,0.3l-0.2,0.1l-0.2,0.1l0,0.2L85,43
					l-0.1,0.1l-0.3,0l0.1,0.2l-0.1,0.2l-0.1,0.1l-0.2,0.1l-0.1,0l-0.1,0.1L84,43.8L83.8,44l-0.2,0l-0.2,0L83.3,44l0.2,0.1l0.1,0.1
					l0,0.2l0,0.1l-0.1,0.1l-0.1,0l0-0.1l-0.1-0.2l-0.1,0l0,0.1l0,0L83,44.2l0,0.2l0.1,0.1l0.1,0.1l0.1,0l0,0.1L83.2,45L83.1,45
					l-0.1,0l0,0.1l0,0.1l-0.1,0.2l-0.2,0.2l-0.1,0l-0.1,0l0.1,0.1l0.1,0.1l0,0.1L82.6,46l-0.1,0l-0.1,0.1l0,0.1l0.1,0l0,0.1
					l-0.1,0.1l0,0.1l0.1,0l0.1,0l0,0l-0.1,0.2l-0.1,0.1L82.4,47l-0.2,0.1l0,0l0.1,0l0.1,0.1l-0.1,0.2l-0.1,0l-0.1,0l0,0.2l0,0.1
					l0,0.2l0,0.2l0,0.1l0,0.2l0.1,0.2l0.1,0.2l0.3,0.9l0.1,0.3l0.3,0.8l0.4,0.8l0.6,0.9l0.9,1.1l0.1,0.2L85,53.9l0,0.2l0,0.2
					l0.1,0.2l0.1,0.3l0.2,0.4L85.4,55L85,54.5L85,54.1l0-0.5l-0.1,0l0,0.2l0,0.2l0,0.1l-0.1-0.3l0-0.1l0.1-0.2l0,0l-0.2-0.1l0-0.1
					l0-0.1l-0.1-0.1l-0.1,0l0.1,0.3l0.1,0.2l0.2,0.4l0.2,0.2l0.1,0.2l1.3,2.2l0.3,0.3l0.1,0.2l0.2,0.4l0.1,0.6l0,1.1l0.1,0.7l0,0
					l0-0.1l0,0l-0.1,0.3l-0.1,0.3l0,0.5l0,0.2l-0.2,0.3l-0.2,0l-0.4,0.2l-0.3,0l-0.3,0.2l-0.2,0L85,61.7l0-0.1l0-0.1l0.1,0l0.3,0.2
					l0-0.1l-0.1-0.1l-0.2,0l-0.1,0l-0.3-0.5l-0.3-0.3l-0.1-0.2l-0.5-0.1l-0.4-0.2l-0.3-0.4L83,59.1L82.8,59l-0.1,0l0.1-0.3l0.1-0.2
					l-0.1,0.1l-0.1,0.1l-0.1,0.2l-0.1,0l-0.1,0l-0.1-0.4l0-0.5l0.1-0.2l-0.2,0L82.1,58l0,0.1l0,0.1l-0.1,0l-0.1,0L81.7,58l-0.2-0.3
					L81,57l-0.1-0.1l-0.1-0.1l0.1,0l0.1,0l0.2-0.4l0.2-0.3l0-0.2l0-0.1l-0.1-0.1l-0.1,0.1l-0.1,0l-0.2-0.2l-0.1,0l-0.1,0.1l0.1,0.1
					l0.1,0l0,0.2l0,0.1l-0.1,0.1l-0.1,0l-0.1,0.1l-0.1-0.1l-0.1-0.1L80.4,56l0.1-1l0.1-0.6l-0.1-0.7l0-0.1l0-0.2l-0.3-0.4l-1.2-0.8
					l-1-1l-0.8-0.3L76.5,51l-0.1,0.1l0,0.1l0.1,0.1l0,0.1l-0.2,0l-0.2,0.1l-0.5,0.4l-0.2,0L75.2,52l-0.1,0.1l-0.3,0.1l-0.3,0.1
					l-0.1,0L74.3,52l0-0.2l0.1,0.1l0.1,0.1l0,0l0-0.1l-0.1-0.2L74,51.6l-0.4-0.3l0.1,0l0-0.1l-0.1-0.1l0-0.1l0.1-0.1l-0.2,0L73.5,51
					l0,0.1l0,0.1l-0.1,0l-0.1-0.1l-0.7-0.2l-0.6-0.1l0.4-0.1l0.2,0l0-0.1l-0.1,0l-0.2-0.1l-0.2,0.1l-0.2,0l-0.2,0.1l-0.2,0.1
					l-0.1,0.1l-0.6,0.1L70.4,51l0.1-0.1l0.1-0.1l0.3-0.1l0-0.2l-0.1-0.2l-0.1,0l-0.1,0.1l-0.1-0.1l-0.1,0l0,0.2l-0.1,0.2l-0.1,0.1
					l-0.4,0.1l-0.1,0l0.1-0.1l0-0.1L69.7,51l-0.2,0.3l-0.8,0.2l0-0.1l0.2,0l0.2-0.1l-0.1-0.1L69,51l-0.1,0l-0.1-0.1l0-0.3l-0.1-0.2
					l-0.1-0.2l0,0l-0.1,0.3l0,0.4l0,0.1l-0.2,0l-0.2,0l-0.7,0.1L67,51.2l-0.1,0l-0.1,0l-0.3,0.1l-0.4,0.1l-0.1,0l-0.1,0l-0.2,0.3
					l-0.3,0.2l-0.8-0.2l-0.2-0.2l-0.2,0l-0.2,0l-0.2,0.3L63.6,52l0.3,0.2l0.2,0.1l0.4-0.1l0.2-0.2l0.2,0l0.1,0l0.1-0.1l0.2,0.1
					l0,0.1l-0.1,0.1L65,52.2l-0.1,0.1l0.2,0.2l0.2,0l0.1,0l0-0.2l0.1-0.1l0.2,0l0,0.1l0,0.1l0.1,0.1l0,0.2l0,0l-0.2,0.1l-0.2,0
					l-0.1,0.1l0.1,0.1l-0.1,0.1l-0.1,0l0,0l0,0.1l-0.1,0.1l0.1,0.2l0.2,0.1l0.2,0.2l0.6,0.2l0.1,0l0.2,0.2l0.1,0.1l0.1,0l0,0.1
					l-0.2,0.1l0,0.1l0,0.1l-0.1-0.1l-0.1-0.1l-0.2,0.2l-0.1,0l0-0.2L66,54.4l-0.1-0.2l-0.2-0.1l-0.1,0L65.5,54l-0.1,0l-0.1,0l-0.2,0
					l0-0.1L65,53.7l-0.1-0.1l-0.6-0.2l0,0.1l0,0.1l0.1,0l0.1,0.1l0,0.2l0,0.1l0,0.1l0,0.1l-0.1,0.1l-0.2,0.1l-0.1-0.1L64,54.2
					l-0.2-0.1l-0.3,0l-0.2,0.1l-0.2,0.3l-0.2,0.1l-0.5-0.1l-0.6-0.2l0-0.1l0.1,0l0.2,0l0-0.1L62,53.8l0-0.1l0-0.1l-0.1,0l-0.1,0.1
					l-0.4-0.1l-0.1-0.1L61,53.1l-0.3,0l-0.2-0.2L60.3,53l-0.1,0.1L60,53.3l0,0.1l0.1,0.1l-0.1,0.1l-0.4,0.1l-0.9-0.1l-0.3-0.1
					l-0.3-0.2l-0.5-0.1l-0.2,0l-0.2,0l-0.7,0l-0.2,0l-0.1,0.1l-0.1-0.1l0-0.1l0.1,0l0.1-0.1l0.1-0.2l0-0.1l-0.1-0.1l-0.1,0l-0.2,0.4
					l0.1,0.2l0,0.1l-0.4,0.1l-1,0.5l-0.4,0.2l0-0.1l0.5-0.3l-0.2,0l-0.3,0.1l-0.1,0l0.1-0.3l0-0.2l-0.2,0l-0.1,0.2l-0.1,0L54,53.4
					l-0.1,0l0.1,0.4l0.1,0.2l0.1,0.2l-0.3,0.3l-0.3,0.2l0,0.2l-0.3,0.3l-0.2,0.2l-0.6,0.4l-0.2,0.1L52.1,56l-0.4,0.1l-0.3,0.2
					l-0.1,0l0.2-0.2l0.3-0.2l-0.2,0L51.2,56L51,56l0,0.1l-0.2,0.1L50.7,56l-0.1-0.1l0-0.1l-0.1,0l-0.1,0l0.2,0.5l0.1,0l0.1,0.1
					l-0.1,0.1l-0.2,0.1l-0.2,0.1l-0.2-0.2l0,0.2l0,0.2L50,57.1l-0.1,0.1l-0.1-0.1l0-0.1l-0.1,0.1l-0.1,0.1l-0.2,0l-0.1,0l0,0.1
					l0,0.1l0.2-0.1l-0.1,0.3l-0.2,0.3l-0.2,0.1l-0.3,0l-0.1,0L48.7,58l0.3,0.4L48.8,59l-0.1,0.2l-0.1,0l-0.1,0L48.1,59L48,58.9
					l0.2,0.4l0.5,0.1l0,0.2l0,0.1l-0.1,0.2l-0.1,0.2l0.1,0.1l0.1,0.4l0.1,0.2l0.1,0.5l0.1,0.2l0.4,0.8l0.1,0l0,0.1l0,0.2l-0.3,0
					l-0.1,0.1l0,0.1l0,0l0,0l-0.1,0l-0.3-0.2l-0.5-0.1l-0.6-0.1l-0.4-0.1l-0.2-0.2l-0.2-0.1l-0.2,0l-0.2-0.1l-0.2-0.2l-0.2-0.1
					l-0.3-0.1L45,61.3L44.8,61l0,0l-0.1-0.5l-0.1-0.3l-0.3-0.4l0,0l0,0l0-0.1l0-0.2l0-0.2l-0.1-0.1l0-0.1l0.1-0.1l0-0.2l0-0.2
					L44,58.3l-0.3-0.2l-0.3-0.3l-0.2-0.4L42.9,57l-0.2-0.2l-0.2-0.2l-0.1-0.2l0-0.1l0,0l-0.1-0.3L42,55.4L41.9,55l0-0.2l-0.2-0.3
					l-0.3-0.3l-0.2-0.2l0-0.1l0,0l-0.5-0.5L40.4,53l-0.1-0.1l-0.1,0l-0.1,0l0-0.1l0,0l-0.1,0l-0.3,0l-0.5-0.1l-0.4-0.1l-0.2-0.1
					l-0.2,0l-0.1,0.1l-0.2,0.1l-0.3,0l-0.3,0.2l-0.2,0.5l-0.1,0.3l0,0.1l-0.1,0.1l-0.1,0.1l-0.2,0.1l-0.2,0.2l-0.2,0.1l-0.2,0
					l-0.3-0.2L35.4,54L35,53.8l-0.3-0.1l-0.2-0.2l-0.2-0.2l-0.2-0.2L33.9,53l-0.2-0.3l-0.2-0.5l-0.1-0.3l0-0.3l-0.3-0.8l-0.1-0.3
					L33,50.3L32.7,50l-0.4-0.2l-0.5-0.5l-0.6-0.7L31,48.2L30.7,48l-0.2-0.3l-0.2-0.3l-0.2-0.2l0,0l0,0l-0.5-0.1l-0.5-0.1L28.8,47
					L28.4,47l-0.5-0.1l-0.5-0.1L27,46.8l-0.5-0.1l0,0.3l0,0.3l0,0.3l0,0.3l-0.7-0.1l-0.7-0.1l-0.7-0.1l-0.7-0.1l-0.7-0.1L22,47.2
					l-0.7-0.1L20.6,47l-0.9-0.5L18.7,46l-0.9-0.5l-0.9-0.5L16,44.4l-0.9-0.5l-0.9-0.5l-0.9-0.5l0.1-0.1l0.2-0.3l-0.2,0l-0.6-0.1
					l-0.6-0.1l-0.6-0.1L11.1,42l-0.6-0.1l-0.6-0.1l-0.6-0.1l-0.6-0.1l0,0l0-0.3l-0.1-0.1l-0.1,0l0-0.4l0.1-0.2l0-0.2l0-0.4l-0.2-0.5
					L8,39l-0.3-0.3l-0.2-0.3l-0.1-0.1l-0.2-0.1l-0.1,0.1l-0.2-0.1L7,38l-0.1-0.4l-0.2-0.1l-0.5-0.1L5.7,37l-0.1-0.2l0-0.2l-0.2-0.3
					L4.9,36l-0.2,0l-0.3-0.1l-0.4-0.2l-0.2-0.1l-0.5-0.1l-0.2-0.1l-0.1-0.2L3,35.1l0.1-0.2l0-0.2l0.1-0.1l0-0.3L3.4,34l0-0.1
					l-0.1-0.1L3,33.5l0-0.2l0.1-0.2l0-0.2l-0.2-0.2l-0.1-0.4l-0.2-0.2l0-0.3l-0.1-0.2l0-0.2l-0.2-0.6l-0.3-0.5l0-0.3l0.1-0.3
					l0.2-0.2l0.1-0.2l0-0.2l0-0.1l-0.1-0.2l-0.5-0.3L1.4,28l0.1-0.4l-0.1-0.4l0.1-0.3l0.1-0.3l0.1,0l0.1,0.1l0,0.1l0,0.2l0.1,0.2
					L2,27.2L2,27.4l0.1,0.1l0.1,0l0-0.1l0-0.1l0-0.2l0-0.3L2,26.6l0-0.3l0-0.1l0-0.1l0.2-0.1l0.2,0l0.2,0l0.7,0.2l0.2,0l0.1,0.1
					l0.1,0l-0.2-0.1l-0.1,0l-0.1,0l-0.2-0.1l-0.1-0.1L2.8,26l-0.1,0l-0.3,0.1l-0.1,0l-0.2-0.2l-0.1-0.1l-0.2,0l-0.1,0.4l0,0.3
					l-0.1,0l-0.1-0.1l-0.2-0.1L1.2,26l-0.2-0.3L1,25.7l-0.2,0.1l0-0.1L1,25.6L1,25.2l0.1,0.3l0-0.2l-0.1-0.2L1,25l0-0.4l-0.2-0.3
					l-0.1-0.4l-0.3-0.7l0.1-0.5l0-0.7l0.2-0.3l0.1-0.2l0-0.4l0-0.2l-0.2-0.7L0,19.7l0-0.3l0.1-0.3l0.2-0.2l0.2-0.2l0.1-0.1l0,0
					l0,0.1l0,0l0.1-0.1l0.1-0.1l-0.1,0l0,0l0.1-0.1l0.2-0.3L1,17.7l0.3-0.5l0-0.2l0-0.4l0-0.3l-0.1-0.2l0.1-0.2l0.1-0.2l-0.1-0.4
					l0-0.5l0-0.2l0.2-0.5l0-0.2l-0.1-0.4l0.2-0.3l0.1-0.2l0.4-0.7l0.1,0l0.1,0l0.2-0.1l-0.1,0l-0.1,0L2.6,12l0.2-0.2l0.1-0.1
					l0.3-0.8l0.3-0.6l0.2-0.2l0-0.2l0.1-0.3l0.1-0.3l0.6-1.4l0-0.2l0.1-0.2l0.1-0.6l0.2-0.7l0-0.1l0-0.1l0,0L5,6l0.4,0.1l0.3,0
					l0.1,0.1l0.1,0.2l0.1,0.1l0.2,0l0,0L6,6.3L5.8,6.2L5.8,6L5.5,5.9l0-0.1l-0.4,0L5,5.7l-0.2,0l0.1-0.2L5,5.2L5.1,5l0,0.2l0.1,0.2
					l0.1-0.2l0.1-0.3L5.3,4.8L5.1,4.6l0-0.3l0.5-0.1L5.4,4.1L5.4,4l-0.1,0l0,0.1L5.2,4.1l0-0.2l0-0.2l0-0.3l0-0.5l0.1-0.6l0-0.3
					L5.1,1.7l0-0.2L5.1,1l0.1-0.3l0-0.2l0.1,0.1l0.3,0.3L6,1.1l0.1,0.1l0.2,0.1l1,0.4l0.1,0l0.2,0l0.1,0L7.7,2l0.1,0l0.1,0l0.1,0
					L8.2,2l0,0l0,0.1l0,0.2l0,0.2l0,0.1L7.9,2.9l0,0l0-0.1l0,0L7.3,3.2L7.1,3.5l0,0.1l0,0.1l0,0l0.1,0l0.2-0.1l0,0l-0.2,0l-0.1,0
					l0-0.1l0-0.1l0.2-0.2l0.1-0.1l0.2-0.1L7.9,3L8,2.9l0.2-0.1l0,0l0-0.1l0,0l0.1,0l0,0.3L8.3,3L8.1,3.1l0,0l0,0.2l0,0L8,3.3l0,0
					l0.1,0.2l0,0.2l0,0.1L7.9,4.1l-0.1,0l-0.1,0L7.7,3.9l0,0L7.6,4.1l0,0l0-0.3l0,0L7.4,3.9L7.3,4L7.2,4.1L7.1,4.2l0.2,0.1l0.2,0
					l0.1,0.1l0,0l0.1,0l0.1,0L8,4.1l0.1,0l0.1,0l0.1,0L8.3,4l0-0.1l0-0.3l0.1-0.2l0-0.1l0-0.1l0-0.1l0.1-0.1l0-0.1l0-0.1l0-0.1
					l0.2-0.2l0-0.1l0.2-0.1l0-0.1L8.9,2.3l0-0.1l0-0.1l0-0.1l0,0l0,0.2l0,0L8.6,2.1l0-0.1l0-0.1l0-0.1l0.1,0l0.1,0l0-0.1L8.8,1.6
					L8.7,1.5L8.7,1.4l-0.1,0l0,0l0,0l0-0.1l0.1,0l0.1,0.1l0.1,0l0-0.1l0,0l0.1-0.3l0-0.2l0,0l0,0l0,0l-0.1,0l0-0.1l0-0.2l0-0.4
					l0.2,0l0.7,0.2l0.7,0.2l0.7,0.2l0.7,0.2L12.2,1l0.7,0.2l0.7,0.2l0.7,0.2l0.7,0.2l0.7,0.2L16.3,2L17,2.1l0.7,0.2l0.7,0.2L19,2.6
					l0.7,0.1l0.7,0.1L21,3l0.7,0.1l0.7,0.1l0.7,0.1l0.7,0.1l0.7,0.1l0.7,0.1l0.7,0.1L26.5,4l0.7,0.1l0.7,0.1l0.7,0.1l0.7,0.1
					l0.7,0.1l0.7,0.1l0.7,0.1L32,4.8l0.7,0.1L33.4,5l0.7,0.1l0.7,0.1l0.7,0.1l0.7,0.1l0.7,0.1l0.7,0.1l0.7,0.1l0.7,0.1l0.7,0.1
					l0.7,0.1L41,5.7l0.7,0l0.7,0l0.7,0l0.7,0l0.7,0l0.7,0l0.7,0l0.7,0l0.7,0l0.7,0l0.7,0l0.7,0l0.7,0l0.7,0l0.7,0l0.7,0l0.7,0l0.4,0
					l0-0.5l0-0.4l0.4,0l0.1,0.1l0,0l0,0.1l0,0.3l0.1,0.3l0.2,0.3l0,0l0,0.1l0,0.1l0.1,0.1l0.3,0.1L55,6.9L55.3,7l0.1,0.1l0.2,0.1
					l0.2,0L56,7.1L56.1,7l0.2,0l0.2,0l0.2,0l0.1,0L57,7.1l0.2,0.1l0.3,0.2l0.1,0.1l0.1,0.2l0.1,0.2l0.1,0l0.1-0.1l0.2,0l0.3,0.1
					l0.3,0.2L59,8.1l0.2,0.1l0.2,0l0.3-0.1L60,7.8l0.2,0l0.1,0L60.4,8L60.5,8l0.2,0l0.5,0l0.4-0.1L61.7,8l0.1,0.1l0.2,0l-0.7,0.4
					l-1.1,0.5L59,10.3l-0.9,0.8L58,11.4l0.4,0l1.1-0.4l0.4-0.4l0.3,0.2l-0.3,0.8l0.4-0.3l0.6,0.3l0.5-0.2l0.5-0.4l0.7-0.1l0.4-0.4
					l0.3-0.1l0.4-0.5l0.7-0.6l0.6-0.2l0.6,0.1l-0.6,0.1l0,0.1l-0.4,0.4l-0.4,0.9l0.5-0.3l0.2,0.1l0.5,0.1l0.3,0.2l0.4,0.5l0,0.2
					l0.7-0.1l0.3,0.2l0.6-0.3l0.5-0.3l1.1-0.1l0.4-0.2l0.5-0.1l-0.1,0.2l0.2,0.5l0.9-0.1l-0.1,0l0.1-0.1l0.1,0l0.2-0.1l0.1,0l0,0
					l0,0.1l0,0l0,0.1l0.1,0.2l0,0.2l0.1,0.1l0.1,0.2l0.1,0.1l0.1,0l0.2-0.1l0.2-0.1l0.1,0l0.2,0.1l0.1,0.1l0,0.1l-0.5,0.1l-0.4,0
					l-0.5,0.2L71,12.2l-0.1,0.1l-0.3,0.1l0.1,0.1l-0.1,0l-0.5-0.3l-0.4-0.1l-0.5,0L69,12.4l-0.9,0.1l-1.6,1l-0.6,0.9l-0.4,1.1
					l-0.2,0.5l0,0.2l0.2-0.1l0.3-0.5l0.4-0.4l0.2-0.7l0.3-0.3l0.2,0l0,0.2l-0.3,0.6l0,0.3l-0.3,0.7l-0.1,0.6l0.1,0.4l-0.2,0.3
					l-0.1,0.6l0.1,0.5l-0.3,1.3l0.4,1.1l0,1l0.6,1.4l0.6,0.2l1-0.6l0.5-1.1l0.2-0.8l-0.1-1.1l-0.7-1.4l0-0.6L68,17.1l0.5-0.4
					l-0.1-1.1l0.4-0.6l0.5-0.7l0.3,0.4l0.2-0.8l0.6-0.2l-0.3-0.4l0.5-0.6l0.6,0.2l0.2,0l0.4,0.3l0.3,0l0.3,0.1l0.2,0l0.1,0.1l0.2,0
					l0.1,0.3l0.4,0.4l-0.3,0l0,0.3l0.3,0.2l0,0.3l0.1,1l-0.2,0.2l-0.2,0l0,0.4L73,16.8l-0.3,0.1l0,0.3l0,0.3l0.1,0.1l0.2,0l0.3,0.2
					l0.3-0.4l0.1-0.4l0.4-0.2l0.5-0.2l0.4,0.3l0.2,0.5l0.2,0.7l0.1,0.4l0.3,0.5l-0.1,0.2l0,0.7l-0.1,0.3l-0.2,0.2l-0.3,0.5l-0.2,0.2
					L74.6,21l0,0.1l0,0.3l0.1,0.4l0.7,0.2l0.3,0.2l0.3,0.1l0.5-0.1l0.4-0.3l0.4-0.3l0.3-0.3l0.4-0.4l0.4-0.3l0.4-0.2l0.6-0.2
					l0.7-0.3l0.3-0.2l0.4-0.3l0.5-0.4l0.4-0.3l0.2-0.2l0.1-0.2l0-0.1l0-0.1l-0.1-0.1l-0.1,0L82,18l0,0l0-0.1l0-0.1l0,0l-0.1-0.4
					l-0.1-0.1L81.5,17l0.3-0.2l0.2-0.2l0.2-0.1l0.5-0.1l0.4-0.1l0.6-0.1l0.5-0.1l0.6-0.1l0.3-0.1l0.4-0.1l0.1-0.4l0.1-0.4l0.1-0.4
					l0.3-0.5l0.1-0.1l0-0.2l0.2-0.2l0.2-0.2l0.1-0.1l0-0.1l0.5-0.8l0.3-0.4l0.3-0.2l0.2-0.1L88.4,11.7L88.4,11.7"/>
			</g>
			<g>
				<path d="M94.5,20.4l-0.1,0.2l0.1,0l0.1-0.1l0.1-0.1l0.2-0.2l0.2-0.1l0.1,0l0.1,0.1l0.2-0.1l0.2-0.1l-0.7,0.6l-0.1,0.1l-0.2,0.2
					l-0.2,0.1L94.2,21l-0.7,0.5l-0.1,0l-0.1,0l-0.6,0.3l-0.3,0.1L92.3,22l0.1-0.2l0,0l-0.1,0l-0.1,0l-0.1,0.1L92.1,22L92,21.9l0-0.1
					l0-0.1l0.1-0.2l0.2-0.2l0.1-0.1l0.1,0.1l0-0.1l0-0.1l0.1,0l0.2,0l0.1,0l0.1,0l0.1,0l0.2,0l0.2-0.1l0.1-0.1l0.1-0.1l0.4-0.1
					l0.4-0.1L94.5,20.4l0.2-0.4l0.2-0.1l-0.2,0.3L94.5,20.4"/>
			</g>
			<g>
				<path d="M99.8,10.4L99.8,10.4l-0.2,0.1l0,0.1l0,0l-0.1,0l-0.1,0l0-0.2l0.1-0.2l0.1-0.1l0.1,0L99.8,10.4L99.8,10.4"/>
			</g>
			<g>
				<path d="M91.8,22.2L91.8,22.2L91.7,22l0.1-0.1l0.1,0l0,0.1l0,0.1L91.8,22.2L91.8,22.2"/>
			</g>
			<g>
				<path d="M97.8,18.5l-0.5,0.2l-0.1-0.1l0.1-0.1l0.1-0.2l0.1,0L97.8,18.5L97.8,18.5"/>
			</g>
			<g>
				<path d="M96.5,18.6L96.5,18.6l-0.2,0.1l0-0.1l0-0.1l0-0.2l0-0.1l0-0.1L96.5,18.6"/>
			</g>
			<g>
				<path d="M98.8,18.5l-0.1,0.1l-0.3,0l0.2-0.1l0,0l0-0.1l0-0.1L98.8,18.5L98.8,18.5"/>
			</g>
			<g>
				<path d="M82.6,59.1L82.6,59.1l-0.2,0.1l-0.1-0.1l-0.1-0.2l0.2,0.1l0.1,0L82.6,59.1"/>
			</g>
			<g>
				<path d="M82.5,58.9l0,0.1l-0.1-0.2l-0.1-0.2l0.1,0.1L82.5,58.9"/>
			</g>
			<g>
				<path d="M86.7,61.6l-0.4,0.5l0-0.1l0.1-0.3l0-0.1L86.7,61.6l0-0.2l0-0.2l0.1-0.1l0,0L86.7,61.6"/>
			</g>
			<g>
				<path d="M60.8,53.7L60.8,53.7l-0.4-0.2l0-0.1l0.2-0.1l0.1,0l0.2,0.1l0.1,0l0,0L60.8,53.7L60.8,53.7"/>
			</g>
			<g>
				<path d="M49.6,57.8L49.6,57.8l0.1-0.2l0-0.1l0.2-0.3l0.1,0l0,0.1l-0.2,0.2L49.6,57.8"/>
			</g>
			<g>
				<path d="M50.2,57.2L50.2,57.2l0-0.1l0.2-0.1l0.4-0.3l0.1,0l0.1-0.1l0,0l0,0.1l-0.3,0.1L50.2,57.2"/>
			</g>
			<g>
				<path d="M48.9,59.3l-0.1,0.1L48.9,59.3l0.1-0.5l0.4-0.6l0.2-0.1l-0.4,0.7L48.9,59.3"/>
			</g>
			<g>
				<path d="M53.9,54.8l-0.1,0l0.5-0.4l0.1-0.1l0.1,0l-0.2,0.2L53.9,54.8"/>
			</g>
			<g>
				<path d="M49.2,62l0,0.1L49,61.6l-0.3-1.2l0-0.7l0-0.2l0.1,1l0.3,1.2L49.2,62"/>
			</g>
			<g>
				<path d="M3.3,36.6l-0.1,0l-0.2-0.1l0.1,0l0.1,0l0,0L3.3,36.6"/>
			</g>
			<g>
				<path d="M4.5,39L4.5,39l-0.2-0.1l0-0.1l0.1,0l0.1,0L4.5,39L4.5,39"/>
			</g>
			<g>
				<path d="M6.5,40.4l-0.1,0l-0.1-0.1l-0.1-0.3l-0.1-0.2l0.1,0l0.1,0.2L6.5,40.4L6.5,40.4"/>
			</g>
			<g>
				<path d="M3.8,37l-0.1,0l-0.1-0.1l-0.1-0.3l0.4,0.1l0.1,0.1l0,0L3.8,37"/>
			</g>
			<g>
				<path d="M4.2,36.7l0.4,0.2l0.2,0l0,0.1l0,0l-0.5,0l-0.1-0.1l0-0.1L4.2,36.7L4.2,36.7"/>
			</g>
			<g>
				<path d="M6.8,39.1l0.1,0.2l-0.1-0.1l-0.2,0l0-0.1l0-0.1l0,0l-0.1,0l0,0l0-0.1l0,0L6.8,39.1L6.8,39.1"/>
			</g>
			<g>
				<path d="M96.2,18.7L96.2,18.7L96.2,18.7l-0.1-0.2l0,0l0,0.1L96.2,18.7"/>
			</g>
			<g>
				<path d="M92.4,24.2l-0.1,0.4l0-0.1l0.2-0.5L92.4,24.2"/>
			</g>
			<g>
				<path d="M91.1,29L91.1,29l0.1-0.5l0.1-0.4l0-0.2l0,0.3l-0.1,0.3L91.1,29"/>
			</g>
			<g>
				<path d="M85.9,62.6L85.9,62.6L85.9,62.6l0.1-0.1L85.9,62.6L85.9,62.6L85.9,62.6"/>
			</g>
			<g>
				<path d="M86.3,62.3L86.3,62.3L86.3,62.3L86.3,62.3L86.3,62.3"/>
			</g>
			<g>
				<path d="M82.3,48l0,0.6l-0.1-0.2l0-0.2L82.3,48L82.3,48"/>
			</g>
			<g>
				<path d="M86.3,56.5l0.1,0.2l-0.3-0.4l-0.4-0.6l-0.2-0.5l0.1,0.1l0.1,0.3L86.3,56.5"/>
			</g>
			<g>
				<path d="M99.2,10.9L99.2,10.9L99,11l0-0.1l0,0l0,0L99.2,10.9L99.2,10.9"/>
			</g>
		</g>
	</g>
</g>
<g>
	<g>
		<path d="M37.5,62.5l-0.1,0.1l-0.1,0l-0.5-0.3l-0.1-0.2l0-0.7l-0.2-0.6l-0.2-0.4l0.2-0.2l0.2-0.2l0.2-0.3l-0.2-0.4l0-0.3l0.1,0
			l0.5,0.3l1.1,0.5l0.3,0.3l0.1,0.4l0.2,0l0.1,0.2l0.3,0.2l0.1,0.1l-0.1,0.2l-0.5,0.4l-0.7,0.2l-0.6,0.4L37.5,62.5"/>
	</g>
	<g>
		<path d="M33.3,56.4l0.5,0.1l0.1,0l0.1,0.1l0.5,0l0.1,0l-0.1,0.1l-0.3,0.1l-0.4-0.1l-0.7,0l0-0.1l0.1-0.1L33.3,56.4L33.3,56.4"/>
	</g>
	<g>
		<path d="M35.2,57.2L35.2,57.2l0.3,0l0.2,0l0.3,0.2l0.1,0.1l0.2,0.1l0.1,0.1l-0.1,0.1L36.2,58l-0.3,0l-0.2,0.1l-0.3,0l-0.1,0l0-0.2
			l-0.1-0.3l-0.2,0l-0.2-0.1l-0.2-0.2l0-0.1l0.1-0.2l0.2,0l0.1,0.1L35.2,57.2"/>
	</g>
	<g>
		<path d="M31.8,55.7L31.8,55.7l0.2,0l0,0.2l0.1,0.1l0,0.1l-0.1,0.1l-0.3,0l-0.1-0.1L31.5,56l-0.1,0l0-0.1l0,0l-0.1,0l0.1,0.1
			l-0.3,0l-0.1,0l-0.1-0.2l-0.3-0.3l0-0.1l-0.1-0.1l0.4,0l0.3-0.2l0.2,0l0.3,0.4l0,0.1L31.8,55.7L31.8,55.7"/>
	</g>
	<g>
		<path d="M27.8,54.3l-0.2,0.2l-0.1-0.1l-0.3,0L27,54.2l-0.3-0.1L26.7,54l0.2-0.3l0.4-0.2l0.6,0l0.1,0.2l0,0.1L27.9,54l0,0.2
			L27.8,54.3"/>
	</g>
	<g>
		<path d="M25.7,54.5l-0.1,0.1l-0.1,0l0-0.1l0.1-0.1l0.2-0.1l0.2-0.2l0.1,0l-0.1,0.1l0,0.1l-0.2,0.1L25.7,54.5"/>
	</g>
	<g>
		<path d="M34.2,57.6l-0.2,0.1l-0.2,0l0-0.2l-0.2-0.2l0.3,0l0.2,0.1l0.1,0.1l0.1,0.1L34.2,57.6"/>
	</g>
</g>
<g>
	<g>
		<path d="M24.9,61.2L24.9,61.2L24.9,61.2L24.9,61.2L24.9,61.2L24.9,61.2L24.9,61.2L24.8,61l0-0.1l0.1,0.1L24.9,61.2L24.9,61.2
			L24.9,61.2L24.9,61.2L24.9,61.2"/>
	</g>
	<g>
		<path d="M24.9,61.4L24.9,61.4L24.9,61.4l-0.1-0.1l0,0l0,0l0,0l0,0l0.1,0l0,0l0,0l0,0L24.9,61.4L24.9,61.4L24.9,61.4L24.9,61.4
			L24.9,61.4"/>
	</g>
	<g>
		<path d="M24.2,59.8L24.2,59.8L24.2,59.8l-0.1,0l0,0l0,0L24.2,59.8L24.2,59.8L24.2,59.8"/>
	</g>
	<g>
		<path d="M19.8,57.6L19.8,57.6L19.8,57.6L19.8,57.6L19.8,57.6L19.8,57.6L19.8,57.6"/>
	</g>
	<g>
		<path d="M20,58.1L20,58.1L20,58.1L20,58.1l0.1-0.1l0.1,0l0,0L20,58.1L20,58.1"/>
	</g>
	<g>
		<path d="M18.6,57.6L18.6,57.6l-0.1,0L18.6,57.6L18.6,57.6L18.6,57.6L18.6,57.6"/>
	</g>
	<g>
		<path d="M17.1,57L17.1,57L17.1,57l0.1-0.1L17.1,57L17.1,57L17.1,57L17.1,57"/>
	</g>
	<g>
		<path d="M12.2,59.7L12.2,59.7L12.2,59.7L12.2,59.7L12.2,59.7L12.2,59.7L12.2,59.7"/>
	</g>
	<g>
		<path d="M12.5,60.1L12.5,60.1L12.5,60.1L12.5,60.1L12.5,60.1L12.5,60.1L12.5,60.1L12.5,60.1"/>
	</g>
	<g>
		<path d="M12.5,60L12.5,60L12.5,60L12.5,60L12.5,60L12.5,60L12.5,60L12.5,60L12.5,60L12.5,60L12.5,60L12.5,60L12.5,60L12.5,60"/>
	</g>
	<g>
		<path d="M9,59.6L9,59.6L9,59.6L9,59.6L9,59.6L9,59.6L9,59.6L9,59.6L9,59.6L9,59.6L9,59.6L9,59.6"/>
	</g>
	<g>
		<path d="M3.8,58.2L3.8,58.2L3.8,58.2l0-0.1L3.8,58.2L3.8,58.2"/>
	</g>
	<g>
		<path d="M14.1,50.5L14.1,50.5L14.1,50.5L14.1,50.5l0.1,0l0,0L14.1,50.5L14.1,50.5"/>
	</g>
	<g>
		<path d="M11.3,51.3L11.3,51.3L11.3,51.3L11.3,51.3l0.1,0.1l0.1,0l0.1,0l0,0l0,0l0,0l0,0.1l0,0l0,0l0,0l0,0l0.1,0.1l0,0l0,0l0,0
			l0,0l0,0l0,0l0.1,0l0.1,0.1L12,52.2l0,0l-0.1-0.1l-0.1,0l-0.1,0l-0.1,0l0,0l0,0l0,0l0,0l0-0.1l0,0l0,0l0,0l0,0l0,0l0,0l0,0l0,0
			l0,0l0,0l-0.1-0.1l0,0l0,0l0,0l-0.1,0l-0.1,0l0,0l0,0l0-0.1l0,0l0,0l0,0l0,0l0.1-0.1L11.3,51.3L11.3,51.3"/>
	</g>
	<g>
		<path d="M11.7,54.7L11.7,54.7L11.7,54.7L11.7,54.7l0.1,0.1l0,0l0,0l0,0l0,0l0,0.1l0,0l0,0l0,0l0,0l-0.1,0l-0.1,0l-0.1,0l0,0l0,0
			l0,0l0,0l0,0l0,0L11.3,55l-0.1-0.2l0,0l0-0.1l0-0.1l0,0l0,0l0.1,0.1l0.1,0l0,0l0.1,0l0.1,0l0,0L11.7,54.7L11.7,54.7L11.7,54.7
			L11.7,54.7"/>
	</g>
	<g>
		<path d="M16.1,58.9L16.1,58.9L16.1,58.9L16.1,58.9l0.1,0l0,0l0,0l0,0l0,0l0,0l0,0l0,0.1l0.1,0l0,0l0,0l-0.1,0.1l0,0l0,0l-0.1,0
			L16,59.1l0,0l0,0l0,0l0,0l0.1,0l0,0l0,0l0,0l0,0l0,0l0,0l-0.1,0l0,0l-0.1,0l-0.1,0l0,0l0,0l0,0l-0.1,0l0,0l0,0l0,0l0,0l-0.1,0.1
			l-0.1,0l0,0l0,0l0,0l0,0l0.2-0.1l0,0l0,0l0-0.1l0,0l0,0l0,0l0,0l0,0l0,0l0,0l0,0l0,0l0,0l0,0l0,0l0,0l0,0l0,0l0,0l0,0l0,0l0,0
			l0-0.1l0-0.1l0-0.1l0,0l0-0.1l0.1-0.1l0.1,0l0.1,0l0,0l0,0l0,0l0,0l0,0l0,0l0,0l0,0.1l0,0.1l0,0l0,0l0-0.1l0-0.1l0-0.1l0,0l0,0
			l0,0l0,0l0-0.1l0,0l0,0l0,0l0,0l0,0l0,0l0,0l0,0l0,0.1l0,0l0,0l0,0l0,0l0,0l0,0l0,0l0,0l0,0l0,0l0,0l0,0l0,0l0,0L16.1,58.9
			L16.1,58.9L16.1,58.9"/>
	</g>
	<g>
		<path d="M26.2,61.7L26.2,61.7L26.2,61.7l0,0.1l0,0.1l0,0.1l0,0l0,0.1l0,0.1l0,0l-0.1,0.1l0,0.1l0,0l0,0.1L26,62.5l0,0.1l0,0
			l-0.1,0l0-0.1l0-0.1l0-0.1l0,0l0-0.1l0.1,0l0,0l0,0l0,0l0-0.1l0-0.1l0-0.1l0-0.1l0-0.1l-0.1-0.1l0,0l0,0l0,0l-0.1,0.1l-0.2,0.1
			l-0.1,0l0,0l0,0l0,0l0,0l0,0l0,0.1l0,0.1l0,0l-0.1,0l0,0l0-0.1l0,0l0,0l0,0l0-0.1l0.1-0.2l0,0l0.1,0l-0.1,0l0,0l0,0l0,0l0,0
			l-0.1,0l0,0l0-0.1l0,0l0,0l0,0l0,0l0,0l0,0l0-0.1l-0.1,0l0,0l0-0.1l0,0l0,0l0-0.1l0,0l0,0l-0.2-0.1l0-0.1l0-0.2l0-0.1l0,0l0,0l0,0
			l0.1,0.1l0.1,0.1l0,0l-0.1-0.1l0,0l0,0l0,0l0,0l0.1,0l0,0l-0.1,0l0,0l0,0.1l0,0l0,0l0,0l0-0.1l0,0l-0.1-0.1l0,0l0-0.1l0-0.1l0-0.1
			l0,0l0,0l0,0l0,0l0,0.1l0,0.1l0,0l0,0l0,0l-0.1-0.1l-0.1,0l0-0.1l-0.1-0.2l0-0.1l0,0l0,0l0,0l0-0.2l0-0.1l0-0.1l0-0.1l0,0l0,0.1
			l0,0l0,0l0,0.1l0,0l0,0l0,0l0,0.1l0,0.1l0,0.1l0,0.1l0,0.1l0,0.1l0,0.1l0,0l0,0l0,0l0,0l-0.1,0l0,0l0-0.1l-0.1,0l-0.1,0l0,0l0-0.1
			l0-0.1l0,0l-0.1-0.1l0,0l0.1-0.1l0,0l0,0l0,0l0-0.1l0,0l0,0l0,0.1l0,0l0,0l0,0l0,0l0,0l0,0l0,0l0,0l0,0l0,0l0,0l0,0l-0.1,0l-0.1,0
			l0,0l0,0l0,0l0,0l0,0l0,0l0,0l0,0l0.1,0l0.1,0l0,0l0,0l0,0l0.1,0l0,0l0,0l0.1,0l0,0l0,0.1l0,0l0,0.1l0,0l0,0l-0.1,0l-0.1,0.1l0,0
			l0,0l-0.1-0.1L23,59.6l-0.2-0.2l0,0l0,0l0,0l0,0l0,0l0-0.1l0-0.1l0,0l0,0L22.5,59l0,0l0,0l0,0l0,0l0,0l0,0l-0.1,0l-0.1,0l-0.2-0.1
			L22,58.6l-0.1,0l0,0l0,0l0,0l0,0l0,0l0-0.1l0,0l0-0.1l0,0l0,0l0,0l0,0l0,0l0,0l0,0l0,0.1l0,0l0,0.1l0,0.1l0,0l0,0l0-0.1l0,0l0,0
			l0,0l0.1,0l0,0l-0.1-0.1l-0.1-0.1l0,0l0,0l0,0l-0.1,0.1l0,0l-0.1,0.1l-0.1,0l-0.1,0l-0.1,0l-0.2-0.1l0,0l0.1-0.1l0,0l0-0.1l0,0
			l0,0l0,0l0,0l0,0l0,0l0,0l-0.1,0L21,58L20.8,58l-0.2,0l-0.2,0l-0.1,0l-0.1,0l-0.1,0l0,0l0,0l0,0l0-0.1l-0.1,0l-0.1,0l0,0l0,0l0,0
			l0,0l0,0l0-0.1l0-0.1l0,0l0-0.1l0,0l-0.1,0l-0.1,0l-0.1,0.1l0,0l0,0l-0.1,0l-0.1-0.1l-0.1,0l-0.1,0l0,0l0,0l0,0l0,0l0,0l-0.2,0
			l0,0l0,0l0,0l0,0l0,0l-0.1,0l0,0l0,0l0,0l0,0l-0.1,0l0,0l0,0l0-0.1l0,0l0.1,0l0,0l-0.1,0l-0.1,0l-0.1,0l0,0l0,0l0,0l0,0l0,0l0,0
			l0,0l0,0l0,0l0,0l0,0l0,0l0,0l0,0l0,0l-0.1,0l0,0l0-0.1l0,0l0,0l0.1-0.1l0,0l0,0l-0.1,0.1l0,0l0,0l0,0l0,0l0,0l0,0l0,0l0,0l0,0
			l0,0l0,0l0,0.1l0,0.1l0,0l0,0l0,0l0,0l0,0.1l0,0l0,0l0,0l0,0.1l0,0l0,0l-0.1,0l0,0l0,0l0,0l0,0l0,0l0,0l0.1,0l0,0l0,0l0,0l0,0l0,0
			l0,0l0,0l0,0l0,0l0,0l0,0l0,0l0,0.1l0,0l0,0l0,0l0,0l-0.1,0.1l0,0l0,0l0,0l0,0l0,0l0,0l0,0l-0.1,0l0,0l0,0l-0.1,0l0,0l0-0.1l0,0
			l0,0.1l0,0l-0.1,0l0,0.1l0,0l0,0l0-0.1l0,0l0,0l0,0l0,0.1l0,0l-0.1-0.1l0,0l0,0l0,0.1l0,0l-0.1,0.1l0,0l0,0l0,0l-0.1,0l0,0l0,0
			l0,0l0,0l0,0l0,0l-0.1,0l0,0l0,0l0,0l0,0l0,0l0,0l0,0l0,0l0,0l0,0l0,0l0,0l-0.1,0l0,0l-0.1-0.1l0,0l0,0l0,0l0,0l0,0l0.1,0l0.1,0
			l0.1,0l0.1,0l0,0l0.1-0.1l0,0l0,0l-0.2,0.1l0,0l0,0L17,57.5l0,0l0-0.1l0.1-0.1l0,0l0.1-0.1l0.1-0.1l0-0.1l0.1-0.1l0-0.1l0-0.1
			l0-0.1l0,0l0.2,0l0.1,0l0.2-0.1l0,0l0,0l0,0l0,0l0,0l0.1,0l0.1,0l0.2,0.1l0,0l0,0l0,0l-0.1-0.1l0,0L18,56.6l0,0l0,0l0,0l0,0l0,0
			l0,0l0,0l0.1,0l0.1,0l0,0l-0.1,0l0,0l-0.1,0l0,0l0,0.1l0,0l-0.1,0l-0.1,0l0,0l0,0l0,0l-0.2,0l-0.1,0l0,0l-0.1,0l-0.1,0l-0.1,0
			l-0.1,0l0,0l0,0l0,0.1l0,0l0,0l-0.1,0L17,56.8l0,0l0,0l0,0l0,0l0,0l-0.1,0l-0.1,0l0,0l0,0l0-0.1l0,0l0,0l0,0.1l0,0.1l0,0.1l0,0
			l0,0l0,0l-0.1,0l0,0l-0.1,0l0,0l0,0l0.1,0l0,0l0,0l0,0l-0.1,0l-0.1,0l0,0l0,0l0,0l0,0l0,0l-0.1,0l0,0l0,0l0,0l-0.1,0l0,0l0,0
			L16,57.5l0,0l-0.1,0.1l0,0.1l0,0l0.1,0.1l0,0l0,0l0.1,0.1l0,0.1l0,0l0,0l0,0l0,0L16,58.1l0,0l-0.1,0l0,0l-0.1,0.1l0,0l0,0l0,0
			l-0.1,0l0,0l0,0l0,0l0,0.1l0,0l-0.1,0l-0.1,0l0,0l0,0l-0.2,0l-0.1,0.1l0,0l-0.1,0l-0.1,0l-0.1,0l0,0l0,0l0,0l-0.1,0l0,0l0,0
			l-0.1,0l0,0l0,0.1l0,0l0,0l0,0l-0.1,0l0,0l0,0l0,0l0,0l0,0l-0.1,0.1l0,0l0,0l0,0l0,0l0,0l0,0l0,0l0,0l0,0l0,0l0,0l0,0l0,0l0,0l0,0
			l0,0l0,0l0,0.1l0,0l0,0l0,0l0,0l0,0l-0.1,0l0,0l0,0l0,0l0,0l0,0l0,0l0,0l0,0l-0.1,0l0,0l-0.1,0.1l0,0l0,0l0,0l0,0l0,0l0,0l0,0l0,0
			l-0.1,0l0,0l0,0l0,0l0-0.1l0,0l0,0l0,0l-0.1,0.1l-0.1,0l-0.3,0l-0.1,0l0,0l0,0l0,0l0,0l0,0l0.1-0.1l0,0l0,0l0,0l0,0l0,0l0,0l0,0
			l0,0l-0.1,0l-0.1,0l0,0l0,0l0,0l0,0l0,0l0,0l0,0l0,0l0,0l0,0l0,0l0,0l0,0l-0.1,0l0,0l0,0l0-0.1l0,0l0,0l0,0l0,0l0,0l0,0l0,0l0,0
			l0,0l0,0l0,0l0,0l0,0l-0.1,0.1l0,0l-0.2,0.1l-0.1,0l0,0l0,0l0,0l0,0l0,0l0,0l0,0l0,0l0,0l0,0l0-0.1l0,0l0,0l0,0l0,0.1l0,0l0,0
			l-0.1,0l0,0l0-0.1l0,0l0,0l0,0.1l0,0l-0.1,0l0,0l0,0l0,0l0,0l0,0l0,0l0,0l0,0l0.1,0l0,0l0,0l0,0l0,0l0,0l0,0l0,0l0.1,0l0.1,0
			l0.1-0.1l0.1-0.1l0.1,0l0.1,0l0.2,0l0,0l0,0l0,0l0,0l0.1,0l0,0l0,0l0,0l-0.1,0l0,0l0,0.1l0,0l0,0l0,0l0-0.1l0,0l0,0l0,0l0,0l0,0
			l0,0l0,0l0,0l0,0l-0.1-0.1l0,0l0,0l0,0l0-0.1l0.1-0.1l0.1,0l0.1,0l0.1,0l0.2,0l0.3,0l0.1,0l0.1,0l0,0l0,0l0,0l0,0l0,0l0,0l0,0l0,0
			l0,0l0,0l0,0l0.1,0l0.1,0l0.1-0.1l0.1,0l0,0l0.1,0l0.1-0.1l0,0l0.1,0l0,0l0,0l0,0l0,0l0,0l0,0l0,0l0,0l0-0.1l0,0l0,0l0,0l0.1-0.1
			l0.1-0.1l0-0.1l0.1,0l0.1,0l0-0.1l0,0l0,0l0-0.1l0-0.1l0-0.1l0.1-0.1l0.1,0l0,0l0,0l0.1-0.1l0.1-0.1l-0.1,0.1l-0.1,0.1l-0.2,0
			l-0.2,0l-0.1,0l0,0l0-0.1l0,0l0-0.1l0-0.1l0,0l0,0l0,0l0,0l0-0.1l-0.1-0.1l0,0l-0.1,0.1l-0.1,0l0,0l0,0l0,0.1l-0.1,0.1l0,0.1
			l0,0.2l0,0.1l-0.1,0l0-0.1l0-0.2l0-0.1l0-0.1l0,0l-0.1,0l0,0l-0.1-0.1l0-0.1l0-0.1l-0.1,0l-0.1,0l-0.1,0l0,0l-0.1,0l0,0l0,0l0,0
			l0,0.1l-0.2,0l-0.1-0.1l0.1,0l0.1,0l0.1,0l0-0.1l0,0l0-0.1l0.1,0l-0.1,0l0,0l0-0.1l0-0.1l0.1,0l0,0l0-0.1l0-0.1l0-0.1l0-0.2l0-0.2
			l0-0.1l0.1-0.1l0.1-0.1l0.1,0l0,0l0,0l0,0l0,0l0,0L13,55.4l-0.1,0l0,0l0,0.1l0,0l0,0.1l0,0.1l0,0l-0.1,0l-0.1,0l-0.2,0l-0.2-0.1
			l-0.1,0l-0.1-0.1l0,0l0,0l-0.1-0.2l0-0.2l0,0l0-0.1l0-0.1l0,0l0,0l0,0l0,0l0,0l0.2-0.1l0.1-0.1l0,0l0,0l0,0.1l0,0l0,0l0,0l-0.1,0
			l0,0l0,0l0.1,0l0.1,0l0,0l0,0l0,0.1l0,0.1l0.1,0l0.1,0l0,0l0,0l-0.1-0.1l0,0l0.1,0l0,0l0,0l0,0l-0.1,0l-0.2-0.1l-0.1-0.1l-0.1-0.1
			l0,0l0,0l0.1,0l0.1,0l0,0l0,0l-0.1,0l0,0l0,0l0,0l0,0l0,0l0,0l0,0l0,0l0,0l0,0l0,0l0,0l0,0l0,0l0,0l0-0.1l0-0.1l0-0.1l0-0.1l0.1,0
			l0,0l0,0l-0.1,0l0,0l0,0l0,0l0,0l0,0l0.1,0l0,0l-0.1-0.1l0-0.1l0,0l0.1,0l0.1,0l0-0.1l0,0l0,0l0-0.1l0.2-0.1l0.2-0.1l0,0l0,0l0,0
			l0,0l0,0l0,0l0-0.1l0.1,0l0.1,0l0,0l0,0l-0.1,0l0,0l0-0.1l0.1-0.1l0,0l0,0l0.1,0l0,0l0,0l0-0.1l0,0l0,0l0.1,0l0,0l0,0.1l0,0.1l0,0
			l0,0l0,0l0,0l0,0l0,0l0.1,0l0,0l0,0l0,0l0.1,0l0.1,0l0.1,0l0.1,0l0.2-0.1l0.1,0l0,0l0,0l0,0.1l0,0l0.2,0.1l0.1,0l0.1,0l0.1-0.1
			l0.1,0l0-0.1l0-0.1l0-0.1l0-0.2l0-0.1l0-0.1l0,0l0.1-0.1l0.1,0l0.1,0l0.1,0l0,0l0,0l0-0.1l0,0l0,0l0-0.1l0,0l0,0L15,52.3l-0.1,0
			l0,0l-0.1,0l-0.1,0l-0.1,0l-0.2,0.1l-0.1,0l0,0l0-0.1l-0.1-0.2l0,0l0,0l0,0l0,0l0,0l0,0l0-0.1l0-0.1l-0.1-0.1L14,52l-0.2,0l0,0
			l0,0l0,0l0,0l0,0l0,0l0,0l-0.1-0.1l-0.2-0.2l0-0.1l0-0.1l0,0l0,0l0-0.1l0,0l0-0.2l0-0.1l0,0l0,0l0,0l0.1,0l0.1-0.1l0.1,0l0,0l0,0
			l0,0L13.6,51l0,0l-0.2-0.2l-0.1-0.2l0,0l0-0.1l0,0l0,0l0,0l0,0l0.1,0l0.1,0l0.1,0l0,0l0.1,0l0.1,0l0.1,0l0.1,0l0.1,0l0,0.1l0,0
			l0.1,0.1l0,0l0,0l0,0l-0.1-0.1l0,0l0,0l0.1,0l0.1,0l0,0l0.2,0l0.1,0l0.1,0l0.1,0l0,0l0,0l0,0l0,0l0,0l0,0l-0.1,0.1l0,0.1l0,0l0,0
			l0.1,0.1l0.2,0.1l0.1,0l0,0.1l0,0l0.1,0l0.1,0.1l0,0l0.1-0.1l0,0l0,0l0,0l0,0l0,0l0-0.1l0,0L15.5,51l-0.1,0l0,0l0-0.1l0-0.2l0,0
			l0,0l0-0.1l0-0.1l0.1,0l0,0l0,0l0,0.1l0,0l-0.1,0.1l0,0.1l0.1,0.1l0.1,0l0.1,0l0,0l0,0.1l0,0l0.1,0l0-0.1l0-0.1l0,0l-0.1,0l0-0.1
			l-0.1,0l-0.1,0l0-0.1l0-0.1l0-0.1l0-0.1l0.1-0.1l0.1,0l0,0l-0.1-0.1l-0.1,0l0,0l0,0l-0.1,0l0,0l-0.1,0l-0.1-0.1l0-0.1l0-0.1l0-0.2
			l0-0.1L15,49.3l-0.1-0.2l0-0.1l0,0l0,0l0-0.1l0.1,0l0,0l0,0l0,0l0,0l0,0l0.1-0.1l0.1-0.1l0-0.1l0.2,0.1l0.1,0.1l0,0l0.2,0.1l0,0
			l0.1,0l0.1-0.1l0.1-0.1l0,0l0,0l0,0l0,0l0.1-0.1l0.1-0.1l0.3-0.2l0.1-0.1l0,0l0,0l0,0l0,0l0,0l0,0l0,0l0,0l0,0l0,0l0.1,0l0,0
			l0.2,0l0.1,0l0,0l0.2-0.1l0,0l0,0l-0.1,0.1l0,0l-0.1,0.1l0,0l0,0l0,0l0,0l0,0l0,0l0,0l0.1,0l-0.1,0l0-0.1l0,0l0.2-0.1l0.1,0l0,0
			l0,0l0,0l0,0l0,0l0,0l0,0l0.1,0l0,0l0.1,0l0,0l0,0l0.1,0l0,0l0.1,0l0.1,0l0,0l0.1-0.1l0.1-0.1l0.1,0l0,0l0,0l0,0l0,0l0.1,0.1l0,0
			l0,0.1l0,0l-0.1,0l-0.1,0l0,0l0,0.1l0,0l0,0l0,0l0.1-0.1l0,0l0,0l0.1,0l0,0l0,0.1l0,0l0,0l0,0.1l0.1,0l0,0l0.1,0l0.1,0l0.1,0
			l0.1,0l0.1,0.1l0,0l0,0l0,0l0,0l-0.1,0l0,0.1l0,0l0,0l0,0l0,0l0.1,0l0,0l0,0l0,0l0.2,0.1l0,0l0,0l0.1,0l0,0l0,0l0,0l0,0l0.1,0
			l0.1,0l0,0l0,0l0.1,0.1l0,0l0,0.1l0,0l0,0l0,0l0,0l0,0l0,0.1l0,0l0.2,0.1l0.1,0l0.1,0l0.1,0l0.1,0l0.1,0.1l0.1,0l0,0l0.2,0l0.1,0
			l0.1,0l0.1,0l0.1,0l0.1,0l0,0l0,0l0.1,0.1l0.1,0.1l0,0.1l0.2,0.1l0,0.1l0,0.1l0,0l0,0l0.1,0l0,0l0,0.2l0,0.2l0,0.2l0,0.2l0,0.2
			l0,0.2l0,0.2l0,0.2l0,0.2l0,0.2l0,0.2l0,0.2l0,0.2l0,0.2l0,0.2l0,0.2l0,0.2l0,0.2l0,0.2l0,0.2l0,0.2l0,0.2l0,0.2l0,0.2l0,0.2
			l0,0.2l0,0.2l0,0.2l0,0.2l0,0.2l0,0.2l0,0.2l0.1,0l0.1,0l0-0.1l0.1,0.1l0.1,0.1L22,58l0.1-0.1l0.1,0l0.1,0l0.1,0l0,0.1l0,0.1
			l0,0.1l0.1,0.1l0.1,0l0.1,0l0,0.1l0.1,0.1l0.1,0.1l0.1,0.1l0.1,0.1l0.1,0.1l0.1,0.1l0,0l0,0.1l0,0.1l0,0.1l0,0l0.1-0.1l0.1,0
			l0.1,0l0.1,0l0.1,0l0.1-0.1l0-0.1l0,0l0,0l0,0l0-0.1l0.1,0l0.1,0l0.1-0.1l0.1-0.1l0,0l0,0l0.1,0.1l0,0l0,0l0,0l0.1,0.1l0,0l0,0
			l0.1,0l0,0l0.1,0.1l0,0l0,0l0,0l0,0l0,0l0,0l0.1,0l0,0l0.1,0l0.1,0.1l0.1,0.1l0.1,0.1l0,0.1l0.1,0.1l0.1,0.1l0.1,0.1l0,0.1l0,0.1
			l0.1,0.1l0.1,0.1l0,0.1l0.1,0.1l0,0.1l0,0l0,0.1l0.1,0l0.1,0l0,0.1l0,0.1l0.1,0l0,0l0,0l0,0l0,0.1l0.1,0l0,0l0,0l0.1,0l0.1,0
			l0.1,0l0.1,0l0.1,0l0,0.1l0.1,0l0,0.1l0.1,0l0.1,0l0,0l0,0L26.2,61.7L26.2,61.7"/>
	</g>
	<g>
		<path d="M10.7,59.3l0,0.1l0,0l0,0l0,0l0,0l0,0l0,0l-0.1-0.1l-0.1,0l0,0l-0.2-0.1l0,0l0,0l-0.1,0l0,0l0,0l-0.1,0l-0.1,0l0,0l0,0
			l0-0.1l0,0l0,0l0.1,0l0,0l0.1-0.1l0,0l0,0l0.1,0l0.1,0l0.2,0l0,0L10.7,59.3L10.7,59.3L10.7,59.3L10.7,59.3"/>
	</g>
	<g>
		<path d="M24.7,62L24.7,62L24.7,62L24.7,62l-0.1,0.1l0,0l0,0l0,0l0,0l0-0.1l0-0.1l0,0l0,0L24.7,62L24.7,62L24.7,62"/>
	</g>
	<g>
		<path d="M25.6,62.3l0.1,0.1l0,0l0,0l0,0l0,0l0,0L25.6,62.3L25.6,62.3L25.6,62.3l-0.1,0l0-0.1l0,0l0-0.1l0,0l0,0l0,0l0.1,0
			L25.6,62.3"/>
	</g>
	<g>
		<path d="M25.2,61.5l0,0.1l0,0l0,0l0,0l0,0l0,0l0,0l0,0l0,0l-0.1,0l0,0l0,0l0-0.1l0,0l0,0l0-0.1l0,0l0.1-0.1l0,0l0.1,0.1l0.1,0.1
			L25.2,61.5"/>
	</g>
	<g>
		<path d="M25.7,62L25.7,62l0,0.2l0,0.1l0,0l0,0l0,0l0,0l0,0l0,0l0,0l0,0l0,0l-0.1,0l0,0.1l0,0l0,0l0-0.1l0,0l0-0.1l0.1-0.1l0-0.2
			l0.2-0.1l0,0l0.1,0.1l0.1,0.1l0,0L25.7,62L25.7,62"/>
	</g>
	<g>
		<path d="M24.6,60.8L24.6,60.8L24.6,60.8L24.6,60.8l0.1,0l0,0l0,0l0,0l0,0.1l0,0.1l0,0l0,0l0,0l0,0l0-0.1l-0.1-0.1l0,0l0,0l0,0l0,0
			l0,0l0,0l0,0l0,0l0,0l0,0l0,0l0,0l-0.1,0l0,0l-0.1,0l0,0l0,0l0-0.1l0-0.1l0-0.1l0-0.1l0,0l0,0l0,0l0,0l0,0l0.1,0L24.6,60.8"/>
	</g>
	<g>
		<path d="M24.9,62.5L24.9,62.5L24.9,62.5L24.9,62.5L24.9,62.5l0.1,0l0,0l0,0l0,0.1l0,0l0,0l0,0l0,0L24.9,62.5l-0.1,0l0,0l0,0l0-0.1
			l0-0.1l0,0l0,0l0,0l0,0l0.1,0l0.1,0.1l0,0l0,0l0,0.1L24.9,62.5L24.9,62.5"/>
	</g>
	<g>
		<path d="M19.3,57.4L19.3,57.4L19.3,57.4l0.1,0l0,0L19.3,57.4L19.3,57.4L19.3,57.4l-0.1,0.1l0,0l0-0.1l0,0l0,0l0,0l0,0L19.3,57.4
			L19.3,57.4L19.3,57.4"/>
	</g>
	<g>
		<path d="M18.7,57.8L18.7,57.8L18.7,57.8L18.7,57.8l0-0.1l0,0l0.1-0.1l0.1,0l0.1-0.1l0.1-0.1l0,0l0,0l0,0l0,0l0,0l-0.2,0.1l0,0l0,0
			l0,0l0,0l0,0l0,0L18.7,57.8L18.7,57.8L18.7,57.8L18.7,57.8L18.7,57.8"/>
	</g>
	<g>
		<path d="M18.8,57.3L18.8,57.3L18.8,57.3L18.8,57.3l-0.1,0.1l0,0l0,0l0,0l0,0l0,0l0,0l0,0l0-0.1l0,0L18.8,57.3L18.8,57.3L18.8,57.3
			L18.8,57.3L18.8,57.3L18.8,57.3L18.8,57.3L18.8,57.3L18.8,57.3L18.8,57.3"/>
	</g>
	<g>
		<path d="M18.8,57L18.8,57L18.8,57L18.8,57L18.8,57L18.8,57L18.8,57L18.8,57L18.8,57L18.8,57"/>
	</g>
	<g>
		<path d="M15.9,59.4L15.9,59.4L15.9,59.4l-0.1,0l0,0l0-0.1l0-0.1l0,0L15.9,59.4L15.9,59.4L15.9,59.4L15.9,59.4L15.9,59.4"/>
	</g>
	<g>
		<path d="M16.4,58.4L16.4,58.4L16.4,58.4L16.4,58.4L16.4,58.4l0-0.1L16.4,58.4L16.4,58.4L16.4,58.4L16.4,58.4L16.4,58.4L16.4,58.4"
			/>
	</g>
	<g>
		<path d="M16,58.8L16,58.8L16,58.8L16,58.8L16,58.8l-0.1-0.1l0,0l0,0L16,58.8L16,58.8L16,58.8"/>
	</g>
	<g>
		<path d="M14.4,60.1L14.4,60.1L14.4,60.1L14.4,60.1L14.4,60.1L14.4,60.1L14.4,60.1L14.4,60.1L14.4,60.1L14.4,60.1"/>
	</g>
	<g>
		<path d="M15,59.7L15,59.7L15,59.7L15,59.7L15,59.7L15,59.7L15,59.7l0.1-0.1l0,0l0,0L15,59.7L15,59.7"/>
	</g>
	<g>
		<path d="M15.2,59.7L15.2,59.7L15.2,59.7L15.2,59.7L15.2,59.7L15.2,59.7L15.2,59.7L15.2,59.7L15.2,59.7L15.2,59.7L15.2,59.7"/>
	</g>
	<g>
		<path d="M12,59.6L12,59.6L12,59.6L12,59.6L12,59.6L12,59.6L12,59.6L12,59.6l0,0.1l0,0l-0.1,0l0,0L12,59.6l-0.1,0.1l0,0L12,59.6
			L12,59.6L12,59.6L12,59.6L12,59.6L12,59.6L12,59.6L12,59.6"/>
	</g>
	<g>
		<path d="M11.1,59.6L11.1,59.6L11.1,59.6L11.1,59.6L11.1,59.6l0.1-0.1L11.1,59.6L11.1,59.6L11.1,59.6L11.1,59.6L11.1,59.6"/>
	</g>
	<g>
		<path d="M10.9,59.9L10.9,59.9L10.9,59.9L10.9,59.9l-0.1-0.1L10.9,59.9L10.9,59.9L10.9,59.9"/>
	</g>
	<g>
		<path d="M12.3,59.9L12.3,59.9L12.3,59.9L12.3,59.9l-0.1,0L12.1,60l0,0l0.1-0.1l0,0l0,0l0-0.1l0,0l0,0L12.3,59.9L12.3,59.9l0-0.1
			l0,0l0,0L12.3,59.9L12.3,59.9L12.3,59.9L12.3,59.9"/>
	</g>
	<g>
		<path d="M9.3,59.4L9.3,59.4L9.3,59.4L9.3,59.4L9.3,59.4l-0.1,0L9.3,59.4l-0.1-0.1l0,0l0,0l0,0l0,0L9.3,59.4L9.3,59.4L9.3,59.4
			L9.3,59.4L9.3,59.4"/>
	</g>
	<g>
		<path d="M9.4,59.5L9.4,59.5L9.4,59.5L9.4,59.5l0-0.1l0,0l0,0L9.4,59.5L9.4,59.5L9.4,59.5L9.4,59.5L9.4,59.5L9.4,59.5"/>
	</g>
	<g>
		<path d="M13,57.1L13,57.1L13,57.1L13,57l0,0l0.1,0l0.1,0l0,0L13,57.1"/>
	</g>
	<g>
		<path d="M9.4,53.2L9.4,53.2l0.1,0.1l0,0.1l0,0l0-0.1l-0.1-0.1L9.4,53.2l-0.1-0.1l0,0l0.1,0L9.4,53.2L9.4,53.2"/>
	</g>
	<g>
		<path d="M8.8,56.1L8.8,56.1L8.8,56.1L8.8,56.1L8.8,56.1L8.8,56.1L8.8,56.1"/>
	</g>
	<g>
		<path d="M7,59.4L7,59.4L7,59.4L7,59.4l-0.1,0l0,0l0,0L7,59.4L7,59.4L7,59.4L7,59.4"/>
	</g>
	<g>
		<path d="M6.5,59.3L6.5,59.3L6.5,59.3L6.5,59.3L6.5,59.3L6.5,59.3l0.1,0l0,0L6.5,59.3L6.5,59.3L6.5,59.3L6.5,59.3L6.5,59.3"/>
	</g>
	<g>
		<path d="M5.6,59L5.6,59L5.6,59L5.6,59L5.6,59L5.6,59L5.6,59L5.6,59L5.6,59"/>
	</g>
	<g>
		<path d="M8.7,56.6L8.7,56.6L8.7,56.6L8.7,56.6L8.7,56.6l0,0.1L8.7,56.6L8.7,56.6L8.7,56.6"/>
	</g>
	<g>
		<path d="M3.7,58.1L3.7,58.1L3.7,58.1L3.7,58.1L3.7,58.1L3.7,58.1L3.7,58.1"/>
	</g>
	<g>
		<path d="M3.9,58.1L3.9,58.1L3.9,58.1L3.9,58.1L3.9,58.1l0-0.1L3.9,58.1L3.9,58.1L3.9,58.1L3.9,58.1L3.9,58.1"/>
	</g>
	<g>
		<path d="M3.3,57.9L3.3,57.9L3.3,57.9l-0.1-0.1l0,0l0,0l0,0l0,0l0,0l0.2,0.1L3.3,57.9l0-0.1l0.1,0l0,0l0,0l0,0l0,0L3.3,57.9
			L3.3,57.9L3.3,57.9"/>
	</g>
	<g>
		<path d="M1.6,56.2L1.6,56.2L1.6,56.2L1.6,56.2L1.6,56.2L1.6,56.2L1.6,56.2L1.6,56.2"/>
	</g>
	<g>
		<path d="M1.7,56.9L1.7,56.9l-0.1-0.3l0-0.1l0-0.1l0,0l0.1,0.1l0,0.1l0,0.1L1.7,56.9L1.7,56.9L1.7,56.9"/>
	</g>
	<g>
		<path d="M23.9,60.5L23.9,60.5l0.1,0.2l0,0.1l0,0.2l0,0.1l0,0l0,0.1l0,0l0,0l0,0l0,0.1l0,0.1l0,0.1l0,0l0,0l0,0l0,0l0-0.1l0-0.1
			l0,0l0,0l0,0l0,0l0,0l0,0l0,0l0,0l0,0l0-0.1l0,0l-0.1,0l0,0l0,0l0,0l0,0l0.1-0.1l0,0l0,0l0,0l0-0.1l0-0.1l0,0l-0.1,0.1l0,0l-0.1,0
			l0,0l0,0l0-0.1l0,0l0,0l0,0l0,0l0,0l0,0l0-0.1l0,0l0,0L23.9,60.5L23.9,60.5L23.9,60.5"/>
	</g>
	<g>
		<path d="M24,59.8l0.1,0l0.1,0l0.1,0.1l0,0.1l0,0.1l0,0.1l0,0.1l0,0l0,0l0-0.1l0,0l0,0l0,0l0-0.1l0,0l0,0l0,0l0,0l0,0l0,0.1l0,0.1
			l0.1,0.1l0.1,0.1l0,0l0,0.1l0,0l0,0.1l0,0l0,0l-0.1,0l-0.1,0.1l-0.1,0.1l0,0l0,0l0,0l0,0l0,0l0,0l0-0.2l0-0.1l0-0.1l0-0.1l0-0.1
			l0-0.2L24,59.8L24,59.8L24,59.8L24,59.8l-0.1-0.1l0,0l0,0L24,59.8L24,59.8"/>
	</g>
	<g>
		<path d="M23.6,59.7L23.6,59.7l0.1,0.1l0,0.1l0,0l0,0l0,0l0,0l0.1-0.1l0,0l0,0l0.1,0l0.1,0l0,0l0,0.1l0,0.1l-0.1,0l0,0l0,0l0,0l0,0
			l0.1,0l0,0.1l0,0l0,0.1l-0.1,0l-0.1-0.1l-0.1-0.1l0,0l0,0l0,0l0,0.1l0,0l-0.1,0l0-0.1l0-0.1l-0.1-0.1l0,0l0-0.1l0-0.1l0,0l0,0l0,0
			l0-0.1l0,0.1l0,0.1l0,0l0,0l0,0L23.6,59.7L23.6,59.7L23.6,59.7L23.6,59.7"/>
	</g>
	<g>
		<path d="M24.5,61.3L24.5,61.3l0.2,0l0,0l0,0l0,0l0,0l0,0l0,0l0,0l0.2,0.1l0.1,0.1l0,0l0,0l0,0.1l0.1,0.1l0,0l0,0l0,0l0,0L25,61.9
			l0,0l0,0l0,0l0,0l0,0l0.1,0l0.1,0.1l0,0l0,0l0,0l0,0l0,0l0,0l0,0l0.1,0l0,0l0,0.1l0,0.1l0,0l0,0l0,0l0,0l0,0l0,0.1l0,0l0,0l0,0
			l0-0.1l0-0.1l0,0l0,0l0,0l0,0l0,0l0,0l0,0l0,0l0,0l0,0l0,0l0,0l0,0l-0.1-0.1l-0.1-0.1l0,0l0,0l0,0l0,0l0,0L24.8,62l0,0l0,0l0,0
			l-0.1,0l0,0l0,0l0,0l-0.1,0l0,0l0,0l0,0l0,0l0,0l0,0l0,0l0,0l0,0l0,0l0,0l0,0l0-0.1l0,0l-0.1,0l-0.1,0l0,0l0,0l0.1-0.1l0,0l0,0
			l0,0L24.5,61.3L24.5,61.3"/>
	</g>
	<g>
		<path d="M24.3,60.9L24.3,60.9L24.3,60.9L24.3,60.9l0.1,0.2l0,0l0,0l0,0l0,0.1l0,0.1l0,0.1l0,0.1l0,0.1l0,0l0,0l0,0l0,0l0,0l0,0
			l0-0.1l0-0.2l0.1,0l0,0l-0.1-0.1l0,0l0-0.1l0,0l0-0.1l0-0.1L24.3,60.9L24.3,60.9L24.3,60.9L24.3,60.9"/>
	</g>
	<g>
		<path d="M16.4,58.5L16.4,58.5L16.4,58.5L16.4,58.5L16.4,58.5l0.1,0l0,0.1l0,0l0,0l0,0l0,0.1l-0.1,0l0,0l0,0l0,0l0,0l0,0l0,0l0,0
			l0,0l0,0l0,0l0,0l0,0l0,0l0,0l0,0l0,0l0,0l0,0l0,0l0,0l0,0l0,0l0,0L16,58.6l0,0l0.1-0.1l0.1,0l0,0l0,0l0,0l0-0.1l0,0l0,0l0.1,0
			L16.4,58.5L16.4,58.5L16.4,58.5L16.4,58.5"/>
	</g>
	<g>
		<path d="M8,59.5l-0.2,0l-0.1,0l-0.1,0l0,0l0,0l0,0l-0.1,0l0,0l-0.2,0l0,0l0,0l0.1,0l0,0l0.1,0l0,0l0,0l0,0l0,0l0.1,0l0,0l0,0
			l0.1,0l0,0l0,0l0,0l0,0l0,0l0,0l0,0l0.1,0l0.1,0l0,0l0,0.1l0,0L8,59.5L8,59.5L8,59.5"/>
	</g>
	<g>
		<path d="M8.9,59.4L8.9,59.4L8.9,59.4L8.9,59.4l0.1,0l0,0l0,0l0,0.1l-0.1,0l-0.1,0l0,0l0,0l0.1,0l0,0l0,0l0,0l0,0l-0.1,0l-0.1,0
			l-0.1,0l0,0l-0.1,0l-0.1,0l-0.1,0l0,0l0,0l0,0l0,0l0,0l0,0l0,0l0,0l0,0l0-0.1l0,0l0.1,0l0,0l0.1,0l0.1,0l0.1,0l0,0l0.1-0.1l0,0
			l0,0l0.1,0l0,0.1l0,0l0,0l0,0l0,0l0,0l0,0l0,0l0,0l0,0l0,0l0,0l0,0l0,0l0,0l0,0l0.1,0l0.1,0L8.9,59.4L8.9,59.4L8.9,59.4"/>
	</g>
	<g>
		<path d="M5,58.8L5,58.8l0.2,0.2l0,0l0,0l-0.1,0l0,0l-0.1,0L5,58.8L5,58.8l-0.2,0l0,0l0,0l0,0l0,0l0,0l0,0.1l0,0L5,58.8L5,58.8"/>
	</g>
	<g>
		<path d="M4.5,58.5l-0.3-0.1l0,0l0,0l0,0l0.1,0L4.5,58.5l0.2,0l0.1,0l0,0l0-0.1l0,0l0,0l0,0l0.1,0l0,0.1l0,0l0,0l0,0l-0.1,0l0,0
			l0,0.1l-0.1,0L4.5,58.5"/>
	</g>
	<g>
		<path d="M3.6,58L3.6,58L3.6,58L3.6,58l0,0.1l0,0l0,0l0,0l0,0l-0.1,0l0-0.1l-0.1,0l0.1-0.1l0.1,0L3.6,58L3.6,58l0-0.1L3.6,58
			L3.6,58L3.6,58L3.6,58"/>
	</g>
	<g>
		<path d="M2.9,57.7L2.9,57.7L2.9,57.7L2.9,57.7L2.9,57.7L2.9,57.7L2.9,57.7l0-0.1l0,0l0-0.1l0,0l0,0l0,0L3,57.5l0,0.1l0,0l0.1,0.1
			l0,0l0,0L2.9,57.7L2.9,57.7"/>
	</g>
	<g>
		<path d="M2.1,56.7L2.1,56.7L2.1,56.7L2,56.6l0,0l0.1,0L2.1,56.7L2.1,56.7"/>
	</g>
	<g>
		<path d="M1.2,55.8L1.2,55.8L1.2,55.8L1.2,55.8L1.2,55.8L1.2,55.8l0.1,0l0.1,0l0,0l0,0l0,0l-0.1,0l0,0L1.2,55.8"/>
	</g>
</g>
</svg>
