<?xml version="1.0" encoding="UTF-8" standalone="no"?><!DOCTYPE svg PUBLIC "-//W3C//DTD SVG 1.1//EN" "http://www.w3.org/Graphics/SVG/1.1/DTD/svg11.dtd"><svg width="100%" height="100%" viewBox="0 0 4868 6981" version="1.1" xmlns="http://www.w3.org/2000/svg" xmlns:xlink="http://www.w3.org/1999/xlink" xml:space="preserve" style="fill-rule:evenodd;clip-rule:evenodd;stroke-linejoin:round;stroke-miterlimit:1.41421;"><g id="layer1"><path d="M1682,6924c-49,-26 -75,-57 -89,-105c-7,-25 -7,-33 3,-33c8,0 16,14 20,31c3,18 21,46 40,64c36,33 71,45 137,45c22,0 39,5 39,10c0,20 -104,11 -150,-12Z" style="fill:#dfdfdf;fill-rule:nonzero;"/><path d="M726,6910c12,-29 96,-257 96,-259c0,-1 -55,26 -122,61c-68,35 -126,64 -130,64c-27,0 9,-24 134,-90c173,-91 163,-87 154,-64c-5,11 -29,76 -55,145l-48,127l95,-34c52,-19 97,-32 100,-29c10,10 -12,22 -108,55c-52,18 -101,35 -109,38c-11,4 -13,1 -7,-14Z" style="fill:#dfdfdf;fill-rule:nonzero;"/><path d="M4569,6879c-11,-85 17,-169 71,-221c30,-28 98,-61 125,-62c28,0 19,18 -12,25c-16,3 -49,19 -73,34c-63,40 -88,95 -88,194c0,85 -14,103 -23,30Z" style="fill:#dfdfdf;fill-rule:nonzero;"/><path d="M142,6868c0,-53 38,-121 79,-143c19,-10 59,-21 90,-24c31,-4 68,-11 83,-17c36,-13 68,-66 76,-123c8,-55 28,-60 24,-7c-5,55 -39,119 -76,142c-20,11 -60,23 -97,26c-35,4 -78,15 -95,25c-35,21 -64,80 -64,129c0,17 -4,30 -10,30c-5,0 -10,-17 -10,-38Z" style="fill:#dfdfdf;fill-rule:nonzero;"/><path d="M2842,6880c-74,-7 -139,-13 -145,-13c-5,-1 -5,-5 1,-11c6,-6 67,-4 174,5c91,8 172,15 180,15c12,0 21,-31 40,-145c13,-80 27,-145 32,-145c12,0 10,22 -14,172l-23,138l-55,-1c-30,-1 -116,-7 -190,-15Z" style="fill:#dfdfdf;fill-rule:nonzero;"/><path d="M3642,6769l0,-128l-104,110l-104,110l-6,-35c-4,-19 -15,-78 -24,-130l-18,-95l-64,107c-59,98 -80,124 -80,99c0,-15 154,-264 157,-254c2,5 13,67 26,137l22,129l104,-111c58,-62 107,-112 110,-112c11,0 3,294 -8,298c-7,2 -11,-39 -11,-125Z" style="fill:#dfdfdf;fill-rule:nonzero;"/><path d="M4045,6867c-57,-15 -106,-30 -110,-34c-16,-17 9,-14 105,10c57,14 105,24 107,21c3,-3 8,-46 11,-96c4,-51 8,-92 9,-92c13,0 178,40 183,44c15,15 -11,16 -72,1c-96,-22 -96,-22 -96,28c0,73 -12,147 -24,146c-6,0 -57,-13 -113,-28Z" style="fill:#dfdfdf;fill-rule:nonzero;"/><path d="M1273,6774c-45,-57 -81,-106 -81,-110c0,-21 21,0 90,87l74,94l53,-111c29,-61 53,-115 53,-119c0,-5 5,-9 10,-9c6,0 10,5 10,11c0,16 -114,259 -122,259c-4,0 -43,-46 -87,-102Z" style="fill:#dfdfdf;fill-rule:nonzero;"/><path d="M2156,6801l-52,-45l-91,21l-92,22l-63,-59c-35,-33 -64,-62 -65,-66c-3,-20 26,-3 78,47l57,54l92,-21l93,-22l37,35c65,61 59,60 157,38c102,-22 105,-22 105,-10c0,5 -33,16 -72,25c-138,30 -128,31 -184,-19Z" style="fill:#dfdfdf;fill-rule:nonzero;"/><path d="M2370,6628c-53,-42 -97,-80 -97,-84c-2,-20 27,-2 113,67l93,75l98,-20c105,-22 135,-24 135,-12c0,7 -212,53 -236,51c-5,0 -53,-35 -106,-77Z" style="fill:#dfdfdf;fill-rule:nonzero;"/><path d="M30,6660c-4,-3 12,-32 36,-63l44,-57l-45,-74c-51,-83 -56,-66 41,-140c25,-19 46,-38 46,-42c0,-4 -27,-41 -60,-82c-56,-71 -70,-96 -52,-96c7,1 134,162 140,178c1,4 -27,30 -63,57c-35,28 -64,53 -65,57c0,4 18,37 41,74l40,66l-25,37c-46,65 -71,93 -78,85Z" style="fill:#dfdfdf;fill-rule:nonzero;"/><path d="M1018,6614c-11,-69 -28,-339 -22,-345c12,-12 14,2 25,137c6,74 14,159 17,188c6,57 -12,75 -20,20Z" style="fill:#dfdfdf;fill-rule:nonzero;"/><path d="M3927,6588c-106,-42 -99,-38 -91,-50c4,-6 39,4 87,24c44,19 82,34 84,34c2,0 -17,-63 -44,-140c-26,-77 -44,-140 -40,-140c7,0 249,137 258,146c2,2 2,7 -2,10c-3,4 -55,-21 -114,-54c-59,-34 -109,-60 -110,-58c-2,1 17,62 41,134c28,81 40,132 33,131c-7,0 -52,-17 -102,-37Z" style="fill:#dfdfdf;fill-rule:nonzero;"/><path d="M4274,6584c3,-7 56,-28 120,-47l116,-35l23,-55c51,-124 70,-162 78,-156c5,3 -12,55 -39,117l-48,111l-123,38c-144,45 -132,42 -127,27Z" style="fill:#dfdfdf;fill-rule:nonzero;"/><path d="M1813,6546c-51,-11 -95,-21 -98,-23c-2,-3 -12,-71 -21,-153l-17,-148l-150,-28c-82,-15 -152,-27 -155,-28c-2,0 0,-4 5,-9c9,-8 309,39 319,50c2,2 10,69 19,148c9,85 20,146 27,151c6,4 56,15 111,25c54,9 99,21 99,26c0,13 -31,10 -139,-11Z" style="fill:#dfdfdf;fill-rule:nonzero;"/><path d="M2852,6538c0,-5 17,-14 38,-20c20,-6 64,-18 96,-28l60,-16l-97,-37c-53,-20 -99,-39 -102,-42c-7,-8 153,-279 165,-279c15,0 14,3 -54,117c-35,60 -68,118 -75,130c-10,21 -6,23 97,63c59,23 111,45 116,48c9,5 -204,71 -231,72c-7,0 -13,-4 -13,-8Z" style="fill:#dfdfdf;fill-rule:nonzero;"/><path d="M1252,6519c-36,-25 -58,-53 -70,-91c-20,-56 -5,-57 23,-1c44,91 106,110 205,64c38,-17 52,-20 52,-11c0,20 -92,56 -142,56c-25,0 -54,-7 -68,-17Z" style="fill:#dfdfdf;fill-rule:nonzero;"/><path d="M498,6435c-7,-25 -36,-373 -31,-378c12,-12 18,20 34,181l16,173l148,3c178,3 203,22 30,22c-65,0 -135,3 -155,6c-27,5 -39,3 -42,-7Z" style="fill:#dfdfdf;fill-rule:nonzero;"/><path d="M2292,6411c-6,-19 -17,-35 -25,-35c-7,0 -45,14 -83,30c-85,36 -121,38 -150,8c-24,-26 -44,-73 -35,-82c12,-12 23,-6 23,13c0,29 39,71 66,71c13,0 54,-13 91,-30c36,-16 73,-30 83,-30c20,0 45,26 54,57c11,37 -12,35 -24,-2Z" style="fill:#dfdfdf;fill-rule:nonzero;"/><path d="M3298,6319c-28,-189 -30,-203 -17,-203c6,0 11,5 11,11c0,19 41,273 45,277c2,2 76,-4 166,-12c149,-15 182,-15 167,0c-6,6 -263,33 -319,34l-36,0l-17,-107Z" style="fill:#dfdfdf;fill-rule:nonzero;"/><path d="M2504,6285c-64,-56 -107,-101 -100,-104c7,-2 60,-11 118,-20c57,-9 106,-18 108,-20c2,-2 -15,-31 -37,-64c-43,-63 -47,-71 -31,-71c17,0 112,150 98,155c-7,2 -57,11 -112,19c-54,8 -100,17 -102,19c-2,2 41,43 96,91c55,48 100,89 100,92c0,18 -41,-11 -138,-97Z" style="fill:#dfdfdf;fill-rule:nonzero;"/><path d="M4758,6222l-38,-104l-83,53l-82,53l-37,-83c-37,-86 -42,-105 -28,-105c5,0 23,36 41,79l33,79l83,-53l84,-54l27,72c15,40 33,87 40,106c16,37 18,61 7,61c-5,0 -25,-47 -47,-104Z" style="fill:#dfdfdf;fill-rule:nonzero;"/><path d="M1333,6276c-85,-47 -223,-169 -269,-238c-26,-39 -5,-36 29,4c89,106 238,223 302,239c15,4 27,11 27,16c0,17 -35,9 -89,-21Z" style="fill:#dfdfdf;fill-rule:nonzero;"/><path d="M305,6261c-36,-15 -63,-59 -66,-110c-3,-53 17,-46 24,9c6,56 30,82 85,92c19,3 34,10 34,15c0,13 -40,10 -77,-6Z" style="fill:#dfdfdf;fill-rule:nonzero;"/><path d="M2163,6237c6,-16 213,-259 222,-260c21,-2 -3,31 -99,142c-97,113 -132,146 -123,118Z" style="fill:#dfdfdf;fill-rule:nonzero;"/><path d="M760,6191c-3,-3 9,-76 26,-163l32,-157l124,-12c69,-6 137,-12 151,-12c25,-1 27,-5 47,-108c12,-58 24,-108 27,-111c16,-16 14,18 -6,122c-22,111 -24,116 -49,117c-14,0 -81,6 -150,12l-125,12l-30,147c-29,142 -36,164 -47,153Z" style="fill:#dfdfdf;fill-rule:nonzero;"/><path d="M4025,6163c-3,-5 -3,-10 -2,-11c10,-8 342,-20 346,-13c3,5 3,10 2,12c-9,7 -341,19 -346,12Z" style="fill:#dfdfdf;fill-rule:nonzero;"/><path d="M3459,6150c-18,-18 59,-134 113,-170c47,-31 110,-34 167,-8c21,10 68,49 106,87c62,63 82,97 57,97c-5,0 -10,-4 -10,-8c0,-20 -114,-132 -153,-151c-101,-49 -178,-16 -245,107c-16,29 -31,49 -35,46Z" style="fill:#dfdfdf;fill-rule:nonzero;"/><path d="M1948,6030l-59,-96l-66,66c-37,36 -69,66 -73,66c-7,0 -97,-126 -105,-147c-3,-7 -1,-13 4,-13c8,0 53,59 95,124c5,7 34,-15 77,-58c39,-39 72,-68 74,-65c37,48 126,204 120,210c-4,4 -35,-35 -67,-87Z" style="fill:#dfdfdf;fill-rule:nonzero;"/><path d="M3119,6024c-4,-24 -9,-74 -13,-112l-7,-68l24,7c13,4 54,23 91,41c37,19 69,34 71,34c3,0 -8,-44 -23,-97c-15,-54 -26,-99 -25,-101c5,-5 259,70 269,79c23,20 -8,16 -114,-16c-63,-19 -118,-35 -122,-35c-5,0 23,115 47,190c5,17 -7,14 -91,-25c-53,-25 -98,-44 -100,-42c-1,1 1,34 6,72c12,90 12,115 1,115c-5,0 -11,-19 -14,-42Z" style="fill:#dfdfdf;fill-rule:nonzero;"/><path d="M74,6025c4,-11 220,-149 233,-149c3,0 5,4 5,9c0,6 -51,40 -112,78c-131,79 -132,80 -126,62Z" style="fill:#dfdfdf;fill-rule:nonzero;"/><path d="M4435,5829c-29,-70 -51,-128 -50,-130c1,-1 53,27 114,63c62,35 116,64 120,64c5,0 37,-70 72,-155c35,-85 67,-155 72,-155c5,0 9,3 9,7c0,18 -135,333 -142,333c-5,0 -52,-25 -104,-55c-53,-30 -97,-55 -99,-55c-2,0 14,43 36,97c41,101 44,113 31,113c-4,0 -31,-57 -59,-127Z" style="fill:#dfdfdf;fill-rule:nonzero;"/><path d="M552,5919c0,-5 32,-28 70,-54l70,-45l-66,-72c-37,-40 -65,-74 -63,-76c33,-28 204,-125 210,-119c5,5 -34,34 -87,66l-94,59l65,72l64,72l-74,52c-72,50 -95,61 -95,45Z" style="fill:#dfdfdf;fill-rule:nonzero;"/><path d="M1342,5907c0,-49 28,-91 75,-112c45,-20 84,-22 88,-5c1,5 -16,11 -37,13c-21,2 -48,9 -58,14c-20,11 -50,70 -46,90c2,6 -3,14 -9,16c-8,3 -13,-4 -13,-16Z" style="fill:#dfdfdf;fill-rule:nonzero;"/><path d="M2770,5902c-56,-20 -129,-66 -122,-77c3,-6 16,-3 32,7c195,129 326,54 387,-220c4,-18 10,-25 16,-19c10,10 -12,104 -41,170c-56,127 -158,180 -272,139Z" style="fill:#dfdfdf;fill-rule:nonzero;"/><path d="M4022,5912c0,-4 9,-30 64,-179l36,-98l-124,65c-130,69 -136,72 -136,57c0,-7 280,-161 294,-161c2,0 -19,61 -47,135c-27,75 -48,138 -45,140c3,3 44,-9 92,-26c47,-18 89,-29 93,-25c3,3 4,8 2,11c-7,6 -229,85 -229,81Z" style="fill:#dfdfdf;fill-rule:nonzero;"/><path d="M2010,5780c-60,-30 -108,-59 -108,-64c0,-16 7,-13 119,46l106,55l107,-45c59,-24 110,-40 113,-35c4,5 -4,13 -17,18c-13,5 -61,25 -108,45c-46,20 -89,36 -95,35c-5,0 -58,-25 -117,-55Z" style="fill:#dfdfdf;fill-rule:nonzero;"/><path d="M113,5751c-68,-19 -125,-36 -127,-37c-2,-2 53,-24 121,-48c69,-24 125,-46 125,-49c0,-3 -36,-62 -80,-130c-43,-69 -76,-129 -73,-134c5,-9 183,255 183,272c0,5 -48,26 -107,46l-107,39l65,17c35,10 83,23 107,29c23,6 40,15 37,20c-8,13 1,14 -144,-25Z" style="fill:#dfdfdf;fill-rule:nonzero;"/><path d="M2482,5754c1,-13 7,-51 14,-84l13,-61l-60,-7c-33,-3 -77,-6 -98,-6c-22,0 -39,-1 -39,-2c10,-60 61,-233 70,-236c8,-3 10,2 7,14c-6,20 -47,193 -47,198c0,2 41,6 91,9c50,3 93,8 96,10c7,8 -30,187 -39,187c-4,0 -8,-10 -8,-22Z" style="fill:#dfdfdf;fill-rule:nonzero;"/><path d="M3512,5661c-103,-19 -320,-129 -298,-151c4,-3 33,11 65,32c31,21 91,51 132,68c67,26 89,30 178,30c93,1 118,6 96,19c-22,14 -107,14 -173,2Z" style="fill:#dfdfdf;fill-rule:nonzero;"/><path d="M1288,5628c-3,-6 36,-26 87,-46c101,-39 107,-41 107,-27c0,5 -35,23 -77,39c-43,17 -85,33 -94,37c-10,3 -20,2 -23,-3Z" style="fill:#dfdfdf;fill-rule:nonzero;"/><path d="M429,5599c-3,-5 -8,-61 -12,-126l-7,-117l-94,-68c-86,-62 -117,-93 -78,-78c25,9 186,129 190,140c8,24 19,248 12,252c-3,2 -9,1 -11,-3Z" style="fill:#dfdfdf;fill-rule:nonzero;"/><path d="M1786,5492c-22,-58 -42,-102 -45,-98c-4,4 -16,49 -29,100c-12,50 -26,92 -31,92c-12,0 -13,6 22,-141c17,-72 35,-127 39,-122c4,4 27,60 50,123c24,63 44,116 44,117c1,1 59,-36 129,-82c70,-47 129,-85 132,-85c27,0 -36,47 -246,184l-27,17l-38,-105Z" style="fill:#dfdfdf;fill-rule:nonzero;"/><path d="M942,5569c1,-5 20,-17 43,-28c55,-26 58,-56 17,-153c-17,-40 -28,-81 -25,-91c9,-28 85,-56 85,-32c0,5 -13,12 -30,16c-16,4 -32,10 -35,15c-3,5 8,43 25,85c32,81 36,114 19,147c-15,27 -100,62 -99,41Z" style="fill:#dfdfdf;fill-rule:nonzero;"/><path d="M2787,5517c-60,-15 -122,-30 -136,-34l-25,-6l29,-188c16,-103 31,-190 33,-192c16,-17 13,32 -10,185c-15,97 -26,177 -24,179c2,1 67,18 146,36c78,18 142,36 142,41c0,13 -37,8 -155,-21Z" style="fill:#dfdfdf;fill-rule:nonzero;"/><path d="M3938,5508c-3,-6 -7,-33 -8,-62c-3,-66 13,-81 114,-105c94,-23 124,-39 143,-75c18,-35 19,-73 1,-122c-11,-29 -11,-38 -1,-38c6,0 17,17 23,39c34,113 -11,182 -138,211c-30,7 -70,19 -88,26c-33,13 -33,15 -31,69c3,54 -3,76 -15,57Z" style="fill:#dfdfdf;fill-rule:nonzero;"/><path d="M3637,5385c-49,-27 -97,-49 -107,-49c-9,0 -57,15 -106,34c-108,41 -117,44 -120,32c-2,-5 50,-29 114,-52l117,-44l104,56c56,30 103,59 103,65c0,14 -8,11 -105,-42Z" style="fill:#dfdfdf;fill-rule:nonzero;"/><path d="M4242,5427c0,-5 27,-36 60,-70c120,-123 232,-148 330,-76c33,24 110,127 110,146c0,21 -21,6 -39,-28c-11,-21 -33,-52 -49,-69c-94,-102 -211,-87 -339,43c-61,63 -73,71 -73,54Z" style="fill:#dfdfdf;fill-rule:nonzero;"/><path d="M1232,5416c0,-5 1,-10 3,-11c1,0 58,-10 125,-22l124,-23l-101,-79c-95,-75 -114,-95 -92,-95c12,0 233,181 228,186c-3,3 -270,54 -284,54c-2,0 -3,-4 -3,-10Z" style="fill:#dfdfdf;fill-rule:nonzero;"/><path d="M732,5305c-120,-107 -142,-129 -123,-129c14,0 248,210 251,226c2,8 2,14 0,14c-2,0 -59,-50 -128,-111Z" style="fill:#dfdfdf;fill-rule:nonzero;"/><path d="M2945,5366c-39,-23 -53,-48 -53,-94c0,-50 18,-45 22,6c2,35 9,46 37,65c19,13 47,23 62,23c16,0 29,5 29,10c0,17 -63,11 -97,-10Z" style="fill:#dfdfdf;fill-rule:nonzero;"/><path d="M2197,5289c-46,-19 -82,-42 -146,-95c-25,-21 -53,-38 -62,-38c-9,0 -27,16 -39,35c-22,33 -38,45 -38,26c0,-4 10,-23 23,-42c36,-54 65,-51 144,15c72,60 162,101 200,91c45,-11 50,-51 27,-190c-9,-55 10,-34 25,27c36,152 -16,218 -134,171Z" style="fill:#dfdfdf;fill-rule:nonzero;"/><path d="M3752,5119c-102,-135 -107,-143 -92,-143c10,0 202,251 202,264c0,20 -26,-8 -110,-121Z" style="fill:#dfdfdf;fill-rule:nonzero;"/><path d="M3292,5158l-62,-68l-58,60c-80,83 -88,63 -9,-23l64,-69l130,140l65,-80c63,-78 80,-93 80,-71c0,9 -138,179 -145,179c-2,0 -31,-31 -65,-68Z" style="fill:#dfdfdf;fill-rule:nonzero;"/><path d="M1462,5136c0,-6 50,-10 130,-10c72,0 133,0 137,-1c4,0 9,4 11,10c3,8 -41,11 -137,11c-87,0 -141,-4 -141,-10Z" style="fill:#dfdfdf;fill-rule:nonzero;"/><path d="M4613,5086c-78,-43 -153,-104 -227,-183c-59,-64 -74,-87 -57,-87c3,0 37,34 75,74c80,87 185,169 246,192c23,9 42,21 42,25c0,16 -24,9 -79,-21Z" style="fill:#dfdfdf;fill-rule:nonzero;"/><path d="M32,5084c0,-21 133,-143 181,-166c68,-33 144,-30 199,7c61,41 146,171 112,171c-5,0 -14,-12 -21,-27c-84,-188 -245,-203 -400,-37c-62,66 -71,73 -71,52Z" style="fill:#dfdfdf;fill-rule:nonzero;"/><path d="M827,5053c-55,-11 -101,-20 -102,-21c-1,-1 -9,-69 -18,-151c-9,-83 -17,-151 -18,-151c-1,-1 -67,-13 -146,-27c-79,-14 -146,-28 -149,-31c-16,-16 19,-14 160,11l156,27l11,111c7,60 14,129 17,151l6,42l61,12c130,25 157,32 157,41c0,12 -18,10 -135,-14Z" style="fill:#dfdfdf;fill-rule:nonzero;"/><path d="M2496,5035c-8,-14 52,-66 158,-138c111,-76 238,-124 238,-91c0,6 -10,10 -23,10c-55,0 -241,110 -334,198c-18,17 -35,26 -39,21Z" style="fill:#dfdfdf;fill-rule:nonzero;"/><path d="M4232,4956c-24,-49 -47,-90 -50,-90c-3,0 -27,39 -54,86c-26,47 -51,83 -54,79c-3,-3 -31,-50 -62,-105l-56,-99l-18,92c-20,101 -23,110 -35,102c-7,-4 26,-186 43,-240c1,-5 23,25 47,68c24,43 53,94 65,114l21,36l53,-93l53,-93l53,104c29,57 53,110 53,117c2,31 -18,5 -59,-78Z" style="fill:#dfdfdf;fill-rule:nonzero;"/><path d="M2828,5028c-6,-11 44,-18 200,-28l101,-6l-33,-117c-18,-63 -31,-118 -28,-120c2,-2 78,-16 169,-31c116,-18 165,-23 165,-15c0,7 -58,21 -155,35c-85,13 -155,27 -155,30c0,4 14,55 30,113c17,59 30,111 30,116c0,5 -44,12 -97,15c-54,4 -126,9 -159,12c-36,4 -64,2 -68,-4Z" style="fill:#dfdfdf;fill-rule:nonzero;"/><path d="M2092,5006c0,-5 18,-19 40,-30c60,-31 117,-92 130,-140c22,-80 -11,-153 -112,-251c-77,-75 -75,-93 3,-28c61,51 125,146 134,200c15,88 -45,188 -143,238c-47,24 -52,25 -52,11Z" style="fill:#dfdfdf;fill-rule:nonzero;"/><path d="M1649,4961c-77,-13 -141,-26 -143,-28c-6,-6 23,-378 30,-385c15,-14 15,17 3,184c-8,98 -12,181 -10,183c2,3 263,48 291,51c2,0 0,5 -3,10c-7,12 2,13 -168,-15Z" style="fill:#dfdfdf;fill-rule:nonzero;"/><path d="M1059,4935c-31,-18 -62,-99 -38,-99c5,0 12,13 16,30c7,30 38,60 63,60c8,0 44,-13 82,-30c88,-39 115,-39 135,0c17,33 19,50 6,50c-5,0 -14,-13 -20,-30c-6,-19 -17,-30 -29,-30c-11,0 -49,14 -85,30c-70,32 -101,36 -130,19Z" style="fill:#dfdfdf;fill-rule:nonzero;"/><path d="M3472,4891c0,-63 66,-125 133,-125c52,0 46,16 -9,23c-58,6 -94,38 -94,84c0,23 -5,33 -15,33c-8,0 -15,-7 -15,-15Z" style="fill:#dfdfdf;fill-rule:nonzero;"/><path d="M4652,4879c0,-17 14,-46 35,-72c42,-53 44,-85 8,-114c-106,-88 -114,-114 -58,-193c19,-27 35,-57 35,-66c0,-10 5,-18 10,-18c22,0 8,49 -25,91c-46,58 -46,90 2,126c96,74 106,111 48,184c-19,24 -35,54 -35,67c0,12 -4,22 -10,22c-5,0 -10,-12 -10,-27Z" style="fill:#dfdfdf;fill-rule:nonzero;"/><path d="M2022,4800c-68,-55 -183,-114 -222,-114c-16,0 -38,5 -48,10c-12,6 -21,7 -25,1c-3,-6 3,-15 14,-20c36,-20 95,-12 157,19c100,51 226,152 187,150c-5,-1 -33,-21 -63,-46Z" style="fill:#dfdfdf;fill-rule:nonzero;"/><path d="M1172,4749c0,-4 37,-51 83,-104c45,-52 94,-110 109,-128c15,-18 32,-30 38,-26c5,3 -40,63 -101,133c-106,121 -129,144 -129,125Z" style="fill:#dfdfdf;fill-rule:nonzero;"/><path d="M2518,4715c-42,-10 -136,-59 -136,-71c0,-13 9,-10 75,23c71,34 139,38 159,7c9,-15 2,-27 -42,-71c-68,-69 -77,-110 -35,-157c46,-51 112,-41 200,29c51,40 26,45 -28,5c-33,-24 -65,-38 -93,-41c-38,-5 -45,-2 -65,23c-30,38 -21,66 40,131c52,55 60,80 32,106c-25,21 -61,27 -107,16Z" style="fill:#dfdfdf;fill-rule:nonzero;"/><path d="M22,4698c0,-18 52,-32 98,-26c39,5 52,2 75,-16c24,-19 27,-28 27,-76c0,-97 26,-123 122,-124c37,0 70,-5 73,-10c4,-6 11,-8 16,-4c6,4 6,11 -2,20c-8,10 -33,14 -80,14c-90,0 -109,18 -109,103c0,52 -4,62 -30,88c-26,27 -35,29 -87,28c-32,-2 -68,1 -80,5c-13,4 -23,3 -23,-2Z" style="fill:#dfdfdf;fill-rule:nonzero;"/><path d="M4447,4687c-39,-16 -58,-49 -63,-108c-3,-40 -2,-54 7,-49c6,4 11,25 11,47c0,52 43,99 89,99c17,0 31,5 31,10c0,12 -47,12 -75,1Z" style="fill:#dfdfdf;fill-rule:nonzero;"/><path d="M3018,4649c4,-16 15,-52 26,-82c10,-30 18,-59 18,-66c0,-6 -51,-32 -112,-59c-136,-57 -164,-71 -152,-79c7,-4 272,104 293,119c7,5 -61,194 -70,194c-5,0 -6,-12 -3,-27Z" style="fill:#dfdfdf;fill-rule:nonzero;"/><path d="M959,4575l-59,-92l-61,59c-34,32 -65,63 -69,69c-4,5 -9,7 -11,5c-21,-24 -107,-152 -107,-160c0,-23 18,-6 64,61l49,71l66,-66c37,-36 69,-66 72,-66c7,0 115,167 125,193c3,9 2,17 -2,17c-5,0 -35,-41 -67,-91Z" style="fill:#dfdfdf;fill-rule:nonzero;"/><path d="M3904,4634c3,-7 57,-21 132,-35c71,-12 130,-23 131,-25c2,-2 -4,-68 -12,-146c-13,-130 -13,-165 2,-150c6,6 38,308 33,313c-1,2 -57,13 -123,24c-66,12 -131,24 -143,27c-16,3 -23,1 -20,-8Z" style="fill:#dfdfdf;fill-rule:nonzero;"/><path d="M3507,4562l-110,-21l3,-120c2,-66 5,-136 8,-156l5,-35l-146,-27c-81,-14 -150,-28 -153,-31c-16,-16 19,-14 161,11l157,28l-6,130c-3,71 -7,142 -9,156c-4,26 -2,26 102,45c59,11 108,25 111,32c5,15 12,15 -123,-12Z" style="fill:#dfdfdf;fill-rule:nonzero;"/><path d="M42,4569c0,-9 50,-276 56,-294c4,-13 33,-18 154,-29c88,-8 151,-17 153,-24c2,-6 12,-55 22,-108c11,-59 23,-98 30,-98c9,0 6,34 -11,117c-13,64 -25,117 -27,118c-1,1 -69,8 -152,16l-150,14l-17,95c-32,169 -39,200 -49,200c-5,0 -9,-3 -9,-7Z" style="fill:#dfdfdf;fill-rule:nonzero;"/><path d="M1576,4424c-14,-40 -33,-88 -41,-107c-7,-19 -11,-36 -9,-38c2,-3 62,16 133,41c71,25 131,46 135,46c3,0 -23,-54 -59,-120c-36,-67 -63,-124 -59,-127c3,-4 8,-4 11,-1c10,9 155,282 152,285c-2,1 -66,-20 -142,-47c-77,-28 -140,-50 -141,-50c-1,0 10,33 26,73c38,101 43,117 32,117c-6,0 -23,-33 -38,-72Z" style="fill:#dfdfdf;fill-rule:nonzero;"/><path d="M3913,4451c-7,-19 -17,-35 -22,-35c-6,0 -41,14 -79,30c-90,40 -130,39 -164,-1c-26,-30 -35,-79 -16,-79c6,0 10,8 10,19c0,10 9,30 21,45c27,35 60,34 145,-5c80,-35 107,-33 123,12c13,38 14,49 3,49c-4,0 -14,-16 -21,-35Z" style="fill:#dfdfdf;fill-rule:nonzero;"/><path d="M4432,4361c0,-2 29,-49 65,-104c73,-110 56,-101 223,-122c82,-10 115,-9 101,5c-2,3 -58,12 -124,20c-65,9 -122,19 -126,23c-4,5 -32,47 -63,96c-30,48 -60,87 -66,87c-5,0 -10,-2 -10,-5Z" style="fill:#dfdfdf;fill-rule:nonzero;"/><path d="M1035,4288c-104,-52 -133,-73 -100,-72c6,1 59,25 116,54l103,54l105,-45c93,-39 135,-49 107,-24c-8,7 -209,92 -216,90c-2,0 -54,-26 -115,-57Z" style="fill:#dfdfdf;fill-rule:nonzero;"/><path d="M2142,4321c-8,-2 -50,-9 -92,-16c-55,-8 -78,-16 -78,-26c0,-9 7,-12 18,-9c129,39 314,44 430,10c35,-10 26,13 -10,26c-31,11 -236,23 -268,15Z" style="fill:#dfdfdf;fill-rule:nonzero;"/><path d="M3077,4289c-73,-38 -153,-102 -229,-184c-60,-65 -76,-89 -60,-89c3,0 37,34 76,75c81,87 185,168 246,191c23,9 42,21 42,25c0,15 -23,9 -75,-18Z" style="fill:#dfdfdf;fill-rule:nonzero;"/><path d="M555,4225c7,-52 37,-84 92,-98c57,-14 65,-14 65,4c0,11 -11,15 -39,15c-52,0 -89,30 -97,81c-9,53 -28,51 -21,-2Z" style="fill:#dfdfdf;fill-rule:nonzero;"/><path d="M3892,4249c0,-8 43,-60 192,-231c15,-18 33,-30 38,-27c5,3 -40,63 -101,133c-108,123 -129,144 -129,125Z" style="fill:#dfdfdf;fill-rule:nonzero;"/><path d="M4223,4209c2,-6 29,-58 59,-116l55,-105l-44,-107c-24,-58 -41,-109 -37,-112c10,-10 14,-2 61,113l44,109l-59,110c-32,60 -63,111 -70,113c-7,3 -11,0 -9,-5Z" style="fill:#dfdfdf;fill-rule:nonzero;"/><path d="M2492,4185c0,-24 53,-294 59,-301c3,-4 71,-12 151,-19c80,-7 146,-13 147,-14c2,-1 12,-48 24,-106c20,-99 39,-149 39,-102c0,24 -38,211 -45,222c-2,4 -71,14 -153,20l-149,13l-27,149c-15,82 -32,149 -37,149c-5,0 -9,-5 -9,-11Z" style="fill:#dfdfdf;fill-rule:nonzero;"/><path d="M3704,4067l-56,-89l-72,64l-72,65l-34,-48c-69,-95 -78,-112 -69,-117c5,-3 30,26 57,64l48,70l25,-22c14,-12 47,-42 73,-67l46,-44l55,86c72,111 80,127 67,127c-6,0 -36,-40 -68,-89Z" style="fill:#dfdfdf;fill-rule:nonzero;"/><path d="M2123,4103c-45,-16 -72,-54 -78,-111c-7,-58 12,-62 20,-4c8,59 36,92 80,96c24,2 37,8 37,18c0,17 -13,17 -59,1Z" style="fill:#dfdfdf;fill-rule:nonzero;"/><path d="M1512,3932c0,-91 4,-146 10,-146c6,0 10,53 10,139c0,83 -4,142 -10,146c-6,4 -10,-45 -10,-139Z" style="fill:#dfdfdf;fill-rule:nonzero;"/><path d="M152,4018c0,-5 29,-29 65,-53c36,-24 65,-47 65,-50c0,-3 -27,-36 -60,-72c-33,-36 -60,-67 -60,-70c0,-6 194,-127 204,-127c22,0 -5,24 -81,70c-49,30 -90,55 -92,56c-2,2 26,36 62,76l65,73l-75,50c-86,57 -93,60 -93,47Z" style="fill:#dfdfdf;fill-rule:nonzero;"/><path d="M1107,4008c-93,-8 -172,-16 -174,-18c-18,-16 36,-17 188,-4l181,15l9,-50c6,-27 18,-93 26,-145c9,-52 18,-97 21,-99c15,-15 13,24 -5,136c-32,190 -30,183 -54,182c-12,-1 -98,-9 -192,-17Z" style="fill:#dfdfdf;fill-rule:nonzero;"/><path d="M3062,3967c0,-35 27,-88 52,-105c14,-9 46,-19 72,-22c40,-6 48,-4 44,7c-3,8 -11,13 -17,11c-22,-5 -88,18 -104,36c-9,10 -18,34 -20,52c-5,37 -27,55 -27,21Z" style="fill:#dfdfdf;fill-rule:nonzero;"/><path d="M4456,3974c-8,-12 10,-16 114,-23c56,-4 102,-11 102,-15c0,-3 -11,-44 -25,-90c-14,-46 -22,-86 -19,-89c8,-8 178,-31 184,-25c10,11 -27,23 -92,29c-41,4 -68,12 -68,19c0,6 11,47 25,90c14,44 22,82 19,85c-9,9 -235,27 -240,19Z" style="fill:#dfdfdf;fill-rule:nonzero;"/><path d="M652,3943c0,-3 14,-43 31,-89c17,-46 39,-106 49,-135l19,-52l-123,64c-128,68 -136,71 -136,56c0,-7 283,-161 295,-161c2,0 -6,24 -73,206l-29,81l91,-34c99,-36 106,-37 106,-24c0,5 -44,25 -97,44c-54,19 -106,38 -115,42c-10,4 -18,5 -18,2Z" style="fill:#dfdfdf;fill-rule:nonzero;"/><path d="M2257,3926c-3,-5 26,-30 64,-56l70,-46l-64,-71c-51,-56 -62,-74 -53,-82c33,-30 198,-123 203,-115c3,5 -36,34 -87,66c-51,31 -94,58 -96,59c-2,2 27,35 64,74c37,39 65,73 63,74c-119,82 -159,105 -164,97Z" style="fill:#dfdfdf;fill-rule:nonzero;"/><path d="M1834,3831c-68,-18 -126,-36 -128,-38c-3,-2 51,-24 118,-47c68,-24 124,-44 126,-46c2,-1 -33,-58 -77,-127c-83,-129 -87,-137 -72,-137c10,0 186,269 180,274c-2,2 -44,18 -93,35c-131,46 -131,45 -20,72c53,14 99,30 102,37c5,16 7,16 -136,-23Z" style="fill:#dfdfdf;fill-rule:nonzero;"/><path d="M3540,3800c-60,-30 -108,-59 -108,-64c0,-15 2,-14 120,45l110,55l107,-45c96,-41 133,-50 107,-26c-12,12 -204,91 -218,90c-6,0 -59,-25 -118,-55Z" style="fill:#dfdfdf;fill-rule:nonzero;"/><path d="M1062,3777c-18,-35 -11,-87 21,-147c38,-74 138,-206 150,-199c4,3 -19,43 -53,88c-33,45 -71,105 -84,132c-25,52 -31,109 -14,120c6,3 10,10 10,16c0,16 -19,10 -30,-10Z" style="fill:#dfdfdf;fill-rule:nonzero;"/><path d="M3114,3729c-5,-15 -49,-135 -97,-266c-48,-131 -84,-241 -80,-245c10,-10 15,2 104,248l85,232l23,-89c45,-167 54,-194 62,-188c9,5 -68,317 -80,330c-4,3 -11,-7 -17,-22Z" style="fill:#dfdfdf;fill-rule:nonzero;"/><path d="M2059,3669c-4,-3 19,-55 50,-115l56,-108l-36,-93c-51,-129 -50,-127 -39,-127c5,0 30,49 55,109l45,109l-58,112c-64,123 -64,123 -73,113Z" style="fill:#dfdfdf;fill-rule:nonzero;"/><path d="M3882,3658c0,-8 321,-110 328,-104c12,11 -17,23 -150,64c-160,49 -178,53 -178,40Z" style="fill:#dfdfdf;fill-rule:nonzero;"/><path d="M1573,3600c-67,-46 -67,-63 3,-143c65,-75 96,-136 96,-190c0,-38 -2,-41 -37,-51c-29,-9 -54,-8 -106,3c-37,7 -70,10 -73,6c-7,-12 6,-17 79,-30c192,-35 218,93 57,277c-27,31 -50,61 -50,66c0,10 28,38 60,59c13,8 19,18 14,21c-5,3 -24,-5 -43,-18Z" style="fill:#dfdfdf;fill-rule:nonzero;"/><path d="M54,3597c2,-6 28,-56 58,-114l54,-103l-42,-102c-43,-103 -48,-122 -34,-122c5,0 29,51 54,114l45,114l-59,111c-33,61 -64,111 -70,111c-5,0 -8,-4 -6,-9Z" style="fill:#dfdfdf;fill-rule:nonzero;"/><path d="M3516,3494l-41,-113l-24,98c-24,100 -34,126 -44,116c-6,-7 57,-269 65,-269c3,0 25,54 49,121c31,83 48,118 57,115c7,-3 61,-37 119,-76c113,-76 135,-88 135,-73c0,8 -98,77 -250,176l-26,17l-40,-112Z" style="fill:#dfdfdf;fill-rule:nonzero;"/><path d="M2602,3580c0,-20 25,-43 69,-63c35,-17 54,-33 62,-54c12,-27 10,-35 -14,-79c-47,-83 -32,-130 52,-173c27,-13 51,-31 55,-40c3,-9 10,-13 16,-10c18,11 -8,44 -53,66c-85,43 -96,73 -52,144c44,72 29,121 -51,161c-29,15 -55,33 -58,40c-5,13 -26,20 -26,8Z" style="fill:#dfdfdf;fill-rule:nonzero;"/><path d="M4660,3516c-12,-16 -33,-43 -46,-60c-30,-39 -66,-39 -118,0c-69,52 -135,37 -174,-40c-11,-21 -29,-41 -40,-45c-22,-7 -28,-25 -7,-25c21,0 37,15 70,66c42,64 78,70 139,25c56,-41 100,-42 136,-2c46,50 92,104 92,108c0,14 -33,-3 -52,-27Z" style="fill:#dfdfdf;fill-rule:nonzero;"/><path d="M511,3482c-61,-22 -118,-75 -153,-144c-18,-36 -12,-60 8,-28c48,79 74,110 110,131c92,54 191,22 299,-94c31,-34 58,-61 61,-61c34,0 -94,136 -162,172c-60,33 -117,41 -163,24Z" style="fill:#dfdfdf;fill-rule:nonzero;"/><path d="M917,3407c-9,-15 120,-138 174,-165c63,-32 135,-35 191,-6c40,20 96,82 124,137c28,56 0,45 -35,-14c-48,-80 -95,-115 -163,-121c-74,-6 -132,23 -218,110c-37,37 -69,64 -73,59Z" style="fill:#dfdfdf;fill-rule:nonzero;"/><path d="M2337,3275c-69,-61 -122,-115 -119,-120c5,-9 262,209 263,224c2,20 -29,-2 -144,-104Z" style="fill:#dfdfdf;fill-rule:nonzero;"/><path d="M1912,3334c-20,-44 -28,-148 -11,-148c4,0 11,29 13,65c3,36 13,76 22,90c19,28 20,35 6,35c-6,0 -20,-19 -30,-42Z" style="fill:#dfdfdf;fill-rule:nonzero;"/><path d="M3950,3301c-53,-13 -106,-45 -170,-102c-27,-24 -53,-43 -58,-43c-7,0 -34,32 -67,79c-2,2 -6,2 -9,-1c-16,-17 51,-98 81,-98c6,0 38,23 70,51c107,91 219,127 246,77c11,-21 8,-102 -7,-170c-4,-16 -2,-28 3,-28c13,0 33,91 33,149c0,82 -37,108 -122,86Z" style="fill:#dfdfdf;fill-rule:nonzero;"/><path d="M4632,3304c0,-26 102,-318 111,-318c14,0 13,2 -43,172c-46,140 -68,186 -68,146Z" style="fill:#dfdfdf;fill-rule:nonzero;"/><path d="M638,3298c-2,-4 9,-40 26,-80c17,-40 28,-75 25,-78c-3,-3 -44,-14 -91,-25c-47,-12 -86,-24 -86,-29c0,-21 101,-221 109,-216c5,4 -11,49 -35,101c-25,52 -43,99 -40,104c3,4 44,17 91,27c47,10 85,22 85,25c0,10 -71,179 -75,179c-2,0 -6,-3 -9,-8Z" style="fill:#dfdfdf;fill-rule:nonzero;"/><path d="M4182,3289c0,-5 41,-34 91,-66l90,-58l-65,-71c-36,-40 -64,-73 -63,-74c78,-56 149,-104 157,-104c22,0 6,17 -61,63l-70,48l63,65c35,36 64,69 66,73c2,7 -187,131 -201,131c-4,0 -7,-3 -7,-7Z" style="fill:#dfdfdf;fill-rule:nonzero;"/><path d="M2442,3107l-105,-48l3,-34c2,-19 10,-85 18,-147c8,-61 13,-116 10,-120c-3,-5 -66,-35 -140,-68c-122,-53 -157,-74 -125,-74c10,0 213,87 270,116l26,13l-22,150l-21,149l100,45c55,25 102,50 104,56c6,17 -6,13 -118,-38Z" style="fill:#dfdfdf;fill-rule:nonzero;"/><path d="M3192,3147c0,-4 21,-11 46,-15c68,-9 234,-7 234,3c0,9 -120,21 -217,21c-34,0 -63,-4 -63,-9Z" style="fill:#dfdfdf;fill-rule:nonzero;"/><path d="M1796,3074c3,-7 7,-42 10,-77l6,-64l-37,49c-20,27 -38,51 -39,53c-1,1 -7,0 -13,-3c-6,-4 13,-37 47,-81c57,-73 78,-91 68,-57c-10,36 -18,162 -10,162c5,0 67,-18 139,-40c122,-37 151,-41 129,-21c-8,8 -281,91 -297,91c-4,0 -5,-6 -3,-12Z" style="fill:#dfdfdf;fill-rule:nonzero;"/><path d="M4489,3070c-3,-3 21,-55 53,-116l58,-111l-44,-106c-24,-58 -40,-109 -35,-114c5,-5 29,44 55,108l47,116l-61,115c-34,63 -63,114 -64,114c-1,0 -5,-3 -9,-6Z" style="fill:#dfdfdf;fill-rule:nonzero;"/><path d="M968,3034c4,-13 26,-76 49,-140c23,-65 41,-118 40,-118c-2,0 -39,13 -82,30c-99,37 -97,37 -103,27c-4,-8 189,-87 211,-87c5,0 -12,57 -36,127c-25,70 -44,130 -43,134c2,4 57,-21 122,-57c66,-35 122,-62 125,-59c2,3 0,9 -5,14c-12,12 -269,151 -278,151c-4,0 -4,-10 0,-22Z" style="fill:#dfdfdf;fill-rule:nonzero;"/><path d="M320,2884c13,-84 26,-155 28,-157c7,-8 384,22 384,30c0,12 -55,11 -223,-2c-76,-6 -140,-9 -143,-6c-2,2 -14,68 -26,145c-13,86 -27,142 -33,142c-8,0 -4,-47 13,-152Z" style="fill:#dfdfdf;fill-rule:nonzero;"/><path d="M1422,3030c0,-4 40,-44 90,-91c90,-85 190,-218 190,-254c0,-10 7,-19 15,-19c20,0 19,4 -10,62c-36,73 -104,157 -192,237c-71,66 -93,81 -93,65Z" style="fill:#dfdfdf;fill-rule:nonzero;"/><path d="M98,3009c-10,-10 -7,-273 3,-273c11,0 20,270 10,276c-3,2 -9,1 -13,-3Z" style="fill:#dfdfdf;fill-rule:nonzero;"/><path d="M3387,2968c-82,-13 -151,-25 -152,-26c-4,-3 28,-380 32,-385c15,-14 15,24 3,187l-13,181l60,10c33,5 96,15 140,22c77,11 106,22 88,31c-4,2 -75,-6 -158,-20Z" style="fill:#dfdfdf;fill-rule:nonzero;"/><path d="M3792,2976c0,-5 17,-19 38,-30c170,-90 176,-240 15,-390c-66,-62 -79,-90 -24,-51c47,34 122,122 143,170c23,51 25,128 4,168c-18,35 -92,105 -134,127c-36,19 -42,19 -42,6Z" style="fill:#dfdfdf;fill-rule:nonzero;"/><path d="M2692,2885c-52,-45 -96,-85 -98,-90c-9,-23 22,-3 108,71c68,58 99,78 114,75c93,-21 202,-33 210,-25c6,6 8,10 6,10c-3,0 -57,9 -120,20c-63,11 -117,20 -120,20c-3,0 -48,-37 -100,-81Z" style="fill:#dfdfdf;fill-rule:nonzero;"/><path d="M1938,2840c-11,-29 -6,-172 9,-250c20,-105 55,-208 66,-197c6,6 1,33 -11,67c-33,98 -53,223 -48,314c4,77 -2,102 -16,66Z" style="fill:#dfdfdf;fill-rule:nonzero;"/><path d="M3722,2794c-36,-28 -92,-63 -125,-79c-60,-29 -128,-38 -140,-19c-4,6 -11,7 -17,4c-20,-12 24,-34 67,-34c27,0 64,11 101,30c100,50 227,153 187,149c-5,0 -37,-23 -73,-51Z" style="fill:#dfdfdf;fill-rule:nonzero;"/><path d="M4118,2746c-31,-37 -42,-90 -26,-121c19,-36 52,-69 62,-63c5,4 -1,18 -15,33c-14,14 -28,36 -31,47c-8,26 8,71 35,100c12,13 16,24 11,28c-6,3 -22,-8 -36,-24Z" style="fill:#dfdfdf;fill-rule:nonzero;"/><path d="M2908,2758c-7,-11 204,-260 222,-261c6,-1 12,1 12,4c0,3 -50,63 -111,133c-62,70 -113,128 -114,130c-2,2 -6,-1 -9,-6Z" style="fill:#dfdfdf;fill-rule:nonzero;"/><path d="M1502,2694c1,-25 57,-298 62,-303c3,-3 69,-12 148,-19c92,-9 145,-18 150,-26c5,-7 16,-54 25,-104c19,-100 22,-109 35,-101c7,5 -34,222 -44,233c-3,2 -72,11 -153,19c-81,7 -147,15 -148,16c-1,1 -12,58 -24,127c-13,69 -25,135 -28,148c-5,23 -23,31 -23,10Z" style="fill:#dfdfdf;fill-rule:nonzero;"/><path d="M718,2565c-69,-62 -123,-116 -120,-121c3,-5 36,18 72,51c37,32 95,83 129,112c34,30 62,57 62,62c2,20 -28,-2 -143,-104Z" style="fill:#dfdfdf;fill-rule:nonzero;"/><path d="M4340,2604c-21,-40 -66,-128 -102,-195c-36,-68 -60,-123 -53,-123c11,0 207,359 207,380c0,26 -19,4 -52,-62Z" style="fill:#dfdfdf;fill-rule:nonzero;"/><path d="M1140,2623c-15,-12 -32,-35 -38,-50c-13,-36 -13,-87 0,-87c6,0 10,11 10,25c0,38 25,92 48,104c12,6 32,11 46,11c14,0 28,5 31,10c13,21 -70,10 -97,-13Z" style="fill:#dfdfdf;fill-rule:nonzero;"/><path d="M2692,2546c-30,-49 -58,-89 -62,-87c-4,1 -36,31 -73,66c-36,35 -67,62 -69,60c-21,-28 -106,-157 -106,-162c0,-21 22,1 65,63l49,71l70,-70l71,-70l63,99c34,55 62,104 62,110c0,25 -19,3 -70,-80Z" style="fill:#dfdfdf;fill-rule:nonzero;"/><path d="M220,2568c-117,-10 -178,-19 -178,-26c0,-9 49,-8 184,4l184,15l21,-135c25,-155 28,-167 40,-154c5,5 -3,76 -17,162c-21,119 -30,152 -42,151c-8,-1 -95,-9 -192,-17Z" style="fill:#dfdfdf;fill-rule:nonzero;"/><path d="M4612,2541c0,-2 5,-16 11,-32c6,-15 28,-77 50,-136l39,-108l-125,64c-69,36 -127,61 -130,57c-5,-9 268,-160 288,-160c3,0 -17,60 -44,133c-27,72 -49,135 -49,139c0,4 38,-6 84,-22c47,-17 89,-30 95,-30c23,0 9,17 -21,27c-18,6 -70,24 -115,41c-46,17 -83,29 -83,27Z" style="fill:#dfdfdf;fill-rule:nonzero;"/><path d="M3268,2449c-148,-67 -153,-70 -144,-79c4,-3 44,11 90,31c45,21 102,45 124,55l41,18l-37,-99c-21,-54 -35,-99 -30,-99c4,0 65,20 135,45c70,25 129,44 130,43c2,-2 -26,-57 -61,-122c-56,-105 -73,-149 -45,-120c11,11 151,269 151,277c0,4 -63,-16 -140,-43c-77,-27 -140,-47 -140,-45c0,3 16,48 36,100c20,53 34,98 32,99c-1,2 -66,-26 -142,-61Z" style="fill:#dfdfdf;fill-rule:nonzero;"/><path d="M1298,2437c-3,-4 26,-30 65,-55l71,-48l-23,-26c-13,-15 -43,-48 -67,-73l-43,-46l105,-66c59,-36 109,-61 112,-55c3,5 4,10 3,12c-2,1 -45,27 -95,57l-91,54l65,73c36,40 63,74 61,75c-20,15 -137,95 -146,100c-6,4 -14,3 -17,-2Z" style="fill:#dfdfdf;fill-rule:nonzero;"/><path d="M3942,2397c0,-10 14,-44 31,-76c27,-50 29,-61 19,-86c-7,-17 -28,-35 -53,-47c-87,-41 -100,-79 -57,-167c17,-35 29,-69 25,-75c-3,-5 1,-10 9,-10c24,0 19,28 -13,94c-39,77 -31,101 49,141c43,22 70,56 70,91c0,8 -13,39 -30,70c-16,30 -26,61 -23,69c3,9 -1,15 -11,15c-9,0 -16,-8 -16,-19Z" style="fill:#dfdfdf;fill-rule:nonzero;"/><path d="M823,2371c-68,-19 -125,-36 -127,-38c-3,-2 37,-19 88,-38c51,-18 108,-39 125,-46l33,-13l-81,-125c-44,-68 -79,-130 -77,-137c4,-11 171,233 184,267c2,5 -40,25 -93,44c-54,19 -101,37 -106,40c-4,4 36,18 90,32c53,14 99,31 101,37c5,15 8,16 -137,-23Z" style="fill:#dfdfdf;fill-rule:nonzero;"/><path d="M2172,2377c0,-38 23,-81 55,-101c33,-21 122,-29 110,-10c-3,6 -20,10 -36,10c-53,0 -88,26 -101,75c-12,46 -28,60 -28,26Z" style="fill:#dfdfdf;fill-rule:nonzero;"/><path d="M2750,2250c-60,-30 -108,-59 -108,-64c0,-15 2,-14 121,45l110,56l106,-45c98,-42 132,-50 107,-27c-12,12 -203,91 -218,90c-6,0 -59,-25 -118,-55Z" style="fill:#dfdfdf;fill-rule:nonzero;"/><path d="M192,2254c0,-4 78,-218 96,-262c5,-14 -25,-2 -119,48c-69,37 -128,62 -131,57c-5,-8 283,-166 289,-159c1,2 -20,63 -47,136c-28,73 -48,135 -45,138c2,2 41,-9 86,-26c88,-32 101,-35 101,-21c0,4 -48,26 -107,47c-59,22 -111,41 -115,42c-4,2 -8,2 -8,0Z" style="fill:#dfdfdf;fill-rule:nonzero;"/><path d="M1120,2064l59,-113l-44,-104c-25,-61 -40,-108 -34,-114c5,-5 28,40 54,106l46,115l-57,111c-31,61 -63,111 -70,111c-9,0 8,-42 46,-112Z" style="fill:#dfdfdf;fill-rule:nonzero;"/><path d="M3562,2001c-50,-75 -88,-139 -86,-144c3,-5 47,-23 98,-41c51,-18 96,-36 101,-40c4,-3 -38,-17 -93,-30c-55,-13 -100,-29 -100,-35c0,-10 253,45 266,57c2,3 -49,24 -113,48c-65,23 -121,45 -125,49c-4,4 30,64 77,133c47,70 80,130 75,133c-5,3 -50,-55 -100,-130Z" style="fill:#dfdfdf;fill-rule:nonzero;"/><path d="M3132,2110c0,-3 13,-16 29,-29c35,-31 53,-72 49,-116c-5,-51 -39,-59 -112,-26c-61,28 -76,19 -23,-13c99,-61 183,-18 157,81c-12,43 -64,109 -86,109c-8,0 -14,-3 -14,-6Z" style="fill:#dfdfdf;fill-rule:nonzero;"/><path d="M4214,2064c-83,-30 -141,-56 -139,-62c2,-6 24,-91 48,-189c24,-97 47,-176 52,-174c13,4 14,0 -32,185c-24,95 -42,174 -40,176c2,2 62,24 134,49c71,24 131,49 133,56c5,16 2,15 -156,-41Z" style="fill:#dfdfdf;fill-rule:nonzero;"/><path d="M2419,2099c-5,-8 42,-218 59,-263c3,-8 26,40 52,110c25,69 47,127 48,129c2,2 62,-35 134,-82c71,-48 130,-81 130,-75c0,13 -267,195 -274,187c-2,-2 -20,-49 -41,-104c-20,-55 -38,-101 -40,-103c-1,-2 -13,39 -25,90c-25,101 -34,126 -43,111Z" style="fill:#dfdfdf;fill-rule:nonzero;"/><path d="M1991,2069c-41,-105 -69,-186 -66,-190c3,-2 62,17 132,42c71,24 130,43 132,41c2,-2 -23,-54 -57,-115c-59,-110 -67,-131 -52,-131c7,0 162,283 158,288c-2,2 -212,-71 -268,-93c-17,-7 -4,37 47,168c4,10 3,17 -4,17c-6,0 -16,-12 -22,-27Z" style="fill:#dfdfdf;fill-rule:nonzero;"/><path d="M4552,1969l-35,-116l-100,-43c-55,-24 -104,-45 -110,-47c-5,-2 -7,-8 -3,-12c7,-8 198,67 224,87c7,5 17,28 23,51c6,23 22,77 35,120c16,52 21,77 13,77c-7,0 -28,-53 -47,-117Z" style="fill:#dfdfdf;fill-rule:nonzero;"/><path d="M437,2037c-3,-6 10,-13 35,-17c115,-19 182,-112 187,-264c1,-47 6,-85 10,-85c4,0 9,31 11,68c5,127 -46,235 -130,275c-56,26 -104,36 -113,23Z" style="fill:#dfdfdf;fill-rule:nonzero;"/><path d="M1570,1914c-92,-73 -166,-134 -164,-136c8,-7 439,-83 444,-77c11,11 -12,17 -194,51c-104,19 -193,35 -197,37c-5,1 59,56 142,122c138,110 165,135 144,135c-5,0 -83,-60 -175,-132Z" style="fill:#dfdfdf;fill-rule:nonzero;"/><path d="M439,1764c6,-73 12,-150 12,-170c1,-24 6,-38 14,-38c10,0 9,35 -2,170c-9,107 -19,170 -26,170c-7,0 -7,-38 2,-132Z" style="fill:#dfdfdf;fill-rule:nonzero;"/><path d="M241,1759c-5,-14 -26,-64 -46,-111l-36,-84l56,-114c31,-63 61,-114 67,-114c15,0 14,2 -45,120l-55,109l45,105c49,115 50,116 35,116c-6,0 -15,-12 -21,-27Z" style="fill:#dfdfdf;fill-rule:nonzero;"/><path d="M2751,1765c-30,-11 -64,-17 -76,-14c-13,3 -23,1 -23,-5c0,-19 50,-22 90,-6c83,33 119,17 140,-62c20,-78 71,-106 140,-78c22,9 54,16 70,16c37,0 47,16 16,24c-14,3 -47,-3 -79,-15c-75,-29 -103,-15 -127,58c-30,93 -65,112 -151,82Z" style="fill:#dfdfdf;fill-rule:nonzero;"/><path d="M4619,1759c-4,-6 3,-19 14,-29c28,-25 74,-93 84,-122c9,-31 -2,-72 -20,-72c-8,0 -43,16 -78,35c-74,41 -94,43 -131,14c-38,-30 -49,-64 -36,-105c14,-43 130,-149 130,-119c0,2 -25,29 -55,58c-47,45 -55,59 -55,89c0,28 7,42 27,58c33,25 58,21 124,-21c25,-16 58,-29 72,-29c48,0 62,62 28,128c-26,51 -96,128 -104,115Z" style="fill:#dfdfdf;fill-rule:nonzero;"/><path d="M802,1721c0,-13 12,-49 27,-79c34,-69 25,-95 -46,-130c-85,-43 -101,-89 -56,-161c13,-22 25,-52 25,-67c0,-16 5,-28 10,-28c18,0 10,49 -17,105c-26,52 -27,58 -12,83c8,15 36,37 61,49c81,38 97,87 53,158c-13,22 -25,52 -25,68c0,15 -4,27 -10,27c-5,0 -10,-11 -10,-25Z" style="fill:#dfdfdf;fill-rule:nonzero;"/><path d="M3863,1729c1,-14 210,-174 221,-171c6,2 -37,43 -95,91c-97,80 -128,99 -126,80Z" style="fill:#dfdfdf;fill-rule:nonzero;"/><path d="M3262,1646c15,-28 112,-104 166,-130c68,-33 164,-38 234,-11c60,23 97,47 87,57c-3,3 -32,-7 -64,-22c-120,-59 -249,-32 -364,76c-56,53 -77,63 -59,30Z" style="fill:#dfdfdf;fill-rule:nonzero;"/><path d="M2202,1646c0,-6 53,-10 140,-10c87,0 140,4 140,10c0,6 -53,10 -140,10c-87,0 -140,-4 -140,-10Z" style="fill:#dfdfdf;fill-rule:nonzero;"/><path d="M1172,1639c1,-5 18,-20 39,-35c45,-31 60,-73 41,-119c-13,-32 -5,-53 10,-29c20,32 23,82 6,116c-19,40 -97,94 -96,67Z" style="fill:#dfdfdf;fill-rule:nonzero;"/><path d="M1462,1578c0,-5 30,-38 66,-75c141,-142 262,-154 367,-38c52,57 82,121 58,121c-5,0 -15,-15 -22,-32c-18,-45 -87,-118 -126,-134c-78,-33 -167,1 -266,102c-61,62 -77,73 -77,56Z" style="fill:#dfdfdf;fill-rule:nonzero;"/><path d="M2379,1481c-77,-13 -140,-25 -142,-27c-5,-5 25,-381 30,-386c15,-15 15,23 3,187c-12,161 -12,182 2,185c8,3 65,12 125,21c141,20 155,23 155,35c0,13 -8,12 -173,-15Z" style="fill:#dfdfdf;fill-rule:nonzero;"/><path d="M2802,1487c0,-5 20,-21 43,-34c59,-35 114,-98 126,-145c21,-75 -42,-196 -138,-267c-41,-30 -47,-40 -33,-49c11,-6 112,90 150,143c41,56 57,126 42,180c-13,49 -67,113 -129,153c-47,29 -61,34 -61,19Z" style="fill:#dfdfdf;fill-rule:nonzero;"/><path d="M3202,1431c0,-2 33,-24 74,-48l74,-43l-59,-75c-32,-41 -59,-76 -59,-79c1,-5 204,-110 214,-110c3,0 6,4 6,10c0,5 -42,31 -92,56c-51,25 -95,48 -97,50c-2,2 18,29 45,61c26,32 54,66 62,75c12,15 5,21 -65,62c-71,41 -103,54 -103,41Z" style="fill:#dfdfdf;fill-rule:nonzero;"/><path d="M4292,1296c0,-87 4,-140 10,-140c6,0 10,53 10,140c0,87 -4,140 -10,140c-6,0 -10,-53 -10,-140Z" style="fill:#dfdfdf;fill-rule:nonzero;"/><path d="M429,1286c-48,-71 -87,-133 -87,-138c0,-4 48,-25 108,-47l107,-39l-95,-23c-118,-29 -122,-31 -116,-42c5,-7 259,49 270,60c3,2 -50,24 -117,48c-67,25 -124,46 -126,48c-2,1 33,58 77,126c45,67 82,126 82,130c0,24 -27,-8 -103,-123Z" style="fill:#dfdfdf;fill-rule:nonzero;"/><path d="M1089,1410c-3,-4 9,-25 27,-48c99,-122 149,-234 127,-283c-13,-28 -7,-43 10,-26c41,41 5,152 -93,285c-61,82 -61,82 -71,72Z" style="fill:#dfdfdf;fill-rule:nonzero;"/><path d="M3823,1369c-85,-7 -157,-16 -160,-18c-15,-15 26,-16 186,-2c98,8 179,14 180,13c1,-1 12,-61 24,-133c21,-124 32,-164 43,-153c2,3 -7,74 -22,158l-26,152l-35,-1c-20,-1 -105,-8 -190,-16Z" style="fill:#dfdfdf;fill-rule:nonzero;"/><path d="M2758,1310c-127,-97 -210,-127 -270,-100c-14,7 -18,6 -14,-5c8,-25 54,-34 106,-20c51,13 163,80 226,134c64,55 27,48 -48,-9Z" style="fill:#dfdfdf;fill-rule:nonzero;"/><path d="M-8,1317c0,-4 38,-32 86,-61c47,-30 88,-58 91,-63c3,-5 -24,-39 -61,-76l-66,-67l75,-52c41,-29 79,-52 85,-52c21,0 9,16 -33,42c-23,15 -53,37 -67,47l-25,20l68,69l69,69l-104,67c-106,67 -118,73 -118,57Z" style="fill:#dfdfdf;fill-rule:nonzero;"/><path d="M3782,1247c-16,-32 -11,-83 14,-136c30,-65 144,-218 156,-210c5,3 -15,38 -46,78c-99,130 -127,205 -99,270c10,24 -12,22 -25,-2Z" style="fill:#dfdfdf;fill-rule:nonzero;"/><path d="M1578,1149c19,-54 41,-115 49,-136c8,-20 15,-41 15,-46c0,-5 -41,7 -91,26c-80,29 -115,36 -97,18c6,-7 209,-85 219,-85c5,0 -56,188 -86,262c-5,11 33,-5 113,-47c120,-65 142,-74 142,-55c0,6 -3,10 -7,10c-5,0 -71,34 -148,75c-77,41 -141,75 -142,75c0,0 14,-44 33,-97Z" style="fill:#dfdfdf;fill-rule:nonzero;"/><path d="M1949,1189c-3,-5 24,-32 59,-61c76,-62 188,-199 210,-259c16,-42 34,-57 34,-29c0,47 -123,212 -219,294c-66,57 -78,65 -84,55Z" style="fill:#dfdfdf;fill-rule:nonzero;"/><path d="M4585,1133c-68,-17 -123,-34 -123,-37c0,-3 52,-23 115,-44c63,-22 120,-43 126,-46c6,-4 -19,-53 -66,-125c-83,-127 -92,-145 -78,-145c6,0 49,61 98,136c67,105 84,138 74,145c-8,5 -56,23 -107,40c-50,18 -90,34 -88,36c2,3 30,11 63,19c32,9 75,20 96,25c20,5 37,14 37,19c0,14 -8,12 -147,-23Z" style="fill:#dfdfdf;fill-rule:nonzero;"/><path d="M952,1116c0,-21 38,-268 44,-285c3,-7 56,-7 167,2c90,6 176,12 192,12c15,1 27,6 27,12c0,9 -25,10 -87,6c-49,-4 -131,-9 -184,-13l-96,-7l-6,34c-3,19 -14,85 -23,147c-9,61 -21,112 -25,112c-5,0 -9,-9 -9,-20Z" style="fill:#dfdfdf;fill-rule:nonzero;"/><path d="M2417,964c-21,-57 -40,-109 -43,-117c-4,-11 -1,-13 14,-7c10,4 74,27 142,51l123,44l-34,-62c-74,-134 -100,-188 -93,-194c3,-3 8,-4 10,-2c11,12 154,284 151,287c-2,2 -63,-17 -135,-43c-73,-25 -134,-45 -136,-42c-3,2 9,41 26,86c32,88 35,101 22,101c-5,0 -26,-46 -47,-102Z" style="fill:#dfdfdf;fill-rule:nonzero;"/><path d="M715,921c-35,-68 -58,-127 -53,-130c9,-5 130,223 130,245c0,29 -22,-2 -77,-115Z" style="fill:#dfdfdf;fill-rule:nonzero;"/><path d="M3172,989c-36,-7 -88,-18 -117,-24l-51,-10l-61,-110c-65,-118 -66,-119 -52,-119c6,0 36,46 67,103c31,56 58,103 59,105c1,1 51,12 111,23c103,20 136,31 117,41c-4,2 -37,-2 -73,-9Z" style="fill:#dfdfdf;fill-rule:nonzero;"/><path d="M3473,876c-62,-67 -110,-124 -106,-128c7,-7 235,226 235,241c0,19 -24,-2 -129,-113Z" style="fill:#dfdfdf;fill-rule:nonzero;"/><path d="M4289,955c-50,-41 -48,-64 15,-135c83,-96 121,-202 83,-234c-16,-13 -151,-9 -189,6c-14,5 -17,3 -14,-7c5,-16 130,-40 168,-32c52,11 70,31 70,76c0,56 -36,129 -99,200c-28,32 -51,64 -51,72c0,8 16,26 35,41c33,25 45,44 27,44c-4,0 -24,-14 -45,-31Z" style="fill:#dfdfdf;fill-rule:nonzero;"/><path d="M1822,947c0,-4 32,-29 71,-55l72,-48l-67,-67c-36,-36 -66,-69 -66,-73c0,-6 194,-128 204,-128c3,0 6,4 6,10c0,5 -40,33 -90,62c-49,29 -88,56 -87,60c1,4 31,36 66,73c35,36 62,67 60,69c-28,21 -157,106 -162,106c-4,0 -7,-4 -7,-9Z" style="fill:#dfdfdf;fill-rule:nonzero;"/><path d="M391,895c-6,-12 -16,-39 -23,-62c-6,-22 -23,-49 -38,-60c-26,-19 -26,-19 -87,2c-54,19 -65,20 -94,8c-33,-14 -48,-36 -67,-99c-6,-20 -17,-42 -25,-48c-8,-7 -12,-17 -9,-22c11,-18 45,26 60,79c21,74 60,90 137,58c20,-8 45,-15 56,-15c34,0 78,46 90,94c6,25 18,51 26,60c19,18 19,26 0,26c-8,0 -19,-10 -26,-21Z" style="fill:#dfdfdf;fill-rule:nonzero;"/><path d="M3538,788c-9,-15 108,-128 166,-162c65,-37 138,-41 198,-10c40,20 96,82 124,137c28,56 0,45 -35,-14c-48,-80 -95,-115 -162,-121c-72,-6 -138,28 -222,114c-35,36 -66,61 -69,56Z" style="fill:#dfdfdf;fill-rule:nonzero;"/><path d="M1451,708c-26,-23 -33,-38 -37,-80c-3,-31 -1,-52 5,-52c6,0 13,21 16,47c6,56 41,93 88,93c16,0 29,5 29,10c0,22 -70,10 -101,-18Z" style="fill:#dfdfdf;fill-rule:nonzero;"/><path d="M1087,704c-9,-22 -1,-268 8,-268c9,0 12,269 3,277c-3,3 -8,-1 -11,-9Z" style="fill:#dfdfdf;fill-rule:nonzero;"/><path d="M4602,602c-120,-83 -144,-104 -125,-107c11,-1 275,183 275,192c0,17 -15,8 -150,-85Z" style="fill:#dfdfdf;fill-rule:nonzero;"/><path d="M687,649c-93,-9 -172,-17 -174,-19c-16,-15 31,-16 188,-3l179,14l22,-130c26,-155 30,-170 40,-159c5,5 -4,78 -18,162c-24,139 -28,152 -47,151c-11,-1 -96,-8 -190,-16Z" style="fill:#dfdfdf;fill-rule:nonzero;"/><path d="M2797,647c-98,-9 -168,-20 -165,-25c6,-11 23,-10 224,8c95,8 139,8 142,1c1,-5 13,-72 25,-147c12,-76 26,-138 31,-138c12,0 10,19 -12,154c-29,171 -27,166 -53,165c-12,-1 -98,-9 -192,-18Z" style="fill:#dfdfdf;fill-rule:nonzero;"/><path d="M3262,476c0,-87 4,-140 10,-140c6,0 10,53 10,140c0,87 -4,140 -10,140c-6,0 -10,-53 -10,-140Z" style="fill:#dfdfdf;fill-rule:nonzero;"/><path d="M232,577c0,-5 22,-68 49,-140l49,-132l-125,66c-69,36 -128,63 -131,60c-9,-9 6,-19 152,-95c124,-65 137,-70 131,-49c-4,13 -27,78 -51,143c-24,66 -44,120 -44,122c0,1 41,-14 91,-33c83,-31 118,-36 93,-14c-16,14 -214,81 -214,72Z" style="fill:#dfdfdf;fill-rule:nonzero;"/><path d="M1660,551c-3,-3 19,-52 50,-108c30,-56 55,-109 54,-117c0,-8 -19,-60 -41,-114c-23,-55 -39,-102 -36,-104c9,-10 21,12 64,115l41,103l-57,115c-56,111 -63,121 -75,110Z" style="fill:#dfdfdf;fill-rule:nonzero;"/><path d="M2132,504c0,-2 22,-63 49,-135c27,-73 47,-133 44,-133c-2,0 -55,27 -117,60c-109,58 -136,68 -136,53c0,-10 282,-155 288,-149c2,3 -19,66 -46,140c-27,75 -49,136 -47,136c1,0 43,-15 94,-34c50,-19 94,-30 97,-25c5,9 -1,12 -130,60c-74,27 -96,33 -96,27Z" style="fill:#dfdfdf;fill-rule:nonzero;"/><path d="M2683,465c-51,-10 -95,-20 -97,-21c-1,-2 -10,-68 -19,-148c-8,-80 -19,-148 -23,-151c-4,-4 -68,-17 -142,-29c-123,-21 -161,-32 -149,-44c5,-5 306,48 313,55c3,2 12,69 21,149c8,79 20,147 26,150c5,4 55,14 109,24c55,10 100,22 100,27c0,12 -29,10 -139,-12Z" style="fill:#dfdfdf;fill-rule:nonzero;"/><path d="M3577,421c-66,-19 -122,-34 -125,-35c-3,-1 51,-21 120,-46c68,-25 126,-47 128,-49c3,-2 -32,-61 -78,-130c-45,-70 -79,-130 -75,-133c8,-9 23,12 114,154c55,85 71,118 62,124c-7,4 -56,22 -109,41l-97,33l60,17c33,10 79,23 103,29c23,6 42,15 42,20c0,13 -8,12 -145,-25Z" style="fill:#dfdfdf;fill-rule:nonzero;"/><path d="M4102,441c-19,-7 -52,-14 -72,-14c-21,-1 -38,-5 -38,-10c0,-17 50,-21 86,-6c84,35 120,16 143,-72c20,-75 78,-100 156,-67c21,9 49,13 62,9c18,-4 24,-2 21,7c-7,20 -45,21 -89,4c-79,-32 -108,-16 -134,72c-22,74 -71,101 -135,77Z" style="fill:#dfdfdf;fill-rule:nonzero;"/><path d="M638,420c-24,-63 18,-171 116,-294c70,-87 73,-59 3,32c-83,109 -109,167 -102,228c6,48 -4,68 -17,34Z" style="fill:#dfdfdf;fill-rule:nonzero;"/><path d="M1232,431c0,-3 32,-53 70,-111c39,-57 69,-108 66,-112c-2,-4 -65,-30 -140,-57c-75,-27 -136,-53 -136,-57c0,-14 17,-9 158,42c75,28 143,53 150,55c9,3 -6,33 -46,92c-32,49 -61,93 -65,99c-4,6 35,-6 86,-27c93,-39 117,-45 117,-31c0,6 -66,35 -252,110c-4,2 -8,1 -8,-3Z" style="fill:#dfdfdf;fill-rule:nonzero;"/><path d="M4582,431c0,-2 37,-34 83,-71c45,-36 82,-70 82,-74c0,-4 -31,-33 -68,-65l-68,-57l23,-25c43,-46 119,-106 126,-99c4,4 -22,33 -57,65l-64,57l71,59c40,32 72,62 72,65c0,10 -177,150 -189,150c-6,0 -11,-2 -11,-5Z" style="fill:#dfdfdf;fill-rule:nonzero;"/><path d="M2829,309c-3,-5 7,-35 23,-68c84,-182 204,-246 336,-180c52,26 122,90 111,101c-4,4 -25,-10 -48,-31c-145,-131 -275,-92 -376,113c-37,75 -39,77 -46,65Z" style="fill:#dfdfdf;fill-rule:nonzero;"/><path d="M36,235c-10,-17 117,-138 174,-166c122,-60 234,-14 306,124c18,36 19,43 8,43c-4,0 -22,-25 -40,-55c-47,-78 -90,-108 -162,-113c-49,-4 -66,0 -109,23c-28,16 -78,56 -111,91c-33,34 -63,58 -66,53Z" style="fill:#dfdfdf;fill-rule:nonzero;"/><path d="M2002,137c-6,-16 -22,-39 -35,-51c-20,-19 -32,-22 -75,-18c-58,6 -66,-5 -15,-22c30,-10 41,-9 72,7c37,18 83,73 83,99c0,24 -17,15 -30,-15Z" style="fill:#dfdfdf;fill-rule:nonzero;"/><path d="M3923,125c-117,-40 -128,-45 -118,-55c3,-3 57,11 120,32l114,37l101,-61c56,-34 102,-56 102,-49c0,10 -101,78 -185,123c-16,9 -42,4 -134,-27Z" style="fill:#dfdfdf;fill-rule:nonzero;"/></g><path id="layer2" d="M-78,3501l0,-3535l5000,0l0,7070l-2500,0l-2500,0l0,-3535Zm1910,3435c0,-5 -17,-10 -39,-10c-66,0 -101,-12 -137,-45c-19,-18 -37,-46 -40,-64c-4,-17 -12,-31 -20,-31c-10,0 -10,8 -3,33c22,77 95,127 186,127c29,0 53,-4 53,-10Zm-990,-50c96,-33 118,-45 108,-55c-3,-3 -48,10 -100,29l-95,34l48,-127c26,-69 50,-134 55,-145c9,-23 19,-27 -154,64c-125,66 -161,90 -134,90c4,0 62,-29 130,-64c67,-35 122,-62 122,-61c0,2 -84,230 -96,259c-6,15 -4,18 7,14c8,-3 57,-20 109,-38Zm3750,-37c0,-99 25,-154 88,-194c24,-15 57,-31 73,-34c31,-7 40,-25 12,-25c-27,1 -95,34 -125,62c-54,52 -82,136 -71,221c9,73 23,55 23,-30Zm-4430,27c0,-49 29,-108 64,-129c17,-10 60,-21 95,-25c37,-3 77,-15 97,-26c37,-23 71,-87 76,-142c4,-53 -16,-48 -24,7c-8,57 -40,110 -76,123c-15,6 -52,13 -83,17c-76,8 -119,33 -146,85c-23,44 -31,120 -13,120c6,0 10,-13 10,-30Zm2948,-118c24,-150 26,-172 14,-172c-5,0 -19,65 -32,145c-19,114 -28,145 -40,145c-8,0 -89,-7 -180,-15c-107,-9 -168,-11 -174,-5c-6,6 -6,10 -1,11c6,0 71,6 145,13c74,8 160,14 190,15l55,1l23,-138Zm555,-15c1,-81 -1,-147 -4,-147c-3,0 -52,50 -110,112l-104,111l-22,-129c-13,-70 -24,-132 -26,-137c-3,-10 -157,239 -157,254c0,25 21,-1 80,-99l64,-107l18,95c9,52 20,111 24,130l6,35l104,-110l104,-110l0,128c0,86 4,127 11,125c6,-2 11,-58 12,-151Zm511,101c3,-29 6,-72 6,-95c0,-50 0,-50 96,-28c61,15 87,14 72,-1c-5,-4 -170,-44 -183,-44c-1,0 -5,41 -9,92c-3,50 -8,93 -11,96c-2,3 -50,-7 -107,-21c-96,-24 -121,-27 -105,-10c7,6 201,61 223,62c6,1 14,-23 18,-51Zm-2751,-92c58,-128 64,-146 47,-146c-5,0 -10,4 -10,9c0,4 -24,58 -53,119l-53,111l-74,-94c-69,-87 -90,-108 -90,-87c0,10 160,212 168,212c4,0 33,-56 65,-124Zm915,68c39,-9 72,-20 72,-25c0,-12 -3,-12 -105,10c-98,22 -92,23 -157,-38l-37,-35l-93,22l-92,21l-57,-54c-52,-50 -81,-67 -78,-47c1,4 30,33 65,66l63,59l92,-22l91,-21l52,45c56,50 46,49 184,19Zm259,-136c62,-12 113,-26 113,-30c0,-12 -30,-10 -135,12l-98,20l-93,-75c-86,-69 -115,-87 -113,-67c1,9 191,160 203,161c5,1 61,-9 123,-21Zm-2491,-109l25,-37l-40,-66c-23,-37 -41,-70 -41,-74c1,-4 30,-29 65,-57c36,-27 64,-53 63,-57c-6,-16 -133,-177 -140,-178c-18,0 -4,25 52,96c33,41 60,78 60,82c0,4 -21,23 -46,42c-97,74 -92,57 -41,140l45,74l-44,57c-24,31 -40,60 -36,63c7,8 32,-20 78,-85Zm930,19c-3,-29 -11,-114 -17,-188c-11,-135 -13,-149 -25,-137c-6,6 11,276 22,345c8,55 26,37 20,-20Zm2958,-100c-24,-72 -43,-133 -41,-134c1,-2 51,24 110,58c59,33 111,58 114,54c4,-3 4,-8 2,-10c-9,-9 -251,-146 -258,-146c-4,0 14,63 40,140c27,77 46,140 44,140c-2,0 -40,-15 -84,-34c-48,-20 -83,-30 -87,-24c-3,5 -4,10 -3,12c11,7 186,74 196,75c7,1 -5,-50 -33,-131Zm405,63l123,-38l48,-111c27,-62 44,-114 39,-117c-8,-6 -27,32 -78,156l-23,55l-116,35c-64,19 -117,40 -120,47c-5,15 -17,18 127,-27Zm-2449,0c0,-5 -45,-17 -99,-26c-55,-10 -105,-21 -111,-25c-7,-5 -18,-66 -27,-151c-9,-79 -17,-146 -19,-148c-10,-11 -310,-58 -319,-50c-5,5 -7,9 -5,9c3,1 73,13 155,28l150,28l17,148c9,82 19,150 21,153c6,5 186,41 215,42c12,1 22,-3 22,-8Zm1039,-45c63,-18 110,-35 105,-38c-5,-3 -57,-25 -116,-48c-103,-40 -107,-42 -97,-63c7,-12 40,-70 75,-130c68,-114 69,-117 54,-117c-12,0 -172,271 -165,279c3,3 49,22 102,42l97,37l-60,16c-32,10 -76,22 -96,28c-36,11 -52,28 -25,28c6,0 63,-15 126,-34Zm-1578,3c27,-12 49,-27 49,-35c0,-9 -14,-6 -52,11c-99,46 -161,27 -205,-64c-28,-56 -43,-55 -23,1c33,99 123,133 231,87Zm-718,-79c173,0 148,-19 -30,-22l-148,-3l-16,-173c-16,-161 -22,-193 -34,-181c-5,5 24,353 31,378c3,10 15,12 42,7c20,-3 90,-6 155,-6Zm1621,-23c-9,-31 -34,-57 -54,-57c-10,0 -47,14 -83,30c-37,17 -78,30 -91,30c-27,0 -66,-42 -66,-71c0,-19 -11,-25 -23,-13c-9,9 11,56 35,82c29,30 65,28 150,-8c38,-16 76,-30 83,-30c8,0 19,16 25,35c12,37 35,39 24,2Zm1210,-2c76,-8 141,-16 144,-19c15,-15 -18,-15 -167,0c-90,8 -164,14 -166,12c-4,-4 -45,-258 -45,-277c0,-6 -5,-11 -11,-11c-13,0 -11,14 17,203l17,107l36,0c20,0 98,-7 175,-15Zm-884,-29c0,-3 -45,-44 -100,-92c-55,-48 -98,-89 -96,-91c2,-2 48,-11 102,-19c55,-8 105,-17 112,-19c14,-5 -81,-155 -98,-155c-16,0 -12,8 31,71c22,33 39,62 37,64c-2,2 -51,11 -108,20c-58,9 -111,18 -118,20c-14,5 205,204 226,204c6,1 12,-1 12,-3Zm2170,-70c0,-7 -6,-29 -14,-47c-7,-19 -25,-66 -40,-106l-27,-72l-84,54l-83,53l-33,-79c-18,-43 -36,-79 -41,-79c-14,0 -9,19 28,105l37,83l82,-53l83,-53l38,104c36,95 54,126 54,90Zm-3390,-15c0,-5 -12,-12 -27,-16c-64,-16 -213,-133 -302,-239c-34,-40 -55,-43 -29,-4c22,33 115,127 169,171c83,67 189,117 189,88Zm-1040,-30c0,-5 -15,-12 -34,-15c-55,-10 -79,-36 -85,-92c-7,-55 -27,-62 -24,-9c3,51 30,95 66,110c37,16 77,19 77,6Zm1904,-148c96,-111 120,-144 99,-142c-9,1 -216,244 -222,260c-9,28 26,-5 123,-118Zm-1479,-81l30,-147l125,-12c69,-6 136,-12 150,-12c25,-1 27,-6 49,-117c20,-104 22,-138 6,-122c-3,3 -15,53 -27,111c-20,103 -22,107 -47,108c-14,0 -82,6 -151,12l-124,12l-32,157c-28,144 -31,179 -15,162c3,-3 20,-72 36,-152Zm3564,113c1,-2 1,-7 -2,-12c-4,-7 -336,5 -346,13c-1,1 -1,6 2,11c5,7 337,-5 346,-12Zm-826,-123c79,-84 187,-66 292,51c30,33 55,64 55,69c0,4 5,8 10,8c25,0 5,-34 -57,-97c-77,-78 -125,-105 -190,-105c-72,0 -157,73 -192,165c-18,47 3,37 31,-15c16,-29 39,-63 51,-76Zm-1584,-18c-35,-55 -64,-101 -66,-103c-2,-3 -35,26 -74,65c-43,43 -72,65 -77,58c-42,-65 -87,-124 -95,-124c-5,0 -7,6 -4,13c8,21 98,147 105,147c4,0 36,-30 73,-66l66,-66l59,96c32,52 63,91 67,87c5,-5 -20,-53 -54,-107Zm1181,34c-1,-13 -5,-54 -10,-93c-5,-38 -7,-71 -6,-72c2,-2 47,17 100,42c84,39 96,42 91,25c-24,-75 -52,-190 -47,-190c4,0 59,16 122,35c106,32 137,36 114,16c-10,-9 -264,-84 -269,-79c-1,2 10,47 25,101c15,53 26,97 23,97c-2,0 -34,-15 -71,-34c-37,-18 -78,-37 -91,-41l-24,-7l7,68c12,118 18,154 27,154c5,0 9,-10 9,-22Zm-2942,-81c61,-38 112,-72 112,-78c0,-5 -2,-9 -5,-9c-13,0 -229,138 -233,149c-6,18 -5,17 126,-62Zm4302,-15c0,-5 -18,-52 -39,-105c-22,-54 -38,-97 -36,-97c2,0 46,25 99,55c52,30 99,55 104,55c7,0 142,-315 142,-333c0,-4 -4,-7 -9,-7c-5,0 -37,70 -72,155c-35,85 -67,155 -72,155c-4,0 -58,-29 -120,-64c-61,-36 -113,-64 -114,-63c-5,5 102,257 109,257c4,0 8,-4 8,-8Zm-3855,-74l74,-52l-64,-72l-65,-72l94,-59c53,-32 92,-61 87,-66c-6,-6 -177,91 -210,119c-2,2 26,36 63,76l66,72l-70,45c-66,43 -83,61 -60,61c6,0 44,-23 85,-52Zm717,33c-4,-20 26,-79 46,-90c10,-5 37,-12 58,-14c21,-2 38,-8 37,-13c-4,-17 -43,-15 -88,5c-34,15 -49,29 -60,55c-18,44 -20,79 -2,73c6,-2 11,-10 9,-16Zm1564,-12c68,-32 116,-108 149,-234c9,-37 11,-63 6,-68c-6,-6 -12,1 -16,19c-61,274 -192,349 -387,220c-16,-10 -29,-13 -32,-7c-7,11 66,57 122,77c54,19 110,17 158,-7Zm1323,-64c2,-3 1,-8 -2,-11c-4,-4 -46,7 -93,25c-48,17 -89,29 -92,26c-3,-2 18,-65 45,-140c28,-74 49,-135 47,-135c-14,0 -294,154 -294,161c0,15 6,12 136,-57l124,-65l-36,98c-55,149 -64,175 -64,179c0,4 222,-75 229,-81Zm-2029,-31c47,-20 95,-40 108,-45c13,-5 21,-13 17,-18c-3,-5 -54,11 -113,35l-107,45l-106,-55c-112,-59 -119,-62 -119,-46c0,10 205,118 225,119c6,1 49,-15 95,-35Zm-1965,-24c3,-5 -14,-14 -37,-20c-24,-6 -72,-19 -107,-29l-65,-17l107,-39c59,-20 107,-41 107,-46c0,-17 -178,-281 -183,-272c-3,5 30,65 73,134c44,68 80,127 80,130c0,3 -56,25 -125,49c-68,24 -123,46 -121,48c3,3 243,69 258,71c4,1 9,-3 13,-9Zm2259,-91c9,-50 15,-93 13,-96c-3,-2 -46,-7 -96,-10c-50,-3 -91,-7 -91,-9c0,-5 41,-178 47,-198c3,-12 1,-17 -7,-14c-9,3 -60,176 -70,236c0,1 17,2 39,2c21,0 65,3 98,6l60,7l-13,61c-15,71 -17,106 -6,106c4,0 16,-41 26,-91Zm1169,-26c22,-13 -3,-18 -96,-19c-89,0 -111,-4 -178,-30c-41,-17 -101,-47 -132,-68c-32,-21 -61,-35 -65,-32c-22,22 195,132 298,151c66,12 151,12 173,-2Zm-2280,-65c42,-16 77,-34 77,-39c0,-14 -6,-12 -107,27c-51,20 -90,40 -87,46c3,5 13,6 23,3c9,-4 51,-20 94,-37Zm-966,-115c-4,-65 -9,-123 -11,-129c-4,-11 -165,-131 -190,-140c-39,-15 -8,16 78,78l94,68l7,117c4,65 9,121 12,126c14,24 18,-15 10,-120Zm1551,9c96,-65 128,-92 107,-92c-3,0 -62,38 -132,85c-70,46 -128,83 -129,82c0,-1 -20,-54 -44,-117c-23,-63 -46,-119 -50,-123c-4,-5 -22,50 -39,122c-35,147 -34,141 -22,141c5,0 19,-42 31,-92c13,-51 25,-96 29,-100c3,-4 23,40 45,98l38,105l27,-17c14,-10 77,-51 139,-92Zm-993,74c64,-27 69,-69 25,-181c-17,-42 -28,-80 -25,-85c3,-5 19,-11 35,-15c17,-4 30,-11 30,-16c0,-24 -76,4 -85,32c-3,10 8,51 25,91c41,97 38,127 -17,153c-65,31 -55,49 12,21Zm1945,-24c0,-5 -64,-23 -142,-41c-79,-18 -144,-35 -146,-36c-2,-2 9,-82 24,-179c23,-153 26,-202 10,-185c-2,2 -17,89 -33,192l-29,188l25,6c248,62 291,70 291,55Zm1011,-87c-2,-54 -2,-56 31,-69c18,-7 58,-19 88,-26c127,-29 172,-98 138,-211c-6,-22 -17,-39 -23,-39c-10,0 -10,9 1,38c18,49 17,87 -1,122c-19,36 -49,52 -143,75c-101,24 -117,39 -114,105c1,29 5,56 8,62c12,19 18,-3 15,-57Zm-211,-24c0,-6 -47,-35 -103,-65l-104,-56l-117,44c-64,23 -116,47 -114,52c3,12 12,9 120,-32c49,-19 97,-34 106,-34c10,0 58,22 107,49c97,53 105,56 105,42Zm573,-54c128,-130 245,-145 339,-43c16,17 38,48 49,69c11,20 24,37 29,37c17,0 11,-16 -27,-74c-109,-160 -249,-162 -403,-5c-54,55 -71,79 -54,79c3,0 33,-28 67,-63Zm-2939,28c77,-14 141,-27 143,-29c5,-5 -216,-186 -228,-186c-22,0 -3,20 92,95l101,79l-124,23c-67,12 -124,22 -125,22c-2,1 -3,6 -3,11c0,6 1,10 3,10c1,0 65,-11 141,-25Zm-516,1c-2,-8 -57,-62 -123,-120c-110,-98 -142,-121 -133,-97c3,9 249,231 256,231c2,0 2,-6 0,-14Zm2182,-26c0,-5 -13,-10 -29,-10c-15,0 -43,-10 -62,-23c-28,-19 -35,-30 -37,-65c-4,-51 -22,-56 -22,-6c0,46 14,71 53,94c34,21 97,27 97,10Zm-725,-95c29,-28 33,-83 14,-163c-15,-61 -34,-82 -25,-27c23,139 18,179 -27,190c-38,10 -128,-31 -200,-91c-79,-66 -108,-69 -144,-15c-13,19 -23,38 -23,42c0,19 16,7 38,-26c12,-19 30,-35 39,-35c9,0 37,17 62,38c64,53 100,76 146,95c58,23 92,21 120,-8Zm1545,-41c0,-13 -192,-264 -202,-264c-15,0 -10,8 92,143c84,113 110,141 110,121Zm-431,-98c65,-78 83,-107 64,-105c-5,0 -37,36 -73,81l-65,80l-65,-70l-65,-70l-64,69c-79,86 -71,106 9,23l58,-60l62,68c34,37 63,68 65,68c1,0 35,-38 74,-84Zm-1691,-7c-2,-6 -7,-10 -11,-10c-4,1 -65,1 -137,1c-80,0 -130,4 -130,10c0,6 54,10 141,10c96,0 140,-3 137,-11Zm2952,-28c0,-4 -19,-16 -42,-25c-61,-23 -166,-105 -246,-192c-66,-71 -82,-84 -82,-65c0,15 126,145 183,189c90,70 187,118 187,93Zm-4589,-75c155,-166 316,-151 400,37c7,15 16,27 21,27c34,0 -51,-130 -112,-171c-55,-37 -131,-40 -199,-7c-69,33 -212,178 -176,178c3,0 33,-29 66,-64Zm859,35c0,-9 -27,-16 -157,-41l-61,-12l-6,-42c-3,-22 -10,-91 -17,-151l-11,-111l-156,-27c-141,-25 -176,-27 -160,-11c3,3 70,17 149,31c79,14 145,26 146,27c1,0 9,68 18,151c9,82 17,150 18,151c5,3 204,42 220,43c9,1 17,-3 17,-8Zm1665,-128c69,-53 208,-123 242,-123c13,0 23,-4 23,-10c0,-33 -127,15 -238,91c-106,72 -166,124 -158,138c4,5 21,-4 39,-21c17,-17 59,-51 92,-75Zm1664,95c0,-7 -24,-60 -53,-117l-53,-104l-53,93l-53,93l-21,-36c-12,-20 -41,-71 -65,-114c-24,-43 -46,-73 -47,-68c-17,54 -50,236 -43,240c12,8 15,-1 35,-102l18,-92l56,99c31,55 59,102 62,105c3,4 28,-32 54,-79c27,-47 51,-86 54,-86c3,0 26,41 50,90c41,83 61,109 59,78Zm-1236,-14c53,-3 97,-10 97,-15c0,-5 -13,-57 -30,-116c-16,-58 -30,-109 -30,-113c0,-3 70,-17 155,-30c97,-14 155,-28 155,-35c0,-8 -49,-3 -165,15c-91,15 -167,29 -169,31c-3,2 10,57 28,120l33,117l-101,6c-156,10 -206,17 -200,28c4,6 32,8 68,4c33,-3 105,-8 159,-12Zm-911,-25c98,-50 158,-150 143,-238c-9,-54 -73,-149 -134,-200c-78,-65 -80,-47 -3,28c101,98 134,171 112,251c-13,48 -70,109 -130,140c-22,11 -40,25 -40,30c0,14 5,13 52,-11Zm-327,-19c3,-5 5,-10 3,-10c-28,-3 -289,-48 -291,-51c-2,-2 2,-85 10,-183c12,-167 12,-198 -3,-184c-7,7 -36,379 -30,385c3,4 254,48 293,52c6,0 15,-3 18,-9Zm-628,-60c36,-16 74,-30 85,-30c12,0 23,11 29,30c6,17 15,30 20,30c13,0 11,-17 -6,-50c-20,-39 -47,-39 -135,0c-38,17 -74,30 -82,30c-25,0 -56,-30 -63,-60c-4,-17 -11,-30 -16,-30c-24,0 7,81 38,99c29,17 60,13 130,-19Zm2313,-43c0,-46 36,-78 94,-84c25,-3 46,-10 46,-14c0,-17 -75,-9 -108,11c-47,29 -83,120 -47,120c10,0 15,-10 15,-33Zm1170,11c0,-13 16,-43 35,-67c58,-73 48,-110 -48,-184c-48,-36 -48,-68 -2,-126c33,-42 47,-91 25,-91c-5,0 -10,8 -10,18c0,9 -16,39 -35,66c-56,79 -48,105 58,193c36,29 34,61 -8,114c-33,42 -48,99 -25,99c6,0 10,-10 10,-22Zm-2580,-48c0,-15 -126,-105 -194,-140c-62,-31 -121,-39 -157,-19c-11,5 -17,14 -14,20c4,6 13,5 25,-1c10,-5 32,-10 48,-10c39,0 154,59 222,114c57,47 70,53 70,36Zm-791,-212c61,-70 106,-130 101,-133c-6,-4 -23,8 -38,26c-15,18 -64,76 -109,128c-77,89 -96,118 -74,109c5,-1 59,-60 120,-130Zm1324,75c28,-26 20,-51 -32,-106c-61,-65 -70,-93 -40,-131c20,-25 27,-28 65,-23c28,3 60,17 93,41c54,40 79,35 28,-5c-88,-70 -154,-80 -200,-29c-42,47 -33,88 35,157c44,44 51,56 42,71c-20,31 -88,27 -159,-7c-66,-33 -75,-36 -75,-23c0,12 94,61 136,71c46,11 82,5 107,-16Zm-2500,-4c52,1 61,-1 87,-28c26,-26 30,-36 30,-88c0,-85 19,-103 109,-103c47,0 72,-4 80,-14c8,-9 8,-16 2,-20c-5,-4 -12,-2 -16,4c-3,5 -36,10 -73,10c-96,1 -122,27 -122,124c0,48 -3,57 -27,76c-23,18 -36,21 -75,16c-27,-4 -56,-2 -72,5c-32,15 -35,33 -3,23c12,-4 48,-7 80,-5Zm4397,-9c0,-5 -14,-10 -31,-10c-46,0 -89,-47 -89,-99c0,-22 -5,-43 -11,-47c-9,-5 -10,9 -7,49c5,59 24,92 63,108c28,11 75,11 75,-1Zm-1460,-106c18,-52 30,-96 29,-98c-21,-15 -286,-123 -293,-119c-12,8 16,22 152,79c61,27 112,53 112,59c0,7 -8,36 -18,66c-27,79 -34,109 -23,109c5,0 24,-43 41,-96Zm-2034,69c-10,-26 -118,-193 -125,-193c-3,0 -35,30 -72,66l-66,66l-49,-71c-46,-67 -64,-84 -64,-61c0,8 86,136 107,160c2,2 7,0 11,-5c4,-6 35,-37 69,-69l61,-59l59,92c32,50 62,91 67,91c4,0 5,-8 2,-17Zm3039,-34c66,-11 122,-22 123,-24c5,-5 -27,-307 -33,-313c-15,-15 -15,20 -2,150c8,78 14,144 12,146c-1,2 -60,13 -131,25c-75,14 -129,28 -132,35c-3,9 4,11 20,8c12,-3 77,-15 143,-27Zm-437,-41c-3,-7 -52,-21 -111,-32c-104,-19 -106,-19 -102,-45c2,-14 6,-85 9,-156l6,-130l-157,-28c-142,-25 -177,-27 -161,-11c3,3 72,17 153,31l146,27l-5,35c-3,20 -6,90 -8,156l-3,120l110,21c135,27 128,27 123,12Zm-3559,-50c6,-29 19,-96 29,-148l17,-95l150,-14c83,-8 151,-15 152,-16c2,-1 14,-54 27,-118c17,-83 20,-117 11,-117c-7,0 -19,39 -30,98c-10,53 -20,102 -22,108c-2,7 -65,16 -153,24c-121,11 -150,16 -154,29c-6,18 -56,285 -56,294c0,4 4,7 9,7c5,0 14,-24 20,-52Zm1545,-50c-4,-13 -19,-56 -34,-95c-16,-40 -27,-73 -26,-73c1,0 64,22 141,50c76,27 140,48 142,47c3,-3 -142,-276 -152,-285c-3,-3 -8,-3 -11,1c-4,3 23,60 59,127c36,66 62,120 59,120c-4,0 -64,-21 -135,-46c-71,-25 -131,-44 -133,-41c-2,2 2,19 9,38c8,19 27,67 41,107c15,39 32,72 38,72c5,0 6,-10 2,-22Zm2326,3c0,-4 -5,-22 -11,-40c-16,-45 -43,-47 -123,-12c-85,39 -118,40 -145,5c-12,-15 -21,-35 -21,-45c0,-11 -4,-19 -10,-19c-19,0 -10,49 16,79c34,40 74,41 164,1c38,-16 73,-30 79,-30c5,0 15,16 22,35c12,32 29,48 29,26Zm566,-198c31,-49 59,-91 63,-96c4,-4 61,-14 126,-23c66,-8 122,-17 124,-20c14,-14 -19,-15 -101,-5c-167,21 -150,12 -223,122c-69,106 -71,109 -55,109c6,0 36,-39 66,-87Zm-3253,25c105,-43 125,-53 115,-64c-3,-3 -53,15 -111,39l-105,45l-103,-54c-101,-52 -129,-62 -129,-46c0,6 211,118 228,121c2,1 49,-18 105,-41Zm1155,2c36,-13 45,-36 10,-26c-116,34 -301,29 -430,-10c-11,-3 -18,0 -18,9c0,10 23,18 78,26c42,7 84,14 92,16c32,8 237,-4 268,-15Zm742,1c0,-4 -19,-16 -42,-25c-61,-23 -165,-104 -246,-191c-68,-73 -82,-84 -82,-66c0,15 131,150 189,195c86,66 181,112 181,87Zm-2576,-80c8,-51 45,-81 97,-81c28,0 39,-4 39,-15c0,-18 -8,-18 -65,-4c-55,14 -85,46 -92,98c-7,53 12,55 21,2Zm3445,-103c61,-70 106,-130 101,-133c-5,-3 -23,9 -38,27c-149,171 -192,223 -192,231c0,19 21,-2 129,-125Zm281,-23l59,-110l-44,-109c-47,-115 -51,-123 -61,-113c-4,3 13,54 37,112l44,107l-55,105c-66,126 -66,127 -50,121c7,-2 38,-53 70,-113Zm-1764,-54l27,-149l149,-13c82,-6 151,-16 153,-20c7,-11 45,-198 45,-222c0,-47 -19,3 -39,102c-12,58 -22,105 -24,106c-1,1 -67,7 -147,14c-80,7 -148,15 -151,19c-6,7 -59,277 -59,301c0,6 4,11 9,11c5,0 22,-67 37,-149Zm1233,88c-6,-12 -36,-60 -66,-106l-55,-86l-46,44c-26,25 -59,55 -73,67l-25,22l-48,-70c-27,-38 -52,-67 -57,-64c-9,5 0,22 69,117l34,48l72,-65l72,-64l56,89c32,49 62,89 68,89c7,0 7,-6 -1,-21Zm-1589,-33c0,-10 -13,-16 -37,-18c-44,-4 -72,-37 -80,-96c-8,-58 -27,-54 -20,4c6,57 33,95 78,111c46,16 59,16 59,-1Zm-650,-177c0,-86 -4,-139 -10,-139c-6,0 -10,55 -10,146c0,94 4,143 10,139c6,-4 10,-63 10,-146Zm-1287,46l75,-50l-65,-73c-36,-40 -64,-74 -62,-76c2,-1 43,-26 92,-56c76,-46 103,-70 81,-70c-10,0 -204,121 -204,127c0,3 27,34 60,70c33,36 60,69 60,72c0,3 -29,26 -65,50c-36,24 -65,48 -65,53c0,13 7,10 93,-47Zm1081,28c20,-98 47,-285 42,-290c-11,-11 -14,0 -31,97c-8,52 -20,118 -26,145l-9,50l-181,-15c-152,-13 -206,-12 -188,4c3,3 284,29 366,35c16,1 23,-6 27,-26Zm1763,-53c2,-18 11,-42 20,-52c16,-18 82,-41 104,-36c6,2 14,-3 17,-11c4,-11 -4,-13 -44,-7c-26,3 -58,13 -72,22c-25,17 -52,70 -52,105c0,34 22,16 27,-21Zm1607,9c3,-3 -5,-41 -19,-85c-14,-43 -25,-84 -25,-90c0,-7 27,-15 68,-19c65,-6 102,-18 92,-29c-6,-6 -176,17 -184,25c-3,3 5,43 19,89c14,46 25,87 25,90c0,4 -46,11 -102,15c-104,7 -122,11 -114,23c5,8 231,-10 240,-19Zm-3911,-56c53,-19 97,-39 97,-44c0,-13 -7,-12 -106,24l-91,34l29,-81c67,-182 75,-206 73,-206c-12,0 -295,154 -295,161c0,15 8,12 136,-56l123,-64l-19,52c-10,29 -32,89 -49,135c-36,98 -36,96 -13,87c9,-4 61,-23 115,-42Zm1636,-70c2,-1 -26,-35 -63,-74c-37,-39 -66,-72 -64,-74c2,-1 45,-28 96,-59c51,-32 90,-61 87,-66c-5,-8 -170,85 -203,115c-9,8 2,26 53,82l64,71l-70,46c-38,26 -67,51 -64,56c5,8 45,-15 164,-97Zm-451,25c-3,-7 -49,-23 -102,-37c-111,-27 -111,-26 20,-72c49,-17 91,-33 93,-35c6,-5 -170,-274 -180,-274c-15,0 -11,8 72,137c44,69 79,126 77,127c-2,2 -58,22 -126,46c-67,23 -121,45 -118,47c4,4 243,71 259,72c5,1 7,-4 5,-11Zm1798,-39c100,-41 122,-54 112,-64c-3,-3 -53,15 -111,40l-107,45l-110,-55c-118,-59 -120,-60 -120,-45c0,10 205,119 226,119c6,1 55,-17 110,-40Zm-2676,-28c0,-6 -4,-13 -10,-16c-17,-11 -11,-68 14,-120c13,-27 51,-87 84,-132c34,-45 57,-85 53,-88c-12,-7 -112,125 -150,199c-32,60 -39,112 -21,147c11,20 30,26 30,10Zm2086,-202c23,-87 38,-161 33,-164c-8,-6 -17,21 -62,188l-23,89l-85,-232c-89,-246 -94,-258 -104,-248c-4,4 32,114 80,245c48,131 92,251 97,266c6,15 13,25 17,22c3,-4 24,-78 47,-166Zm-1046,-29l58,-112l-45,-109c-25,-60 -50,-109 -55,-109c-11,0 -12,-2 39,127l36,93l-56,108c-31,60 -54,112 -50,115c9,10 9,10 73,-113Zm1928,62c133,-41 162,-53 150,-64c-7,-6 -328,96 -328,104c0,13 18,9 178,-40Zm-2458,-21c-32,-21 -60,-49 -60,-59c0,-5 23,-35 50,-66c82,-94 121,-186 99,-237c-17,-42 -70,-56 -156,-40c-73,13 -86,18 -79,30c3,4 36,1 73,-6c52,-11 77,-12 106,-3c35,10 37,13 37,51c0,54 -31,115 -96,190c-53,62 -62,81 -46,107c14,21 76,60 86,54c5,-3 -1,-13 -14,-21Zm-1472,-102l59,-111l-45,-114c-25,-63 -49,-114 -54,-114c-14,0 -9,19 34,122l42,102l-54,103c-64,122 -65,123 -52,123c6,0 37,-50 70,-111Zm3590,3c61,-41 112,-79 112,-85c0,-15 -22,-3 -135,73c-58,39 -112,73 -119,76c-9,3 -26,-32 -57,-115c-24,-67 -46,-121 -49,-121c-8,0 -71,262 -65,269c10,10 20,-16 44,-116l24,-98l41,113l40,112l26,-17c14,-9 76,-50 138,-91Zm-1092,74c3,-7 29,-25 58,-40c80,-40 95,-89 51,-161c-44,-71 -33,-101 52,-144c45,-22 71,-55 53,-66c-6,-3 -13,1 -16,10c-4,9 -28,27 -55,40c-84,43 -99,90 -52,173c24,44 26,52 14,79c-8,21 -27,37 -62,54c-44,20 -69,43 -69,63c0,12 21,5 26,-8Zm2084,-29c0,-4 -46,-58 -92,-108c-36,-40 -80,-39 -136,2c-61,45 -97,39 -139,-25c-33,-51 -49,-66 -70,-66c-21,0 -15,18 7,25c11,4 29,24 40,45c39,77 105,92 174,40c52,-39 88,-39 118,0c61,80 71,90 84,90c8,0 14,-2 14,-3Zm-4038,-85c68,-36 196,-172 162,-172c-3,0 -30,27 -61,61c-108,116 -207,148 -299,94c-36,-21 -62,-52 -110,-131c-20,-32 -26,-8 -8,28c52,102 145,164 229,152c22,-3 61,-18 87,-32Zm431,-201c38,-18 60,-22 103,-19c68,6 115,41 163,121c35,59 63,70 35,14c-28,-55 -84,-117 -124,-137c-56,-29 -128,-26 -191,6c-54,27 -183,150 -174,165c4,5 36,-22 73,-59c37,-37 89,-78 115,-91Zm1376,122c-1,-15 -258,-233 -263,-224c-3,5 50,59 119,120c115,102 146,124 144,104Zm-529,-8c0,-3 -7,-17 -16,-30c-9,-14 -19,-54 -22,-90c-6,-78 -22,-87 -22,-12c0,53 30,137 50,137c5,0 10,-2 10,-5Zm2105,-88c8,-12 15,-43 15,-68c0,-58 -20,-149 -33,-149c-5,0 -7,12 -3,28c15,68 18,149 7,170c-27,50 -139,14 -246,-77c-32,-28 -64,-51 -70,-51c-30,0 -97,81 -81,98c3,3 7,3 9,1c33,-47 60,-79 67,-79c5,0 31,19 58,43c64,57 117,89 170,102c56,14 88,9 107,-18Zm643,-125c56,-170 57,-172 43,-172c-9,0 -111,292 -111,318c0,40 22,-6 68,-146Zm-4014,62c20,-47 36,-89 36,-93c0,-3 -38,-15 -85,-25c-47,-10 -88,-23 -91,-27c-3,-5 15,-52 40,-104c24,-52 40,-97 35,-101c-8,-5 -109,195 -109,216c0,5 39,17 86,29c47,11 88,22 91,25c3,3 -8,38 -25,78c-26,63 -31,88 -17,88c1,0 19,-39 39,-86Zm3608,14c54,-34 97,-65 96,-69c-2,-4 -31,-37 -66,-73l-63,-65l70,-48c67,-46 83,-63 61,-63c-8,0 -79,48 -157,104c-1,1 27,34 63,74l65,71l-90,58c-81,52 -106,73 -84,73c3,0 51,-28 105,-62Zm-1734,-89c-2,-6 -49,-31 -104,-56l-100,-45l21,-149l22,-150l-26,-13c-57,-29 -260,-116 -270,-116c-32,0 3,21 125,74c74,33 137,63 140,68c3,4 -2,59 -10,120c-8,62 -16,128 -18,147l-3,34l105,48c112,51 124,55 118,38Zm835,5c43,-4 77,-11 77,-15c0,-10 -166,-12 -234,-3c-25,4 -46,11 -46,15c0,11 96,12 203,3Zm-1449,-105c133,-39 166,-52 155,-63c-2,-3 -63,13 -134,34c-72,22 -134,40 -139,40c-8,0 0,-126 10,-162c10,-34 -11,-16 -68,57c-34,44 -53,77 -47,81c6,3 12,4 13,3c1,-2 19,-26 39,-53l37,-49l-6,64c-3,35 -7,70 -10,77c-5,16 -10,17 150,-29Zm2616,-83l61,-115l-47,-116c-26,-64 -50,-113 -55,-108c-5,5 11,56 35,114l44,106l-58,111c-50,94 -60,122 -44,122c1,0 30,-51 64,-114Zm-3456,23c134,-72 153,-85 145,-94c-3,-3 -59,24 -125,59c-65,36 -120,61 -122,57c-1,-4 18,-64 43,-134c24,-70 41,-127 36,-127c-22,0 -215,79 -211,87c6,10 4,10 103,-27c43,-17 80,-30 82,-30c1,0 -17,53 -40,118c-54,150 -58,162 -49,162c4,0 66,-32 138,-71Zm-766,-91c12,-77 24,-143 26,-145c3,-3 67,0 143,6c168,13 223,14 223,2c0,-8 -377,-38 -384,-30c-2,2 -15,73 -28,157c-17,105 -21,152 -13,152c6,0 20,-56 33,-142Zm1175,71c88,-80 156,-164 192,-237c29,-58 30,-62 10,-62c-8,0 -15,9 -15,19c0,36 -100,169 -190,254c-50,47 -90,87 -90,91c0,16 22,1 93,-65Zm-1401,-93c-2,-77 -7,-136 -13,-136c-10,0 -13,263 -3,273c16,16 19,-9 16,-137Zm3431,104c-4,-4 -44,-13 -88,-19c-44,-7 -107,-17 -140,-22l-60,-10l13,-181c12,-163 12,-201 -3,-187c-4,5 -36,382 -32,385c6,6 303,50 310,46c5,-2 5,-8 0,-12Zm289,-6c42,-22 116,-92 134,-127c21,-40 19,-117 -4,-168c-21,-48 -96,-136 -143,-170c-55,-39 -42,-11 24,51c161,150 155,300 -15,390c-21,11 -38,25 -38,30c0,13 6,13 42,-6Zm-922,-24c63,-11 117,-20 120,-20c2,0 0,-4 -6,-10c-8,-8 -117,4 -210,25c-15,3 -46,-17 -114,-75c-86,-74 -117,-94 -108,-71c3,10 190,171 198,171c3,0 57,-9 120,-20Zm-958,-172c-5,-91 15,-216 48,-314c12,-34 17,-61 11,-67c-11,-11 -46,92 -66,197c-15,78 -20,221 -9,250c14,36 20,11 16,-66Zm1848,62c0,-15 -126,-105 -194,-140c-37,-19 -74,-30 -101,-30c-43,0 -87,22 -67,34c6,3 13,2 17,-4c12,-19 80,-10 140,19c33,16 89,51 125,79c67,52 80,59 80,42Zm341,-94c-27,-29 -43,-74 -35,-100c3,-11 17,-33 31,-47c14,-15 20,-29 15,-33c-10,-6 -43,27 -62,63c-7,13 -9,37 -6,57c8,38 53,97 68,88c5,-4 1,-15 -11,-28Zm-1112,-108c61,-70 111,-130 111,-133c0,-3 -6,-5 -12,-4c-18,1 -229,250 -222,261c3,5 7,8 9,6c1,-2 52,-60 114,-130Zm-1506,50c3,-13 15,-79 28,-148c12,-69 23,-126 24,-127c1,-1 67,-9 148,-16c81,-8 150,-17 153,-19c10,-11 51,-228 44,-233c-13,-8 -16,1 -35,101c-9,50 -20,97 -25,104c-5,8 -58,17 -150,26c-79,7 -145,16 -148,19c-5,5 -61,278 -62,303c0,21 18,13 23,-10Zm-664,-15c0,-5 -28,-32 -62,-62c-34,-29 -92,-80 -129,-112c-36,-33 -69,-56 -72,-51c-3,5 51,59 120,121c115,102 145,124 143,104Zm3531,-3c0,-21 -196,-380 -207,-380c-7,0 17,55 53,123c36,67 81,155 102,195c33,66 52,88 52,62Zm-3155,-30c-3,-5 -17,-10 -31,-10c-14,0 -34,-5 -46,-11c-23,-12 -48,-66 -48,-104c0,-14 -4,-25 -10,-25c-5,0 -10,13 -10,29c0,75 49,131 113,131c23,0 36,-4 32,-10Zm1525,-10c0,-6 -28,-55 -62,-110l-63,-99l-71,70l-70,70l-49,-71c-43,-62 -65,-84 -65,-63c0,5 85,134 106,162c2,2 33,-25 69,-60c37,-35 69,-65 73,-66c4,-2 32,38 62,87c51,83 70,105 70,80Zm-2308,-192c14,-86 22,-157 17,-162c-12,-13 -15,-1 -40,154l-21,135l-184,-15c-135,-12 -184,-13 -184,-4c0,7 61,16 178,26c97,8 184,16 192,17c12,1 21,-32 42,-151Zm4356,39c30,-10 44,-27 21,-27c-6,0 -48,13 -95,30c-46,16 -84,26 -84,22c0,-4 22,-67 49,-139c27,-73 47,-133 44,-133c-20,0 -293,151 -288,160c3,4 61,-21 130,-57l125,-64l-39,108c-22,59 -44,121 -50,136c-6,16 -11,30 -11,32c0,2 37,-10 83,-27c45,-17 97,-35 115,-41Zm-1432,-62c-20,-52 -36,-97 -36,-100c0,-2 63,18 140,45c77,27 140,47 140,43c0,-8 -140,-266 -151,-277c-28,-29 -11,15 45,120c35,65 63,120 61,122c-1,1 -60,-18 -130,-43c-70,-25 -131,-45 -135,-45c-5,0 9,45 30,99l37,99l-41,-18c-22,-10 -79,-34 -124,-55c-46,-20 -86,-34 -90,-31c-3,3 -3,8 -1,11c8,8 284,132 287,129c2,-1 -12,-46 -32,-99Zm-1986,-24c36,-24 67,-46 69,-48c2,-1 -25,-35 -61,-75l-65,-73l91,-54c50,-30 93,-56 95,-57c1,-2 0,-7 -3,-12c-3,-6 -53,19 -112,55l-105,66l43,46c24,25 54,58 67,73l23,26l-71,48c-39,25 -68,51 -65,55c6,11 9,9 94,-50Zm2577,14c-3,-8 7,-39 23,-69c17,-31 30,-62 30,-70c0,-35 -27,-69 -70,-91c-80,-40 -88,-64 -49,-141c32,-66 37,-94 13,-94c-8,0 -12,5 -9,10c4,6 -8,40 -25,75c-43,88 -30,126 57,167c25,12 46,30 53,47c10,25 8,36 -19,86c-34,64 -39,95 -15,95c10,0 14,-6 11,-15Zm-3009,-7c-2,-6 -48,-23 -101,-37c-54,-14 -94,-28 -90,-32c5,-3 52,-21 106,-40c53,-19 95,-39 93,-44c-13,-34 -180,-278 -184,-267c-2,7 33,69 77,137l81,125l-33,13c-17,7 -74,28 -125,46c-51,19 -91,36 -88,38c4,4 243,71 259,72c5,1 7,-4 5,-11Zm1240,-43c13,-49 48,-75 101,-75c16,0 33,-4 36,-10c12,-19 -77,-11 -110,10c-32,20 -55,63 -55,101c0,34 16,20 28,-26Zm778,-86c55,-22 103,-45 108,-50c25,-23 -9,-15 -107,27l-106,45l-110,-56c-119,-59 -121,-60 -121,-45c0,10 206,119 226,119c7,1 56,-17 110,-40Zm-2663,-53c59,-21 107,-43 107,-47c0,-14 -13,-11 -101,21c-45,17 -84,28 -86,26c-3,-3 17,-65 45,-138c27,-73 48,-134 47,-136c-6,-7 -294,151 -289,159c3,5 62,-20 131,-57c94,-50 124,-62 119,-48c-18,44 -96,258 -96,262c0,2 4,2 8,0c4,-1 56,-20 115,-42Zm829,-147l57,-111l-46,-115c-26,-66 -49,-111 -54,-106c-6,6 9,53 34,114l44,104l-59,113c-38,70 -55,112 -46,112c7,0 39,-50 70,-111Zm2443,-67c-47,-69 -81,-129 -77,-133c4,-4 60,-26 125,-49c64,-24 115,-45 113,-48c-13,-12 -266,-67 -266,-57c0,6 45,22 100,35c55,13 97,27 93,30c-5,4 -50,22 -101,40c-51,18 -95,36 -98,41c-7,12 175,281 186,274c5,-3 -28,-63 -75,-133Zm-396,83c37,-43 55,-103 41,-139c-19,-51 -88,-58 -157,-16c-53,32 -38,41 23,13c73,-33 107,-25 112,26c4,44 -14,85 -49,116c-32,26 -36,35 -15,35c8,0 28,-16 45,-35Zm1179,24c-2,-7 -62,-32 -133,-56c-72,-25 -132,-47 -134,-49c-2,-2 16,-81 40,-176c46,-185 45,-181 32,-185c-5,-2 -28,77 -52,174c-24,98 -46,183 -48,189c-2,6 56,32 139,62c158,56 161,57 156,41Zm-1908,-117c12,-51 24,-92 25,-90c2,2 20,48 40,103c21,55 39,102 41,104c7,8 274,-174 274,-187c0,-6 -59,27 -130,75c-72,47 -132,84 -134,82c-1,-2 -23,-60 -48,-129c-26,-70 -49,-118 -52,-110c-17,45 -64,255 -59,263c9,15 18,-10 43,-111Zm-445,91c-51,-131 -64,-175 -47,-168c56,22 266,95 268,93c4,-5 -151,-288 -158,-288c-15,0 -7,21 52,131c34,61 59,113 57,115c-2,2 -61,-17 -132,-41c-70,-25 -129,-44 -132,-42c-3,4 25,85 66,190c6,15 16,27 22,27c7,0 8,-7 4,-17Zm2569,-70c-13,-43 -29,-97 -35,-120c-6,-23 -16,-46 -23,-51c-26,-20 -217,-95 -224,-87c-4,4 -2,10 3,12c6,2 55,23 110,47l100,43l35,116c19,64 40,117 47,117c8,0 3,-25 -13,-77Zm-4036,5c84,-40 135,-148 130,-275c-2,-37 -7,-68 -11,-68c-4,0 -9,38 -10,85c-5,152 -72,245 -187,264c-25,4 -38,11 -35,17c9,13 57,3 113,-23Zm1202,25c0,-5 -68,-62 -151,-128c-83,-66 -147,-121 -142,-122c4,-2 93,-18 197,-37c182,-34 205,-40 194,-51c-5,-6 -436,70 -444,77c-4,5 329,268 339,268c4,0 7,-3 7,-7Zm-1289,-313c11,-135 12,-170 2,-170c-8,0 -13,14 -14,38c0,20 -6,97 -12,170c-9,94 -9,132 -2,132c7,0 17,-63 26,-170Zm-191,54c0,-3 -20,-52 -45,-110l-45,-105l55,-109c59,-118 60,-120 45,-120c-6,0 -36,51 -67,114l-56,114l36,84c20,47 41,97 46,111c9,23 31,38 31,21Zm2601,-30c7,-8 20,-38 29,-67c24,-73 52,-87 127,-58c32,12 65,18 79,15c31,-8 21,-24 -16,-24c-16,0 -48,-7 -70,-16c-69,-28 -120,0 -140,78c-21,79 -57,95 -140,62c-40,-16 -90,-13 -90,6c0,6 10,8 23,5c12,-3 46,3 76,14c57,20 97,15 122,-15Zm1850,-106c34,-66 20,-128 -28,-128c-14,0 -47,13 -72,29c-66,42 -91,46 -124,21c-20,-16 -27,-30 -27,-58c0,-30 8,-44 55,-89c30,-29 55,-56 55,-58c0,-30 -116,76 -130,119c-13,41 -2,75 36,105c37,29 57,27 131,-14c35,-19 70,-35 78,-35c18,0 29,41 20,72c-10,29 -56,97 -84,122c-11,10 -18,23 -14,29c8,13 78,-64 104,-115Zm-3901,75c0,-16 12,-46 25,-68c44,-71 28,-120 -53,-158c-25,-12 -53,-34 -61,-49c-15,-25 -14,-31 12,-83c27,-56 35,-105 17,-105c-5,0 -10,12 -10,28c0,15 -12,45 -25,67c-45,72 -29,118 56,161c71,35 80,61 46,130c-27,55 -35,104 -17,104c6,0 10,-12 10,-27Zm3167,-70c58,-48 101,-89 95,-91c-11,-3 -220,157 -221,171c-2,19 29,0 126,-80Zm-668,-33c115,-108 244,-135 364,-76c32,15 61,25 64,22c10,-10 -27,-34 -87,-57c-70,-27 -166,-22 -234,11c-54,26 -151,102 -166,130c-18,33 3,23 59,-30Zm-839,30c0,-6 -53,-10 -140,-10c-87,0 -140,4 -140,10c0,6 53,10 140,10c87,0 140,-4 140,-10Zm-1262,-20c57,-35 77,-115 42,-170c-15,-24 -23,-3 -10,29c19,46 4,88 -41,119c-58,41 -52,59 9,22Zm319,-104c99,-101 188,-135 266,-102c39,16 108,89 126,134c7,17 17,32 22,32c24,0 -6,-64 -58,-121c-105,-116 -226,-104 -367,38c-61,62 -76,83 -59,83c3,0 35,-29 70,-64Zm1013,-26c0,-12 -14,-15 -155,-35c-60,-9 -117,-18 -125,-21c-14,-3 -14,-24 -2,-185c12,-164 12,-202 -3,-187c-5,5 -35,381 -30,386c3,4 269,49 298,51c9,0 17,-3 17,-9Zm311,-28c62,-40 116,-104 129,-153c15,-54 -1,-124 -42,-180c-38,-53 -139,-149 -150,-143c-14,9 -8,19 33,49c96,71 159,192 138,267c-12,47 -67,110 -126,145c-23,13 -43,29 -43,34c0,15 14,10 61,-19Zm442,-78c70,-41 77,-47 65,-62c-8,-9 -36,-43 -62,-75c-27,-32 -47,-59 -45,-61c2,-2 46,-25 97,-50c50,-25 92,-51 92,-56c0,-6 -3,-10 -6,-10c-10,0 -213,105 -214,110c0,3 27,38 59,79l59,75l-74,43c-41,24 -74,46 -74,48c0,13 32,0 103,-41Zm1007,-94c0,-87 -4,-140 -10,-140c-6,0 -10,53 -10,140c0,87 4,140 10,140c6,0 10,-53 10,-140Zm-3780,113c0,-4 -37,-63 -82,-130c-44,-68 -79,-125 -77,-126c2,-2 59,-23 126,-48c67,-24 120,-46 117,-48c-11,-11 -265,-67 -270,-60c-6,11 -2,13 116,42l95,23l-107,39c-60,22 -108,43 -108,47c0,5 39,67 87,138c76,115 103,147 103,123Zm628,-71c98,-133 134,-244 93,-285c-17,-17 -23,-2 -10,26c22,49 -28,161 -127,283c-28,35 -34,54 -17,54c2,0 29,-35 61,-78Zm2914,-104c15,-84 24,-155 22,-158c-11,-11 -22,29 -43,153c-12,72 -23,132 -24,133c-1,1 -82,-5 -180,-13c-160,-14 -201,-13 -186,2c5,4 281,31 350,34l35,1l26,-152Zm-1268,85c-63,-54 -175,-121 -226,-134c-52,-14 -98,-5 -106,20c-4,11 0,12 14,5c60,-27 143,3 270,100c75,57 112,64 48,9Zm-2696,-59l104,-67l-69,-69l-68,-69l25,-20c14,-10 44,-32 67,-47c42,-26 54,-42 33,-42c-6,0 -44,23 -85,52l-75,52l66,67c37,37 64,71 61,76c-3,5 -44,33 -91,63c-75,46 -102,70 -79,70c3,0 53,-30 111,-66Zm3697,-11c-28,-65 0,-140 99,-270c31,-40 51,-75 46,-78c-12,-8 -126,145 -156,210c-25,53 -30,104 -14,136c13,24 35,26 25,2Zm-2120,-78c77,-41 143,-75 148,-75c4,0 7,-4 7,-10c0,-19 -22,-10 -142,55c-80,42 -118,58 -113,47c30,-74 91,-262 86,-262c-10,0 -213,78 -219,85c-18,18 17,11 97,-18c50,-19 91,-31 91,-26c0,5 -7,26 -15,46c-20,53 -84,233 -82,233c1,0 65,-34 142,-75Zm346,-37c96,-82 219,-247 219,-294c0,-28 -18,-13 -34,29c-22,60 -134,197 -210,259c-35,29 -62,56 -59,61c6,10 18,2 84,-55Zm2699,22c0,-5 -17,-14 -37,-19c-21,-5 -64,-16 -96,-25c-33,-8 -61,-16 -63,-19c-2,-2 38,-18 88,-36c51,-17 99,-35 107,-40c10,-7 -7,-40 -74,-145c-49,-75 -92,-136 -98,-136c-14,0 -5,18 78,145c47,72 72,121 66,125c-6,3 -63,24 -126,46c-63,21 -115,41 -115,44c0,5 230,67 258,69c6,1 12,-3 12,-9Zm-3746,-132c9,-62 20,-128 23,-147l6,-34l96,7c53,4 135,9 184,13c62,4 87,3 87,-6c0,-6 -12,-11 -27,-12c-16,0 -102,-6 -192,-12c-111,-9 -164,-9 -167,-2c-6,17 -44,264 -44,285c0,11 4,20 9,20c4,0 16,-51 25,-112Zm1486,33c0,-5 -14,-47 -30,-92c-17,-45 -29,-84 -26,-86c2,-3 63,17 136,42c72,26 133,45 135,43c3,-3 -140,-275 -151,-287c-2,-2 -7,-1 -10,2c-7,6 19,60 93,194l34,62l-123,-44c-68,-24 -132,-47 -142,-51c-15,-6 -18,-4 -14,7c3,8 22,60 43,117c21,56 42,102 47,102c4,0 8,-4 8,-9Zm-1680,-21c0,-22 -121,-250 -130,-245c-5,3 18,62 53,130c55,113 77,144 77,115Zm2453,-50c-4,-4 -57,-17 -117,-29c-60,-11 -110,-22 -111,-23c-1,-2 -28,-49 -59,-105c-31,-57 -61,-103 -67,-103c-14,0 -13,1 52,119l61,110l51,10c29,6 81,17 117,24c64,13 89,12 73,-3Zm357,3c0,-15 -228,-248 -235,-241c-7,7 213,248 227,248c5,0 8,-3 8,-7Zm740,-12c0,-5 -16,-21 -35,-35c-19,-15 -35,-33 -35,-41c0,-8 23,-40 51,-72c63,-71 99,-144 99,-200c0,-45 -18,-65 -70,-76c-38,-8 -163,16 -168,32c-3,10 0,12 14,7c38,-15 173,-19 189,-6c38,32 0,138 -83,234c-63,71 -65,94 -15,135c38,32 53,38 53,22Zm-2431,-73c42,-28 78,-53 80,-54c2,-2 -25,-33 -60,-69c-35,-37 -65,-69 -66,-73c-1,-4 38,-31 87,-60c50,-29 90,-57 90,-62c0,-6 -3,-10 -6,-10c-10,0 -204,122 -204,128c0,4 30,37 66,73l67,67l-72,48c-63,41 -85,64 -64,64c4,0 41,-23 82,-52Zm-1479,6c0,-3 -7,-12 -15,-20c-8,-9 -20,-35 -26,-60c-12,-48 -56,-94 -90,-94c-11,0 -36,7 -56,15c-77,32 -116,16 -137,-58c-15,-53 -49,-97 -60,-79c-3,5 1,15 9,22c8,6 19,28 25,48c19,63 34,85 67,99c29,12 40,11 94,-8c61,-21 61,-21 87,-2c15,11 32,38 38,60c17,57 32,83 49,83c8,0 15,-3 15,-6Zm3291,-270c105,-53 197,-19 268,99c35,59 63,70 35,14c-74,-146 -201,-196 -322,-127c-58,34 -175,147 -166,162c3,5 34,-20 69,-56c35,-36 87,-77 116,-92Zm-2171,86c0,-5 -13,-10 -29,-10c-47,0 -82,-37 -88,-93c-3,-26 -10,-47 -16,-47c-6,0 -8,21 -5,52c7,65 48,108 103,108c19,0 35,-4 35,-10Zm-449,-154c0,-75 -3,-136 -8,-136c-9,0 -17,246 -8,268c12,32 16,-2 16,-132Zm3649,115c0,-9 -264,-193 -275,-192c-19,3 5,24 125,107c135,93 150,102 150,85Zm-3828,-173c14,-84 23,-157 18,-162c-10,-11 -14,4 -40,159l-22,130l-179,-14c-157,-13 -204,-12 -188,3c3,3 271,28 364,35c19,1 23,-12 47,-151Zm2093,130c9,-42 45,-265 45,-282c0,-9 -4,-16 -8,-16c-5,0 -19,62 -31,138c-12,75 -24,142 -25,147c-3,7 -47,7 -142,-1c-201,-18 -218,-19 -224,-8c-4,7 223,34 357,43c16,1 24,-6 28,-21Zm265,-168c0,-87 -4,-140 -10,-140c-6,0 -10,53 -10,140c0,87 4,140 10,140c6,0 10,-53 10,-140Zm-2836,29c25,-22 -10,-17 -93,14c-50,19 -91,34 -91,33c0,-2 20,-56 44,-122c24,-65 47,-130 51,-143c6,-21 -7,-16 -131,49c-146,76 -161,86 -152,95c3,3 62,-24 131,-60l125,-66l-49,132c-27,72 -49,135 -49,140c0,9 198,-58 214,-72Zm1289,-64l57,-115l-41,-103c-43,-103 -55,-125 -64,-115c-3,2 13,49 36,104c22,54 41,106 41,114c1,8 -24,61 -54,117c-50,92 -57,113 -39,113c3,0 32,-52 64,-115Zm493,36c129,-48 135,-51 130,-60c-3,-5 -47,6 -97,25c-51,19 -93,34 -94,34c-2,0 20,-61 47,-136c27,-74 48,-137 46,-140c-6,-6 -288,139 -288,149c0,15 27,5 136,-53c62,-33 115,-60 117,-60c3,0 -17,60 -44,133c-27,72 -49,133 -49,135c0,6 22,0 96,-27Zm594,0c0,-5 -45,-17 -100,-27c-54,-10 -104,-20 -109,-24c-6,-3 -18,-71 -26,-150c-9,-80 -18,-147 -21,-149c-7,-7 -308,-60 -313,-55c-12,12 26,23 149,44c74,12 138,25 142,29c4,3 15,71 23,151c9,80 18,146 19,148c5,4 188,40 214,41c12,1 22,-3 22,-8Zm900,-31c0,-5 -19,-14 -42,-20c-24,-6 -70,-19 -103,-29l-60,-17l97,-33c53,-19 102,-37 109,-41c9,-6 -7,-39 -62,-124c-91,-142 -106,-163 -114,-154c-4,3 30,63 75,133c46,69 81,128 78,130c-2,2 -60,24 -128,49c-69,25 -123,45 -120,46c47,14 248,68 258,69c6,0 12,-3 12,-9Zm477,-16c13,-8 28,-35 38,-66c26,-88 55,-104 134,-72c44,17 82,16 89,-4c3,-9 -3,-11 -21,-7c-13,4 -41,0 -62,-9c-78,-33 -136,-8 -156,67c-23,88 -59,107 -143,72c-36,-15 -86,-11 -86,6c0,5 17,9 38,10c20,0 53,7 72,14c37,14 61,11 97,-11Zm-3544,-44c-7,-61 19,-119 102,-228c70,-91 67,-119 -3,-32c-98,123 -140,231 -116,294c13,34 23,14 17,-34Zm715,-5c110,-45 144,-66 110,-65c-7,0 -55,18 -105,39c-51,21 -90,33 -86,27c4,-6 33,-50 65,-99c40,-59 55,-89 46,-92c-7,-2 -75,-27 -150,-55c-141,-51 -158,-56 -158,-42c0,4 61,30 136,57c75,27 138,53 140,57c3,4 -27,55 -66,112c-69,103 -78,121 -62,114c5,-1 63,-25 130,-53Zm3323,-17c49,-40 89,-75 89,-78c0,-3 -32,-33 -72,-65l-71,-59l64,-57c35,-32 61,-61 57,-65c-7,-7 -83,53 -126,99l-23,25l68,57c37,32 68,61 68,65c0,4 -37,38 -82,74c-46,37 -83,69 -83,71c0,16 33,-4 111,-67Zm-1818,-120c101,-205 231,-244 376,-113c23,21 44,35 48,31c11,-11 -59,-75 -111,-101c-132,-66 -252,-2 -336,180c-24,51 -29,75 -16,75c2,0 19,-33 39,-72Zm-2662,-153c43,-23 60,-27 109,-23c72,5 115,35 162,113c18,30 36,55 40,55c11,0 10,-7 -8,-43c-72,-138 -184,-184 -306,-124c-57,28 -184,149 -174,166c3,5 33,-19 66,-53c33,-35 83,-75 111,-91Zm1819,61c0,-26 -46,-81 -83,-99c-31,-16 -42,-17 -72,-7c-51,17 -43,28 15,22c43,-4 55,-1 75,18c13,12 29,35 35,51c13,30 30,39 30,15Zm2128,-61c45,-27 82,-55 82,-62c0,-7 -46,15 -102,49l-101,61l-114,-37c-63,-21 -117,-35 -120,-32c-10,10 1,15 118,55c92,31 118,36 134,27c12,-6 58,-33 103,-61Z" style="fill:#fefefe;fill-rule:nonzero;"/></svg>